SplineFontDB: 3.0
FontName: RoutedGothicNarrow-Half-Italic
FullName: Routed Gothic Narrow Half Italic
FamilyName: Routed Gothic Narrow
Weight: Regular

StartChar: exclam
Encoding: 33 33 0
Width: 230
VWidth: 32
Flags: HW
HStem: 48 48<97.5248 132.875>
VStem: 96 38<49.9059 94.0941>
LayerCount: 2
Fore
SplineSet
124.268420107 71.4040465668 m 0
 117.020165805 38.2253312802 90.7136724472 0 45 0 c 0
 0.131213151183 0 -12.070848178 38.1049736902 -12.070848178 62.4269853464 c 0
 -12.070848178 66.2618514301 -11.7675047263 69.7540728437 -11.2410330382 72.7002647723 c 0
 -3.65634605222 107.7979047 19.9228647227 144 67 144 c 0
 106.513640646 144 125.153869657 111.32597217 125.153869657 82.1893488372 c 0
 125.153869657 78.5137204371 124.857225361 74.8943869925 124.268420107 71.4040465668 c 0
188.413574487 735.067872433 m 0
 210.985946779 730.553397975 226.975488308 710.078489371 226.975488308 687.74826791 c 0
 226.975488308 684.716750503 226.680795129 681.651038993 226.067872433 678.586425513 c 2
 146.067872433 278.586425513 l 2
 141.553397975 256.014053221 121.078489371 240.024511692 98.7482679102 240.024511692 c 0
 95.7167505034 240.024511692 92.6510389928 240.319204871 89.5864255134 240.932127567 c 0
 67.0125138044 245.446909909 51.024544865 265.922854489 51.024544865 288.251977254 c 0
 51.024544865 291.283453494 51.3192300552 294.349086928 51.9321275668 297.413574487 c 2
 131.932127567 697.413574487 l 2
 136.446909909 719.987486196 156.922854489 735.975455135 179.251977254 735.975455135 c 0
 182.283453494 735.975455135 185.349086928 735.680769945 188.413574487 735.067872433 c 0
EndSplineSet
EndChar

StartChar: quotedbl
Encoding: 34 34 1
Width: 307
VWidth: 32
Flags: HW
LayerCount: 2
Fore
SplineSet
290.282915596 735.093815709 m 0
 312.9114848 730.633376587 328.976182292 710.132322879 328.976182292 687.751603437 c 0
 328.976182292 684.762381616 328.689605674 681.739628616 328.093815709 678.717084404 c 2
 287.093815709 470.717084404 l 2
 282.633376587 448.0885152 262.132322879 432.023817708 239.751603437 432.023817708 c 0
 236.762381616 432.023817708 233.739628616 432.310394326 230.717084404 432.906184291 c 0
 208.086969805 437.366928034 192.0238502 457.869028988 192.0238502 480.248641771 c 0
 192.0238502 483.237821406 192.310418922 486.260496163 192.906184291 489.282915596 c 2
 233.906184291 697.282915596 l 2
 238.366928034 719.913030195 258.869028988 735.9761498 281.248641771 735.9761498 c 0
 284.237821406 735.9761498 287.260496163 735.689581078 290.282915596 735.093815709 c 0
162.282915596 735.093815709 m 0
 184.9114848 730.633376587 200.976182292 710.132322879 200.976182292 687.751603437 c 0
 200.976182292 684.762381616 200.689605674 681.739628616 200.093815709 678.717084404 c 2
 159.093815709 470.717084404 l 2
 154.633376587 448.0885152 134.132322879 432.023817708 111.751603437 432.023817708 c 0
 108.762381616 432.023817708 105.739628616 432.310394326 102.717084404 432.906184291 c 0
 80.0869698054 437.366928034 64.0238502002 457.869028988 64.0238502002 480.248641771 c 0
 64.0238502002 483.237821406 64.3104189219 486.260496163 64.906184291 489.282915596 c 2
 105.906184291 697.282915596 l 2
 110.366928034 719.913030195 130.869028988 735.9761498 153.248641771 735.9761498 c 0
 156.237821406 735.9761498 159.260496163 735.689581078 162.282915596 735.093815709 c 0
EndSplineSet
EndChar

StartChar: numbersign
Encoding: 35 35 2
Width: 537
VWidth: 32
Flags: HW
LayerCount: 2
Fore
SplineSet
186.45989613 3.72512508763 m 0
 168.23663213 11.3561168879 157.092511164 29.5517874159 157.092511164 48.3946677752 c 0
 157.092511164 54.4872310851 158.257579336 60.6474572978 160.725125088 66.5401038696 c 2
 233.361456592 240 l 1
 196.438543408 240 l 1
 108.274874912 29.4598961304 l 2
 100.643431958 11.2355547479 82.4474299074 0.0925809433507 63.6052556327 0.0925809433507 c 0
 57.512588107 0.0925809433507 51.3523587813 1.25765635257 45.4598961304 3.72512508763 c 0
 27.2366321299 11.3561168879 16.0925111644 29.5517874159 16.0925111644 48.3946677752 c 0
 16.0925111644 54.4872310851 17.2575793357 60.6474572978 19.7251250876 66.5401038696 c 2
 92.3614565923 240 l 1
 74 240 l 2
 47.8536339246 240 26 261.855528292 26 288 c 0
 26 314.144471708 47.8536339246 336 74 336 c 2
 132.561456592 336 l 1
 159.361456592 400 l 1
 106 400 l 2
 79.8536339246 400 58 421.855528292 58 448 c 0
 58 474.144471708 79.8536339246 496 106 496 c 2
 199.561456592 496 l 1
 287.725125088 706.54010387 l 2
 295.356116888 724.76336787 313.551787416 735.907488836 332.394667775 735.907488836 c 0
 338.487231085 735.907488836 344.647457298 734.742420664 350.54010387 732.274874912 c 0
 368.764445252 724.643431958 379.907419057 706.447429907 379.907419057 687.605255633 c 0
 379.907419057 681.512588107 378.742343647 675.352358781 376.274874912 669.45989613 c 2
 303.638543408 496 l 1
 340.561456592 496 l 1
 428.725125088 706.54010387 l 2
 436.356116888 724.76336787 454.551787416 735.907488836 473.394667775 735.907488836 c 0
 479.487231085 735.907488836 485.647457298 734.742420664 491.54010387 732.274874912 c 0
 509.764445252 724.643431958 520.907419057 706.447429907 520.907419057 687.605255633 c 0
 520.907419057 681.512588107 519.742343647 675.352358781 517.274874912 669.45989613 c 2
 444.638543408 496 l 1
 464 496 l 2
 490.144471708 496 512 474.146366075 512 448 c 0
 512 421.853633925 490.144471708 400 464 400 c 2
 404.438543408 400 l 1
 377.638543408 336 l 1
 432 336 l 2
 458.144471708 336 480 314.146366075 480 288 c 0
 480 261.853633925 458.144471708 240 432 240 c 2
 337.438543408 240 l 1
 249.274874912 29.4598961304 l 2
 241.643431958 11.2355547479 223.447429907 0.0925809433507 204.605255633 0.0925809433507 c 0
 198.512588107 0.0925809433507 192.352358781 1.25765635257 186.45989613 3.72512508763 c 0
263.438543408 400 m 1
 236.638543408 336 l 1
 273.561456592 336 l 1
 300.361456592 400 l 1
 263.438543408 400 l 1
EndSplineSet
EndChar

StartChar: dollar
Encoding: 36 36 3
Width: 403
VWidth: 32
Flags: HW
LayerCount: 2
Fore
SplineSet
360.750929664 492.251848297 m 0
 354.450491109 489.407396271 347.925366809 488.087227608 341.51880633 488.087227608 c 0
 323.130346736 488.087227608 305.718658741 498.963254143 297.400288309 515.888771287 c 0
 296.542934119 517.521026614 292.974006972 523.944171861 285.630253123 530.239089084 c 1
 262.731438168 414.843486159 l 1
 324.534761546 389.89691706 343.425834897 336.898716997 343.425834897 289.530281667 c 0
 343.425834897 277.354166518 342.17760078 265.550039994 340.089126191 254.689972131 c 0
 326.126043911 185.948643985 276.63923707 119.67860482 200.476975972 101.120212104 c 1
 188.081966506 38.6571722715 l 2
 183.596718834 16.0543493593 163.107630221 0.0241347296843 140.750071195 0.0241347296843 c 0
 137.741458344 0.0241347296843 134.699010191 0.314418782287 131.657172272 0.91803349438 c 0
 109.052806703 5.40358728689 93.024167534 25.8937179757 93.024167534 48.2501740034 c 0
 93.024167534 51.2587451303 93.3144436473 54.3011151132 93.9180334944 57.3428277285 c 2
 103.575379359 106.009767518 l 1
 39.6606592064 131.555302009 14.8367803942 197.192591992 14.6547195948 197.61213357 c 0
 12.2432499696 203.707933611 11.1086219368 209.92404211 11.1086219368 215.988261616 c 0
 11.1086219368 234.897176046 22.1401805349 252.329331336 39.8919201652 260.032729702 c 0
 45.848420599 262.617563452 52.1285504122 263.820133513 58.3513571052 263.820133513 c 0
 76.6062370565 263.820133513 94.3678124091 253.47119683 102.018878886 237.309716638 c 0
 104.734599275 231.444442605 112.521577882 218.260960404 123.738422872 207.618805692 c 1
 150.890455828 344.447948149 l 1
 90.6825599777 369.86726949 70.7779262728 425.747293154 70.7779262728 470.524986487 c 0
 70.7779262728 476.441618006 71.12544627 482.164411152 71.7734276231 487.597482036 c 0
 72.3543001752 492.4678718 72.9331754524 496.179871042 73.9214889756 501.368517039 c 0
 87.4184512763 566.399335397 141.387302689 620.850410274 208.721968406 635.882342246 c 1
 220.918033494 697.342827728 l 2
 225.403587287 719.947193297 245.893717976 735.975832466 268.250174003 735.975832466 c 0
 271.25874513 735.975832466 274.301115113 735.685556353 277.342827728 735.081966506 c 0
 299.945650641 730.596718834 315.97586527 710.107630221 315.97586527 687.750071195 c 0
 315.97586527 684.741458344 315.685581218 681.699010191 315.081966506 678.657172272 c 2
 305.282361459 629.273335814 l 1
 360.437056627 607.629694497 382.679649371 560.332685846 385.071162438 555.035503475 c 0
 387.497720246 549.154845677 388.678809413 542.870189498 388.678809413 536.591520146 c 0
 388.678809413 518.483433087 378.854713178 500.425143418 360.750929664 492.251848297 c 0
184.358209089 513.104342537 m 1
 176.150035899 503.615890473 170.310918394 492.944205745 168.074949236 482.608310493 c 0
 167.671374473 480.437596584 167.354374155 478.379322165 167.09785466 476.228506268 c 0
 166.413385173 470.489496611 165.823309469 465.189541669 165.823309469 460.354430383 c 0
 165.823309469 453.70090158 166.940684254 447.927606581 170.467068747 443.101745536 c 1
 184.358209089 513.104342537 l 1
225.403229068 226.73282613 m 1
 235.131343659 239.596897289 242.186165398 255.453912805 245.909137711 273.299927112 c 0
 248.190630506 285.362803793 250.084003924 294.682165346 250.084003924 302.062240368 c 0
 250.084003924 309.093118038 248.365566169 314.36388692 243.627154922 318.569932795 c 1
 225.403229068 226.73282613 l 1
EndSplineSet
EndChar

StartChar: percent
Encoding: 37 37 5
Width: 691
VWidth: 32
Flags: HW
HStem: 48 240<439.922 558.478> 448 240<132.722 251.278>
VStem: 90 205<500.907 635.093> 397 205<100.907 235.093>
LayerCount: 2
Fore
SplineSet
609.095117106 158.723689055 m 0
 592.625649989 75.109471384 522.743029323 0 436 0 c 0
 427.663504777 0 419.419667182 0.757226634794 411.388250104 2.27432014219 c 0
 342.646884372 15.2592116783 306.497944621 76.9505862826 306.497944621 142.443566667 c 0
 306.497944621 154.018367608 307.627046467 165.711910624 309.904882894 177.276310945 c 0
 326.374350011 260.890528616 396.256970677 336 483 336 c 0
 491.336495223 336 499.580332818 335.242773365 507.611749896 333.725679858 c 0
 576.353115628 320.740788322 612.502055379 259.049413717 612.502055379 193.556433333 c 0
 612.502055379 181.981632392 611.372953533 170.288089376 609.095117106 158.723689055 c 0
514.904882894 177.276310945 m 0
 516.306802752 184.393750223 516.930446554 190.796504682 516.930446554 196.536636672 c 0
 516.930446554 224.990364185 501.606480199 237.162354614 489.792954492 239.39386905 c 0
 487.787410421 239.772706042 485.547926887 240 483 240 c 0
 455.743029323 240 413.625649989 207.109471384 404.095117106 158.723689055 c 0
 402.693197248 151.606249777 402.069553446 145.203495318 402.069553446 139.463363328 c 0
 402.069553446 111.009635815 417.393519801 98.8376453861 429.207045508 96.6061309504 c 0
 431.212589579 96.2272939581 433.452073113 96 436 96 c 0
 463.256970677 96 505.374350011 128.890528616 514.904882894 177.276310945 c 0
381.095117106 558.723689055 m 0
 364.625649989 475.109471384 294.743029323 400 208 400 c 0
 199.663504777 400 191.419667182 400.757226635 183.388250104 402.274320142 c 0
 114.646884372 415.259211678 78.4979446214 476.950586283 78.4979446214 542.443566667 c 0
 78.4979446214 554.018367608 79.6270464669 565.711910624 81.9048828938 577.276310945 c 0
 98.4714357105 661.383425246 169.575782202 736 256 736 c 0
 264.378507109 736 272.664540609 735.235053292 280.736182443 733.697192168 c 0
 349.488786151 720.598003844 384.541910481 658.895945713 384.541910481 593.984553919 c 0
 384.541910481 582.246403359 383.395647565 570.40330523 381.095117106 558.723689055 c 0
286.904882894 577.276310945 m 0
 288.357941877 584.653379629 289.000943029 591.250351031 289.000943029 597.130942118 c 0
 289.000943029 625.580198048 273.951805449 637.26291179 262.768847965 639.393560786 c 0
 260.790668043 639.77045635 258.56088683 640 256 640 c 0
 228.424217798 640 185.528564289 606.616574754 176.095117106 558.723689055 c 0
 174.693197248 551.606249777 174.069553446 545.203495318 174.069553446 539.463363328 c 0
 174.069553446 511.009635815 189.393519801 498.837645386 201.207045508 496.60613095 c 0
 203.212589579 496.227293958 205.452073113 496 208 496 c 0
 235.256970677 496 277.374350011 528.890528616 286.904882894 577.276310945 c 0
115.152328373 7.55376566991 m 0
 100.964344524 16.6207740988 93.1563713982 32.3676450023 93.1563713982 48.3148133172 c 0
 93.1563713982 57.129297217 95.5417918118 66.0049741469 100.55376567 73.8476716266 c 2
 509.55376567 713.847671627 l 2
 518.620774099 728.035655476 534.367645002 735.843628602 550.314813317 735.843628602 c 0
 559.129297217 735.843628602 568.004974147 733.458208188 575.847671627 728.44623433 c 0
 590.03634745 719.378783687 597.843567574 703.63197111 597.843567574 687.685362959 c 0
 597.843567574 678.870602228 595.458059803 669.994793661 590.44623433 662.152328373 c 2
 181.44623433 22.1523283734 l 2
 172.378783687 7.96365254985 156.63197111 0.156432425803 140.685362959 0.156432425803 c 0
 131.870602228 0.156432425803 122.994793661 2.54194019726 115.152328373 7.55376566991 c 0
EndSplineSet
EndChar

StartChar: ampersand
Encoding: 38 38 6
Width: 627
VWidth: 32
Flags: HW
LayerCount: 2
Fore
SplineSet
318.851103501 455.386595768 m 1
 378.667709851 463.561226967 420.917035935 509.910984637 430.882461296 561.161743637 c 0
 432.26886086 568.291798535 433.021720375 575.174988499 433.021720375 581.735861773 c 0
 433.021720375 612.597141932 416.363886766 636.326815659 370.629747259 645.072052896 c 0
 361.041333056 646.905540042 349.862384734 648 337 648 c 0
 239.431771403 648 198.108903675 587.095030514 189.03939134 542.445123634 c 0
 186.404786746 529.564834508 185.155407822 518.854534309 185.155407822 509.916289231 c 0
 185.155407822 478.634098819 200.458668257 469.057269773 225.241691173 464.127118119 c 0
 231.919244285 462.79873499 239.858013403 462 249 462 c 0
 272.867940868 462 296.464677699 459.79302454 318.851103501 455.386595768 c 1
574.398363448 399.418405454 m 0
 580.085749474 391.246022778 582.632090878 381.946505928 582.632090878 372.779284021 c 0
 582.632090878 357.324373578 575.394831649 342.245474297 563.76993046 333.577345781 c 0
 561.156200161 331.681277374 541.588441947 317.41361259 516.23344798 286.712991138 c 1
 529.829183488 248.577528046 536.667840185 205.295462186 536.667840185 157.723843901 c 0
 536.667840185 120.500785974 532.480877909 80.6514528912 524.067872433 38.5864255134 c 0
 519.553090091 16.0125138044 499.077145511 0.0245448649932 476.748022746 0.0245448649932 c 0
 473.716546506 0.0245448649932 470.650913072 0.319230055154 467.586425513 0.932127566836 c 0
 445.014053221 5.44660202528 429.024511692 25.9215106285 429.024511692 48.2517320898 c 0
 429.024511692 51.2832494966 429.319204871 54.3489610072 429.932127567 57.4135744866 c 0
 437.312003527 94.3129542885 440.72752769 127.695657472 440.790804262 157.41609322 c 0
 440.790804262 158.090478547 440.790305774 158.762892195 440.790305774 159.433337931 c 1
 375.60879809 24.9292947506 273.264162301 -7.99999903452 188 -8 c 0
 173.345965423 -8 159.248654531 -6.71372124102 145.783320496 -4.11198563103 c 0
 47.2119999137 14.933699698 5.83829232151 97.5315967165 5.83829232151 181.823388154 c 0
 5.83829232151 199.111026201 7.57859662924 216.469914614 10.9226951369 233.366412337 c 0
 27.30206963 315.263284803 73.5875805795 376.17280443 126.382857944 414.49540869 c 1
 102.779142862 441.349053203 90.4121149949 477.508337702 90.4121149949 517.950751953 c 0
 90.4121149949 532.046712904 91.9144976764 546.663000973 94.9671240859 561.586952308 c 0
 111.885609902 644.877959404 190.57017174 744 337 744 c 0
 355.2834486 744 372.499682569 742.453834958 388.660095134 739.36365674 c 0
 482.913145482 721.340681026 528.419947486 650.14717549 528.419947486 576.987046761 c 0
 528.419947486 565.587293417 527.315059366 554.139791197 525.117538704 542.838256363 c 0
 514.493488829 488.200285575 482.920554389 437.056714564 435.959643901 402.148182965 c 1
 446.659173265 393.514660736 456.513838253 384.094684 465.519950581 373.927001557 c 1
 488.453738141 397.808582342 505.162288791 409.714705731 508.226227518 411.846985018 c 0
 516.193782283 417.013294473 525.554026558 419.615901427 534.927040939 419.615901427 c 0
 549.942433121 419.615901427 564.990597783 412.936717871 574.398363448 399.418405454 c 0
404.928516275 296.565213951 m 1
 388.397987773 320.082239256 366.871156264 336.78495564 341.882114798 348.068045009 c 0
 316.962029757 359.31999907 286.629542047 365.752219064 251.075357327 365.992986067 c 0
 208.843994547 361.546452358 124.278955223 310.641841247 105.067872433 214.586425513 c 0
 102.345634573 200.831960537 101.032040497 188.126275561 101.032040497 176.505974815 c 0
 101.032040497 127.498248377 124.396490122 97.7958808845 163.995343102 90.1446970636 c 0
 170.990475904 88.7931163261 178.958382403 88 188 88 c 0
 250.04495497 88 309.914329623 100.959455357 359.151183734 211.526425993 c 0
 373.737208115 244.281007059 389.411808604 272.50397799 404.928516275 296.565213951 c 1
EndSplineSet
EndChar

StartChar: quotesingle
Encoding: 39 39 7
Width: 179
VWidth: 0
Flags: HW
LayerCount: 2
Fore
SplineSet
162.282915596 735.093815709 m 0
 184.9114848 730.633376587 200.976182292 710.132322879 200.976182292 687.751603437 c 0
 200.976182292 684.762381616 200.689605674 681.739628616 200.093815709 678.717084404 c 2
 159.093815709 470.717084404 l 2
 154.633376587 448.0885152 134.132322879 432.023817708 111.751603437 432.023817708 c 0
 108.762381616 432.023817708 105.739628616 432.310394326 102.717084404 432.906184291 c 0
 80.0869698054 437.366928034 64.0238502002 457.869028988 64.0238502002 480.248641771 c 0
 64.0238502002 483.237821406 64.3104189219 486.260496163 64.906184291 489.282915596 c 2
 105.906184291 697.282915596 l 2
 110.366928034 719.913030195 130.869028988 735.9761498 153.248641771 735.9761498 c 0
 156.237821406 735.9761498 159.260496163 735.689581078 162.282915596 735.093815709 c 0
EndSplineSet
EndChar

StartChar: parenleft
Encoding: 40 40 8
Width: 275
VWidth: 32
Flags: HW
LayerCount: 2
Fore
SplineSet
294.212007987 806.08751225 m 0
 306.606460484 796.581329673 312.609278912 782.274812879 312.609278912 768.037161591 c 0
 312.609278912 757.892559017 309.561744776 747.782918351 303.607324578 739.469597634 c 0
 301.325634751 736.477296781 180.17004412 575.970952038 137.083418923 358.664494524 c 0
 125.285977171 299.164353513 120.997843605 244.196560479 120.997843605 195.721586643 c 0
 120.997843605 68.5448532226 150.513229728 -13.9415591757 151.375950493 -16.335412469 c 0
 153.091829625 -21.5136751914 153.903488841 -26.7460659007 153.903488841 -31.8691486147 c 0
 153.903488841 -51.7718160008 141.653560193 -70.0247575937 122.580784851 -77.0452835901 c 0
 117.177186715 -79.0343019952 111.609237717 -79.9893871506 106.109215153 -79.9893871506 c 0
 87.197288483 -79.9893871506 69.0884836172 -68.6970274625 61.2260327782 -49.3178769677 c 0
 59.5373825577 -44.7302938858 24.8783658021 49.5666321652 24.8783658021 194.976374792 c 0
 24.8783658021 249.299830695 29.7156767805 310.757031635 42.9165810767 377.335505476 c 0
 91.2819000518 621.264940307 223.558285991 792.83869781 227.390499156 797.835254908 c 0
 236.708601197 809.194588743 251.066918705 815.718943201 265.639456792 815.718943201 c 0
 275.573731355 815.718943201 285.607560926 812.6868715 294.212007987 806.08751225 c 0
EndSplineSet
EndChar

StartChar: parenright
Encoding: 41 41 9
Width: 275
VWidth: 32
Flags: HW
LayerCount: 2
Fore
SplineSet
127.419215149 813.04528359 m 0
 132.745609285 815.005883861 138.155644974 815.916982778 143.462771807 815.916982778 c 0
 163.168687745 815.916982778 181.455784455 803.355530631 188.773967222 785.317876968 c 0
 190.703268454 780.07651343 225.125915187 685.950838407 225.125915187 541.048859871 c 0
 225.125915187 486.722042079 220.287265703 425.257808715 207.083418923 358.664494524 c 0
 158.588664029 114.082252447 24.7280990671 -57.796159607 21.4978797249 -61.9754233552 c 0
 11.622014804 -73.9234771988 -2.28737456901 -79.9420618613 -16.1702810212 -79.9420618613 c 0
 -26.4644874864 -79.9420618613 -36.7441329639 -76.6328899572 -45.3539649488 -69.9782140415 c 0
 -57.3803179541 -60.6828547549 -63.8986551019 -46.5716174773 -63.8986551019 -32.0788494909 c 0
 -63.8986551019 -22.2040773102 -60.8725200215 -12.15217967 -54.5006646008 -3.32583118769 c 0
 -52.816973524 -1.134748939 69.7632561686 159.692649418 112.916581077 377.335505476 c 0
 124.715435316 436.842770336 129.004237762 491.8142514 129.004237762 540.291299076 c 0
 129.004237762 667.020840948 99.6939929357 749.366563561 98.624049507 752.335412469 c 0
 97.0344040535 757.132721114 96.2631187237 762.154382726 96.2631187237 767.183379557 c 0
 96.2631187237 786.399129498 107.523861138 805.721973399 127.419215149 813.04528359 c 0
EndSplineSet
EndChar

StartChar: asterisk
Encoding: 42 42 10
Width: 409
VWidth: 32
Flags: HW
LayerCount: 2
Fore
SplineSet
351.328495455 725.134901608 m 0
 365.235554963 716.011870571 372.839945394 700.445680529 372.839945394 684.697670442 c 0
 372.839945394 675.691348765 370.352761212 666.625558819 365.134901608 658.671504545 c 2
 331.894394626 608 l 1
 358 608 l 2
 384.144471708 608 406 586.146366075 406 560 c 0
 406 533.853633925 384.144471708 512 358 512 c 2
 305.316532267 512 l 1
 322.409944757 447.252225416 l 2
 323.458179347 443.281639847 323.958084754 439.275738944 323.958084754 435.317716229 c 0
 323.958084754 414.077313321 309.561589755 394.215727428 288.252225416 388.590055243 c 0
 284.281492064 387.541781638 280.275524312 387.041867621 276.317491215 387.041867621 c 0
 255.076144679 387.041867621 235.21535677 401.439814253 229.590055243 422.747774584 c 2
 224.074429363 443.640296855 l 1
 201.134901608 408.671504545 l 2
 192.011870571 394.764445037 176.445680529 387.160054606 160.697670442 387.160054606 c 0
 151.691348765 387.160054606 142.625558819 389.647238788 134.671504545 394.865098392 c 0
 120.763777154 403.98856756 113.160113436 419.55468091 113.160113436 435.302137547 c 0
 113.160113436 444.308747476 115.647393949 453.374677706 120.865098392 461.328495455 c 2
 154.105605374 512 l 1
 128 512 l 2
 101.853633925 512 80 533.855528292 80 560 c 0
 80 586.144471708 101.853633925 608 128 608 c 2
 180.683467733 608 l 1
 163.590055243 672.747774584 l 2
 162.541781638 676.718507936 162.041867621 680.724475688 162.041867621 684.682508785 c 0
 162.041867621 705.923855321 176.439814253 725.78464323 197.747774584 731.409944757 c 0
 201.718360153 732.458179347 205.724261056 732.958084754 209.682283771 732.958084754 c 0
 230.922686679 732.958084754 250.784272572 718.561589755 256.409944757 697.252225416 c 2
 261.925570637 676.359703145 l 1
 284.865098392 711.328495455 l 2
 293.98856756 725.236222846 309.55468091 732.839886564 325.302137547 732.839886564 c 0
 334.308747476 732.839886564 343.374677706 730.352606051 351.328495455 725.134901608 c 0
EndSplineSet
EndChar

StartChar: plus
Encoding: 43 43 11
Width: 512
VWidth: 192
Flags: HW
LayerCount: 2
Fore
SplineSet
477 368 m 0
 477 341.855528292 455.146366075 320 429 320 c 2
 295.386334906 320 l 1
 260.076236293 142.628341849 l 2
 255.579069325 120.037921732 235.095752609 104.024288007 212.749335531 104.024288007 c 0
 209.731389609 104.024288007 206.679462123 104.316364764 203.628341849 104.923763707 c 0
 181.036380394 109.421237515 165.024320962 129.905593821 165.024320962 152.250909656 c 0
 165.024320962 155.26881408 165.316389759 158.320663433 165.923763707 161.371658151 c 2
 197.502553983 320 l 1
 83 320 l 2
 56.8555282921 320 35 341.853633925 35 368 c 0
 35 394.146366075 56.8555282921 416 83 416 c 2
 216.613665094 416 l 1
 251.923763707 593.371658151 l 2
 256.421237515 615.963619606 276.905593821 631.975679038 299.250909656 631.975679038 c 0
 302.26881408 631.975679038 305.320663433 631.683610241 308.371658151 631.076236293 c 0
 330.962078268 626.579069325 346.975711993 606.095752609 346.975711993 583.749335531 c 0
 346.975711993 580.731389609 346.683635236 577.679462123 346.076236293 574.628341849 c 2
 314.497446017 416 l 1
 429 416 l 2
 455.146366075 416 477 394.144471708 477 368 c 0
EndSplineSet
EndChar

StartChar: comma
Encoding: 44 44 12
Width: 236
VWidth: 32
Flags: HW
LayerCount: 2
Fore
SplineSet
9.56778450041 12.6444380419 m 1
 -5.40413101209 26.9034051967 -12.0057311747 47.2890577227 -12.0057311747 63.5760292653 c 0
 -12.0057311747 66.8051138892 -11.7462371302 69.8730885882 -11.2410330382 72.7002647723 c 0
 -3.65634605222 107.7979047 19.9228647227 144 67 144 c 0
 107.501903707 144 128.826143914 107.77080633 128.826143914 72.0746944594 c 0
 128.826143914 66.1104751007 128.230839703 60.1611376715 127.030218738 54.3981570359 c 0
 116.107999404 -0.212939633259 72.6028041653 -76.2604882867 70.9195044261 -79.3959876221 c 0
 61.6673304537 -95.3541126913 45.3996462981 -103.970122335 28.839851626 -103.970122335 c 0
 21.164858496 -103.970122335 13.4271183195 -102.119353099 6.29598850066 -98.2909903152 c 0
 -9.68425722818 -89.7119601225 -18.8699544291 -72.8438595982 -18.8699544291 -55.6258289678 c 0
 -18.8699544291 -48.0229337025 -17.0789230753 -40.3518089083 -13.2909903152 -33.2959885007 c 2
 -13.2909903152 -33.2959885007 -2.35111773781 -12.9446174175 9.56778450041 12.6444380419 c 1
EndSplineSet
EndChar

StartChar: hyphen
Encoding: 45 45 13
Width: 332
VWidth: 32
Flags: HW
LayerCount: 2
Fore
SplineSet
-5 264 m 0
 -5 290.144471708 16.8536339246 312 43 312 c 2
 248 312 l 2
 274.144471708 312 296 290.146366075 296 264 c 0
 296 237.853633925 274.144471708 216 248 216 c 2
 43 216 l 2
 16.8536339246 216 -5 237.855528292 -5 264 c 0
EndSplineSet
EndChar

StartChar: period
Encoding: 46 46 14
Width: 230
VWidth: 32
Flags: HW
HStem: 48 48<97.5248 132.875>
VStem: 96 38<49.9059 94.0941>
AnchorPoint: "above" 32 -48 mark 0
LayerCount: 2
Fore
SplineSet
124.268420107 71.4040465668 m 0
 117.020165805 38.2253312802 90.7136724472 0 45 0 c 0
 0.131213151183 0 -12.070848178 38.1049736902 -12.070848178 62.4269853464 c 0
 -12.070848178 66.2618514301 -11.7675047263 69.7540728437 -11.2410330382 72.7002647723 c 0
 -3.65634605222 107.7979047 19.9228647227 144 67 144 c 0
 106.513640646 144 125.153869657 111.32597217 125.153869657 82.1893488372 c 0
 125.153869657 78.5137204371 124.857225361 74.8943869925 124.268420107 71.4040465668 c 0
EndSplineSet
EndChar

StartChar: slash
Encoding: 47 47 15
Width: 460
VWidth: 32
Flags: HW
LayerCount: 2
Fore
SplineSet
0.152328373425 7.55376566991 m 0
 -14.0356554762 16.6207740988 -21.8436286018 32.3676450023 -21.8436286018 48.3148133172 c 0
 -21.8436286018 57.129297217 -19.4582081882 66.0049741469 -14.4462343301 73.8476716266 c 2
 394.55376567 713.847671627 l 2
 403.620774099 728.035655476 419.367645002 735.843628602 435.314813317 735.843628602 c 0
 444.129297217 735.843628602 453.004974147 733.458208188 460.847671627 728.44623433 c 0
 475.03634745 719.378783687 482.843567574 703.63197111 482.843567574 687.685362959 c 0
 482.843567574 678.870602228 480.458059803 669.994793661 475.44623433 662.152328373 c 2
 66.4462343301 22.1523283734 l 2
 57.3787836866 7.96365254985 41.6319711098 0.156432425803 25.6853629593 0.156432425803 c 0
 16.870602228 0.156432425803 7.9947936607 2.54194019726 0.152328373425 7.55376566991 c 0
EndSplineSet
EndChar

StartChar: zero
Encoding: 48 48 16
Width: 537
VWidth: 32
Flags: HW
HStem: 40 656<200.583 337.017>
VStem: 70 397<233.016 502.984>
LayerCount: 2
Fore
SplineSet
514.077849649 358.636449794 m 0
 476.691965569 170.668532617 354.401139817 -8 204 -8 c 0
 193.251147664 -8 182.63701383 -6.98360655024 172.310739247 -4.96057546035 c 0
 61.5675471778 16.7352373663 11.6212007365 132.967529037 11.6212007365 265.243514538 c 0
 11.6212007365 301.94070839 15.4654135822 339.872734783 22.9221503514 377.363550206 c 0
 60.3538937997 565.562038099 183.740116344 744 334 744 c 0
 344.748811672 744 355.362038984 742.983596325 365.686435347 740.958354272 c 0
 476.196012395 719.280705065 525.486241047 603.465457195 525.486241047 471.720668992 c 0
 525.486241047 434.705212038 521.5952505 396.432270739 514.077849649 358.636449794 c 0
419.922150351 377.363550206 m 0
 426.680895873 411.345020748 429.63590183 442.385170778 429.63590183 470.331688746 c 0
 429.63590183 577.432821313 386.23576695 639.097819148 347.207173172 646.753700091 c 0
 343.092459768 647.560845644 338.730932465 648 334 648 c 0
 264.259883656 648 151.6461062 532.437961901 117.077849649 358.636449794 c 0
 110.388786594 325.005327214 107.461240342 294.242365813 107.461240342 266.502647457 c 0
 107.461240342 159.052783799 151.386203723 96.9637201456 190.767340392 89.2485210972 c 0
 194.898585662 88.439164581 199.269108199 88 204 88 c 0
 273.598860183 88 385.308034431 203.331467383 419.922150351 377.363550206 c 0
EndSplineSet
EndChar

StartChar: one
Encoding: 49 49 17
Width: 281
VWidth: 0
Flags: HW
LayerCount: 2
Fore
SplineSet
213.342827728 735.081966506 m 0
 235.945650641 730.596718834 251.97586527 710.107630221 251.97586527 687.750071195 c 0
 251.97586527 684.741458344 251.685581218 681.699010191 251.081966506 678.657172272 c 2
 124.081966506 38.6571722715 l 2
 119.596718834 16.0543493593 99.1076302208 0.0241347296843 76.7500711949 0.0241347296843 c 0
 73.7414583441 0.0241347296843 70.6990101908 0.314418782287 67.6571722715 0.91803349438 c 0
 45.052806703 5.40358728689 29.024167534 25.8937179757 29.024167534 48.2501740034 c 0
 29.024167534 51.2587451303 29.3144436473 54.3011151132 29.9180334944 57.3428277285 c 2
 156.918033494 697.342827728 l 2
 161.403587287 719.947193297 181.893717976 735.975832466 204.250174003 735.975832466 c 0
 207.25874513 735.975832466 210.301115113 735.685556353 213.342827728 735.081966506 c 0
EndSplineSet
EndChar

StartChar: two
Encoding: 50 50 18
Width: 537
VWidth: 32
Flags: HW
LayerCount: 2
Fore
SplineSet
126.755794214 488.898570517 m 0
 104.110610051 493.342952455 88.023613957 513.851715799 88.023613957 536.2474041 c 0
 88.023613957 539.224099966 88.3078080561 542.234130392 88.8985705166 545.244205786 c 0
 114.306695312 674.704651173 216.149605009 744 323 744 c 0
 335.974524788 744 348.635550385 742.833762679 360.858285917 740.48178427 c 0
 447.923738286 723.728082644 496.676211862 650.073560873 496.676211862 564.645793961 c 0
 496.676211862 549.638902366 495.171753965 534.268698916 492.106246235 518.779817754 c 0
 477.143304327 441.471284559 432.869194164 395.859601231 349.120172198 341.729135814 c 0
 197.773092329 243.219202172 142.137123765 211.747617586 106.343443504 96 c 1
 372 96 l 2
 398.144471708 96 420 74.1463660754 420 48 c 0
 420 21.8536339246 398.144471708 0 372 0 c 2
 45 0 l 2
 25.4277536121 0 -2.99505923309 19.2064543077 -2.99505923309 48.2325647397 c 0
 -2.99505923309 51.2093870125 -2.69611155693 54.2894912298 -2.05801019629 57.4627520503 c 0
 38.147868331 257.405499321 130.429665202 313.930521665 296.879827802 422.270864186 c 0
 377.130805836 474.140398769 388.856695673 490.528715441 397.893753765 537.220182246 c 0
 400.185267098 548.798354877 401.262219175 559.39942336 401.262219175 569.055511612 c 0
 401.262219175 615.100471523 376.7739481 639.658001691 342.718134197 646.211243295 c 0
 336.789897345 647.351993256 330.229556845 648 323 648 c 0
 257.850394991 648 199.693304688 611.295348827 183.101429483 526.755794214 c 0
 178.656743897 504.109062891 158.146929963 488.023646248 135.752350694 488.023646248 c 0
 132.77569731 488.023646248 129.765745171 488.307832478 126.755794214 488.898570517 c 0
EndSplineSet
EndChar

StartChar: three
Encoding: 51 51 19
Width: 537
VWidth: 32
Flags: HW
LayerCount: 2
Fore
SplineSet
55.5133274472 200.840470736 m 0
 58.9222327274 201.603658485 62.3416548017 201.969390651 65.7215503808 201.969390651 c 0
 87.6374439869 201.969390651 107.891455878 186.592272251 112.840470736 164.486672553 c 0
 123.700926759 115.976635652 156.210571707 88 202 88 c 0
 270.490430116 88 353.737868492 158.44227911 371.932127567 249.413574487 c 0
 375.003612807 264.771000687 376.444866604 279.271567518 376.444866604 293.016514635 c 0
 376.444866604 361.177278509 347.047460347 396 290 396 c 0
 276.39529107 396 245.727783678 387.407052389 225.999426104 378.364888501 c 0
 219.686429391 375.471431675 213.006093814 374.10570744 206.39481194 374.10570744 c 0
 200.696456452 374.10570744 195.049400649 375.120297834 189.733071899 377.045742737 c 0
 178.246689843 381.198457024 168.294214909 389.604790117 162.709131717 401.265952559 c 0
 162.64936239 401.390745658 162.590197021 401.515694821 162.531632702 401.640795784 c 0
 162.475591051 401.760388328 162.420009207 401.880315001 162.364888501 402.000573896 c 0
 159.471343735 408.313762477 158.105635902 414.994071722 158.105635902 421.605216569 c 0
 158.105635902 427.303694776 159.120299871 432.950786719 161.045801449 438.267098446 c 0
 165.198346644 449.753126783 173.604322294 459.705560984 185.265952559 465.290868283 c 0
 285.270787538 513.187920826 344.175684101 587.630746716 375.237589758 640 c 1
 156 640 l 2
 129.855528292 640 108 661.853633925 108 688 c 0
 108 714.146366075 129.855528292 736 156 736 c 2
 451 736 l 2
 453.693764971 736 458.319315378 735.57345234 461.805966746 734.767842399 c 0
 483.926992781 729.656657888 498.942135066 709.328035452 498.942135066 687.625988401 c 0
 498.942135066 682.954294663 498.246347316 678.218957704 496.775875492 673.558074127 c 0
 495.673988779 670.065476989 464.11694167 569.418376786 367.359205431 476.162957298 c 1
 436.662068915 444.733574932 472.444684839 370.756528631 472.444684839 292.846914394 c 0
 472.444684839 272.380843883 470.283335874 251.663742715 466.067872433 230.586425513 c 0
 440.262131508 101.55772089 327.509569884 -8 202 -8 c 0
 107.789428293 -8 38.2990732413 58.0233643484 19.159529264 143.513327447 c 0
 18.396311331 146.922367548 18.0305706023 150.341865138 18.0305706023 153.721792132 c 0
 18.0305706023 175.638721855 33.4092171811 195.891789333 55.5133274472 200.840470736 c 0
EndSplineSet
EndChar

StartChar: four
Encoding: 52 52 20
Width: 537
VWidth: 32
Flags: HW
LayerCount: 2
Fore
SplineSet
325.039066117 318 m 1
 379.690625892 593.409435085 l 1
 133.844915477 318 l 1
 325.039066117 318 l 1
502 270 m 0
 502 243.855528292 480.146366075 222 454 222 c 2
 403.860933883 222 l 1
 367.081966506 36.6571722715 l 2
 362.596718834 14.0543493593 342.107630221 -1.97586527032 319.750071195 -1.97586527032 c 0
 316.741458344 -1.97586527032 313.699010191 -1.68558121771 310.657172272 -1.08196650562 c 0
 288.052806703 3.40358728689 272.024167534 23.8937179757 272.024167534 46.2501740034 c 0
 272.024167534 49.2587451303 272.314443647 52.3011151132 272.918033494 55.3428277285 c 2
 305.989066117 222 l 1
 70 222 l 2
 41.5616164907 222 22.1179719343 247.155449774 22.1179719343 271.103884935 c 0
 22.1179719343 273.804217223 22.3651772526 276.4892036 22.8745671717 279.121051515 c 2
 24.9698052669 289.946448341 l 1
 34.8745671717 341.121051515 l 2
 36.5118560589 349.580377433 40.4613624263 357.545640436 46.1914028925 363.964736401 c 2
 362.191402892 717.964736401 l 2
 371.380216733 728.258534185 385.594093579 734 398 734 c 2
 433 734 l 1
 447 734 l 2
 475.265124652 734 494.887937144 709.123488997 494.887937144 684.974904466 c 0
 494.887937144 682.179330301 494.624958833 679.393511561 494.081966506 676.657172272 c 2
 422.910933883 318 l 1
 454 318 l 2
 480.146366075 318 502 296.144471708 502 270 c 0
EndSplineSet
EndChar

StartChar: five
Encoding: 53 53 21
Width: 537
VWidth: 0
Flags: HW
LayerCount: 2
Fore
SplineSet
48.51728807 202.606301363 m 0
 52.2439134658 203.524455446 55.9934578564 203.963207704 59.6986685416 203.963207704 c 0
 81.2329400557 203.963207704 101.269705522 189.143012696 106.606301363 167.48271193 c 0
 119.858031449 113.69627805 151.214263256 88 192 88 c 0
 258.179154611 88 346.073753955 164.996333265 367.946778807 273.486536531 c 0
 371.147943872 289.364315256 372.611303223 304.343828576 372.611303223 318.641040004 c 0
 372.611303223 398.978223203 330.538367113 440 281 440 c 0
 241.299169348 440 195.055261665 417.591527449 150.805007758 368.031243073 c 0
 141.414172869 357.513507997 128.195858711 352.221655547 114.968590906 352.221655547 c 0
 102.312498495 352.221655547 89.648209008 357.066353523 80.320630471 366.813536961 c 0
 71.1962370698 376.348394897 67.3687970172 390.011381105 67.3687970172 401.583350185 c 0
 67.3687970172 405.880926715 67.8966841872 409.890106537 68.8771884113 413.292338062 c 2
 151.877188411 701.292338062 l 2
 157.793090079 721.819804091 177.367446043 736 198 736 c 2
 454 736 l 2
 480.144471708 736 502 714.146366075 502 688 c 0
 502 661.853633925 480.144471708 640 454 640 c 2
 234.120256238 640 l 1
 199.525507588 519.960390224 l 1
 224.951714096 529.952825543 252.935971047 536 281 536 c 0
 397.68823596 536 468.611199956 433.167661128 468.611199956 318.54096573 c 0
 468.611199956 297.637710657 466.455496599 276.348749484 462.053221193 254.513463469 c 0
 433.926246045 115.003666735 321.820845389 -8 192 -8 c 0
 98.7857367443 -8 34.1419685507 60.30372195 13.3936986371 144.51728807 c 0
 12.4755094778 148.244055834 12.0367484713 151.993671514 12.0367484713 155.698902476 c 0
 12.0367484713 177.234156376 26.8584289999 197.270060722 48.51728807 202.606301363 c 0
EndSplineSet
EndChar

StartChar: six
Encoding: 54 54 22
Width: 537
VWidth: 0
Flags: HW
LayerCount: 2
Fore
SplineSet
131.969202774 190.099452425 m 0
 146.65271202 100.274053008 194.039121755 88 221 88 c 0
 295.80272853 88 359.113206833 157.318970819 373.922695137 231.366412337 c 0
 375.762574915 240.662647007 376.629792252 249.78110377 376.638306929 258.5321031 c 0
 376.638306929 316.921810127 341.343434569 356 287 356 c 0
 217.256041553 356 157.020268803 315.235286585 133.081140153 194.65300894 c 0
 132.878690361 193.633261837 132.376356074 191.621211516 131.969202774 190.099452425 c 0
153.528606025 411.052018917 m 1
 193.011352707 438.571010103 239.555413838 452 287 452 c 0
 399.878234905 452 472.63825758 360.606434476 472.63825758 258.481461927 c 0
 472.623508484 243.317435877 471.135106521 228.08353288 468.086642761 212.68076862 c 0
 446.878770205 106.641405843 356.200176572 -8 221 -8 c 0
 137.075953951 -8 32.1170339077 60.7436829551 32.1170339077 241.905866118 c 0
 32.1170339077 258.398987855 32.9189707033 275.670488351 34.5828562142 293.99314346 c 0
 36.9246640126 319.781057557 40.9730076532 347.505602907 46.925333239 377.379538866 c 0
 100.777579859 648.752624775 257.120119943 744 352 744 c 0
 473.406554247 744 508.402598176 645.782835704 510.911693346 638.026186924 c 0
 512.155161161 633.703991293 512.757550984 629.250196224 512.757550984 624.806260007 c 0
 512.757550984 604.835826757 500.592415054 585.064490945 479.773194543 578.329958145 c 0
 474.94910606 576.769477911 470.096262562 576.036401833 465.340045166 576.036401833 c 0
 444.998588624 576.036401833 426.424533343 589.445196733 419.426166875 608.883709557 c 0
 417.720600794 613.247188261 404.550016395 648 352 648 c 0
 321.374851847 648 208.880511977 608.104589433 153.528606025 411.052018917 c 1
EndSplineSet
EndChar

StartChar: seven
Encoding: 55 55 23
Width: 537
VWidth: 0
Flags: HW
LayerCount: 2
Fore
SplineSet
99 688 m 0
 99 714.144471708 120.853633925 736 147 736 c 2
 505 736 l 2
 533.576351036 736 552.877864301 710.61921185 552.877864301 686.834845277 c 0
 552.877864301 684.210372216 552.642851013 681.605337024 552.159353167 679.055984744 c 2
 541.159353167 621.055984744 l 2
 538.613427532 607.632013214 528.640394139 595.144882984 519.673558199 589.442903416 c 0
 515.09943072 586.596720357 289.108796007 445.791043382 213.983326189 70.163694294 c 1
 206.891200835 37.7425498173 l 2
 202.033827225 15.5374133139 181.732311729 0.0292233154411 159.727300741 0.0292233154411 c 0
 156.421962915 0.0292233154411 153.078189855 0.379127906659 149.742549817 1.10879916498 c 0
 127.535913075 5.96650095242 112.029260877 26.2689802676 112.029260877 48.2729421872 c 0
 112.029260877 51.5782463135 112.379156998 54.9219431345 113.108799165 58.2574501827 c 2
 120.016673811 89.836305706 l 1
 183.244302089 405.974447098 347.989579109 575.234339328 426.831526978 640 c 1
 147 640 l 2
 120.853633925 640 99 661.855528292 99 688 c 0
EndSplineSet
EndChar

StartChar: eight
Encoding: 56 56 24
Width: 537
VWidth: 0
Flags: HW
LayerCount: 2
Fore
SplineSet
325.135622044 429.800778032 m 1
 354.814584875 452.374521613 410.624448501 505.843180768 419.912433983 553.315106565 c 0
 421.261449093 560.060182117 421.805722322 565.896933149 421.813539786 571.759869547 c 0
 421.813539786 613.886865116 389.995526803 648 334 648 c 0
 261.485235631 648 200.289067776 594.972874814 188.036313122 534.429851817 c 0
 186.37964874 526.330603731 185.667567101 519.018513484 185.662074317 512.01311171 c 0
 185.662074317 484.289247829 196.422072918 464.607208714 215.642631559 451.245418829 c 0
 229.936150169 441.30881938 250.93503908 434 280 434 c 0
 295.740281769 434 310.848380872 432.591028658 325.135622044 429.800778032 c 1
208.132176666 349.00327643 m 1
 180.572527703 332.591447886 126.702074803 291.171777376 112.080421361 218.648376302 c 0
 110.185697342 208.964231314 109.275175013 199.505221077 109.275175013 190.38883099 c 0
 109.275175013 139.123128058 138.068951779 98.6922259524 182.553892654 89.9888905756 c 0
 189.040289527 88.7198479231 196.154896414 88 204 88 c 0
 291.938118211 88 353.70068069 153.466256995 367.912330952 225.314044427 c 0
 369.762619281 234.681129095 370.65764107 243.717420776 370.65764107 252.311502763 c 0
 370.65764107 286.624489992 356.390016253 313.888171735 331.689156943 327.011222327 c 0
 324.900349293 330.617974025 316.728889931 333.628958393 306.608636259 335.605410236 c 0
 298.912149814 337.10850841 290.084960949 338 280 338 c 0
 254.466505692 338 230.297507417 341.679354289 208.132176666 349.00327643 c 1
417.110907521 381.623944071 m 1
 452.173620852 345.272103789 466.500378166 297.771870346 466.500378166 251.482789291 c 0
 466.500378166 236.273620479 464.953693619 221.195204959 462.087669048 206.685955573 c 0
 440.29931931 96.5337430048 344.061881789 -8 204 -8 c 0
 190.252510993 -8 176.915643258 -6.72807837577 164.121268017 -4.22490007621 c 0
 63.54993301 15.4515576336 13.6152310417 104.163091676 13.6152310417 192.676854585 c 0
 13.6152310417 207.686665514 15.0511545238 222.690789331 17.919578639 237.351623698 c 0
 34.7933395231 321.045477683 84.8121469587 375.986235684 124.081895714 407.351679545 c 1
 101.220785653 437.329734891 89.7728655235 474.16439258 89.7728655235 512.7368272 c 0
 89.7728655235 526.224694229 91.1726431225 539.925045377 93.9736832504 553.619019335 c 0
 115.702726185 660.986055013 216.517586957 744 334 744 c 0
 434.327976642 744 517.813548254 672.399039215 517.813548254 571.766159151 c 0
 517.813548254 559.494971385 516.543957375 546.966850225 514.087566017 534.684893435 c 0
 500.668379553 466.097940392 452.703220425 414.256356522 417.110907521 381.623944071 c 1
EndSplineSet
EndChar

StartChar: nine
Encoding: 57 57 25
Width: 537
VWidth: 0
Flags: HW
LayerCount: 2
Fore
SplineSet
405.030797226 545.900547575 m 0
 390.34728798 635.725946992 342.960878245 648 316 648 c 0
 241.39572755 648 178.954056297 579.017344834 164.077304863 504.633587663 c 0
 162.203017035 495.163501792 161.315407892 485.956840082 161.315407892 476.996973145 c 0
 161.315407892 418.534744333 195.99729645 380 250 380 c 0
 319.743958447 380 379.979731197 420.764713415 403.918859847 541.34699106 c 0
 404.121309639 542.366738163 404.623643926 544.378788484 405.030797226 545.900547575 c 0
383.492436322 324.962647342 m 1
 344.002783908 297.438842944 297.444586162 284 250 284 c 0
 137.087205126 284 65.3156058106 375.461625576 65.3156058106 477.102489862 c 0
 65.3156058106 492.477513232 66.8358403384 507.769672303 69.9133572391 523.31923138 c 0
 91.0539839207 629.022364788 180.601357084 744 316 744 c 0
 399.924046049 744 504.882966092 675.256317045 504.882966092 494.094133882 c 0
 504.87769938 477.600397005 504.081103891 460.330333077 502.417143786 442.00685654 c 0
 500.075335987 416.218942443 496.026992347 388.494397093 490.074666761 358.620461134 c 0
 436.262099963 87.4473304065 281.039345234 -8 186 -8 c 0
 64.8426611872 -8 28.8562388527 89.7267401252 26.2675322432 97.4000378046 c 0
 24.9100389941 101.905471528 24.252430217 106.563733564 24.252430217 111.212276396 c 0
 24.252430217 130.973343636 36.1362133879 150.558773127 56.6561131785 157.481481256 c 0
 61.6666539661 159.171865312 66.7185712372 159.965671207 71.6692438619 159.965671207 c 0
 91.7672331919 159.965671207 110.196635453 146.883159695 117.415238198 127.594220115 c 0
 118.935422023 123.792075203 132.911549427 88 186 88 c 0
 216.47709212 88 328.183812831 127.748905652 383.492436322 324.962647342 c 1
EndSplineSet
EndChar

StartChar: colon
Encoding: 58 58 26
Width: 230
VWidth: 0
Flags: HW
HStem: 48 48<97.5248 132.875> 432 48<97.5248 132.875>
VStem: 96 38<49.9059 94.0941 433.906 478.094>
LayerCount: 2
Fore
SplineSet
64.7315798935 456.595953433 m 0
 71.9798341949 489.77466872 98.2863275528 528 144 528 c 0
 188.868786849 528 201.070848178 489.89502631 201.070848178 465.573014654 c 0
 201.070848178 461.73814857 200.767504726 458.245927156 200.241033038 455.299735228 c 0
 192.656346052 420.2020953 169.077135277 384 122 384 c 0
 82.4863593537 384 63.8461303434 416.67402783 63.8461303434 445.810651163 c 0
 63.8461303434 449.486279563 64.142774639 453.105613007 64.7315798935 456.595953433 c 0
124.268420107 71.4040465668 m 0
 117.020165805 38.2253312802 90.7136724472 0 45 0 c 0
 0.131213151183 0 -12.070848178 38.1049736902 -12.070848178 62.4269853464 c 0
 -12.070848178 66.2618514301 -11.7675047263 69.7540728437 -11.2410330382 72.7002647723 c 0
 -3.65634605222 107.7979047 19.9228647227 144 67 144 c 0
 106.513640646 144 125.153869657 111.32597217 125.153869657 82.1893488372 c 0
 125.153869657 78.5137204371 124.857225361 74.8943869925 124.268420107 71.4040465668 c 0
EndSplineSet
EndChar

StartChar: semicolon
Encoding: 59 59 27
Width: 236
VWidth: 0
Flags: HW
HStem: 432 48<97.5248 132.875>
VStem: 96 38<433.906 478.094>
LayerCount: 2
Fore
SplineSet
9.56778450041 12.6444380419 m 1
 -5.40413101209 26.9034051967 -12.0057311747 47.2890577227 -12.0057311747 63.5760292653 c 0
 -12.0057311747 66.8051138892 -11.7462371302 69.8730885882 -11.2410330382 72.7002647723 c 0
 -3.65634605222 107.7979047 19.9228647227 144 67 144 c 0
 107.501903707 144 128.826143914 107.77080633 128.826143914 72.0746944594 c 0
 128.826143914 66.1104751007 128.230839703 60.1611376715 127.030218738 54.3981570359 c 0
 116.107999404 -0.212939633259 72.6028041653 -76.2604882867 70.9195044261 -79.3959876221 c 0
 61.6673304537 -95.3541126913 45.3996462981 -103.970122335 28.839851626 -103.970122335 c 0
 21.164858496 -103.970122335 13.4271183195 -102.119353099 6.29598850066 -98.2909903152 c 0
 -9.68425722818 -89.7119601225 -18.8699544291 -72.8438595982 -18.8699544291 -55.6258289678 c 0
 -18.8699544291 -48.0229337025 -17.0789230753 -40.3518089083 -13.2909903152 -33.2959885007 c 2
 -13.2909903152 -33.2959885007 -2.35111773781 -12.9446174175 9.56778450041 12.6444380419 c 1
64.7315798935 456.595953433 m 0
 71.9798341949 489.77466872 98.2863275528 528 144 528 c 0
 188.868786849 528 201.070848178 489.89502631 201.070848178 465.573014654 c 0
 201.070848178 461.73814857 200.767504726 458.245927156 200.241033038 455.299735228 c 0
 192.656346052 420.2020953 169.077135277 384 122 384 c 0
 82.4863593537 384 63.8461303434 416.67402783 63.8461303434 445.810651163 c 0
 63.8461303434 449.486279563 64.142774639 453.105613007 64.7315798935 456.595953433 c 0
EndSplineSet
EndChar

StartChar: less
Encoding: 60 60 28
Width: 512
VWidth: 0
Flags: HW
LayerCount: 2
Fore
SplineSet
425.085337 124.137185505 m 0
 415.818763345 111.138241906 400.845909371 104.170903576 385.743373251 104.170903576 c 0
 376.111911573 104.170903576 366.427706895 107.004588346 358.137185505 112.914663 c 2
 55.1371855049 328.914663 l 2
 52.1878399121 331.017166789 49.548998979 333.413427637 47.2315923314 336.038309395 c 0
 44.8814716611 338.636859278 42.7948561895 341.529582666 41.0353631495 344.698299332 c 0
 36.5086578003 352.850560355 34.6772622655 361.874934157 35.231238476 370.688196131 c 0
 35.6695648093 379.507970644 38.5018900573 388.269896957 43.9146629999 395.862814495 c 0
 46.0184942872 398.814022273 48.4163984638 401.45429781 51.0431279052 403.772712776 c 0
 53.6404672341 406.12111203 56.531580706 408.206255486 59.6982993324 409.964636851 c 2
 448.698299332 625.964636851 l 2
 455.910959714 629.969610224 463.806284823 631.864772823 471.634085582 631.864772823 c 0
 488.614633033 631.864772823 505.277431432 622.946714129 513.964636851 607.301700668 c 0
 517.969492375 600.089252524 519.864703585 592.193842662 519.864703585 584.365826428 c 0
 519.864703585 567.385879037 510.947537371 550.723025689 495.301700668 542.035363149 c 2
 172.778099566 362.947708039 l 1
 413.862814495 191.085337 l 2
 426.862351011 181.818340672 433.829045962 166.845615202 433.829045962 151.743612156 c 0
 433.829045962 142.11182651 430.995232198 132.427455158 425.085337 124.137185505 c 0
EndSplineSet
EndChar

StartChar: equal
Encoding: 61 61 29
Width: 512
VWidth: 0
Flags: HW
AnchorPoint: "middle" 256 368 basechar 0
LayerCount: 2
Fore
SplineSet
11 248 m 0
 11 274.144471708 32.8536339246 296 59 296 c 2
 405 296 l 2
 431.144471708 296 453 274.146366075 453 248 c 0
 453 221.853633925 431.144471708 200 405 200 c 2
 59 200 l 2
 32.8536339246 200 11 221.855528292 11 248 c 0
59 488 m 0
 59 514.144471708 80.8536339246 536 107 536 c 2
 453 536 l 2
 479.144471708 536 501 514.146366075 501 488 c 0
 501 461.853633925 479.144471708 440 453 440 c 2
 107 440 l 2
 80.8536339246 440 59 461.855528292 59 488 c 0
EndSplineSet
EndChar

StartChar: greater
Encoding: 62 62 30
Width: 512
VWidth: 0
Flags: HW
LayerCount: 2
Fore
SplineSet
-1.96463685052 128.698299332 m 0
 -5.96949237491 135.910747476 -7.86470358459 143.806157338 -7.86470358459 151.634173572 c 0
 -7.86470358459 168.614120963 1.05246262897 185.276974311 16.6982993324 193.964636851 c 2
 339.221900434 373.052291961 l 1
 98.1371855049 544.914663 l 2
 85.1376489891 554.181659328 78.1709540383 569.154384798 78.1709540383 584.256387844 c 0
 78.1709540383 593.88817349 81.0047678019 603.572544842 86.9146629999 611.862814495 c 0
 96.1812366546 624.861758094 111.154090629 631.829096424 126.256626749 631.829096424 c 0
 135.888088427 631.829096424 145.572293105 628.995411654 153.862814495 623.085337 c 2
 456.862814495 407.085337 l 2
 459.812160088 404.982833211 462.451001021 402.586572363 464.768407669 399.961690605 c 0
 467.118528339 397.363140722 469.205143811 394.470417334 470.964636851 391.301700668 c 0
 475.4913422 383.149439645 477.322737735 374.125065843 476.768761524 365.311803869 c 0
 476.330435191 356.492029356 473.498109943 347.730103042 468.085337 340.137185505 c 0
 465.981505713 337.185977727 463.583601536 334.54570219 460.956872095 332.227287224 c 0
 458.359532766 329.87888797 455.468419294 327.793744514 452.301700668 326.035363149 c 2
 63.3017006676 110.035363149 l 2
 56.0890402861 106.030389776 48.1937151768 104.135227177 40.3659144176 104.135227177 c 0
 23.385366967 104.135227177 6.7225685676 113.053285871 -1.96463685052 128.698299332 c 0
EndSplineSet
EndChar

StartChar: question
Encoding: 63 63 31
Width: 512
VWidth: 0
Flags: HW
HStem: 48 48<225.525 260.875>
VStem: 224 38<49.9059 94.0941>
LayerCount: 2
Fore
SplineSet
252.268420107 71.4040465668 m 0
 245.020165805 38.2253312802 218.713672447 0 173 0 c 0
 128.131213151 0 115.929151822 38.1049736902 115.929151822 62.4269853464 c 0
 115.929151822 66.2618514301 116.232495274 69.7540728437 116.758966962 72.7002647723 c 0
 124.343653948 107.7979047 147.922864723 144 195 144 c 0
 234.513640646 144 253.153869657 111.32597217 253.153869657 82.1893488372 c 0
 253.153869657 78.5137204371 252.857225361 74.8943869925 252.268420107 71.4040465668 c 0
113.755794214 488.898570517 m 0
 91.1106100512 493.342952455 75.023613957 513.851715799 75.023613957 536.2474041 c 0
 75.023613957 539.224099966 75.3078080561 542.234130392 75.8985705166 545.244205786 c 0
 101.180444248 674.061371942 200.715839566 744 308 744 c 0
 325.710117421 744 342.799682293 742.449600955 359.146322023 739.140645726 c 0
 434.122106326 723.963733674 486.08799321 667.117631383 486.08799321 589.124738218 c 0
 486.08799321 576.749458012 484.779660003 563.841769906 482.047318875 550.483657723 c 0
 465.084782935 465.670978022 415.748285046 420.363791361 356.624483818 383.411415594 c 0
 297.094709256 345.450399931 285.020110981 329.397097363 265.050391732 230.499440131 c 0
 260.500083334 207.964579492 240.04268532 192.024979043 217.746059846 192.024979043 c 0
 214.686370274 192.024979043 211.592045965 192.325139782 208.499440131 192.949608268 c 0
 185.963044068 197.500226703 170.025012669 217.958653206 170.025012669 240.254185243 c 0
 170.025012669 243.313834348 170.32516536 246.408080709 170.949608268 249.500559869 c 0
 192.979889019 358.602902637 226.905290744 414.549600069 305.375516182 464.588584406 c 0
 358.251714954 497.636208639 376.915217065 514.329021978 387.952681125 569.516342277 c 0
 389.923438651 579.151156849 390.912043715 587.57702563 390.912043715 594.962433503 c 0
 390.912043715 625.395665825 374.125162265 638.161485196 340.099901524 645.04902088 c 0
 330.843186435 646.92280389 320.069294343 648 308 648 c 0
 243.284160434 648 186.819555752 611.938628058 170.101429483 526.755794214 c 0
 165.656743897 504.109062891 145.146929963 488.023646248 122.752350694 488.023646248 c 0
 119.77569731 488.023646248 116.765745171 488.307832478 113.755794214 488.898570517 c 0
EndSplineSet
EndChar

StartChar: at
Encoding: 64 64 32
Width: 704
VWidth: 0
Flags: HW
LayerCount: 2
Fore
SplineSet
445.225912652 92.8248176495 m 0
 449.057112387 85.7370981386 450.868887008 78.0208072994 450.868887008 70.3725965231 c 0
 450.868887008 53.2025659353 441.737713122 36.3756524685 425.82481765 27.7740873483 c 0
 382.264349179 4.22788817516 335.081245983 -8 287 -8 c 0
 270.501788161 -8 254.38152858 -6.44061171929 238.809854085 -3.37343434622 c 0
 107.68682586 22.4540760723 34.1692140101 145.830290369 34.1692140101 289.978529748 c 0
 34.1692140101 318.492182352 37.0458069784 347.818601581 42.9221503514 377.363550206 c 0
 82.0248582787 573.963276174 240.232974489 744 417 744 c 0
 433.498211839 744 449.61847142 742.440611719 465.190145915 739.373434346 c 0
 596.277091238 713.553031234 669.816530132 590.368816812 669.816530132 446.068594792 c 0
 669.816530132 417.477430938 666.929508871 388.057291996 661.03107349 358.401269662 c 0
 652.030034079 315.396303586 642.634840956 265.419030823 612.044914862 219.534141682 c 0
 583.476822864 175.930211791 534.856034462 152 491 152 c 0
 483.527417306 152 476.15930125 152.702382822 468.990889252 154.055091513 c 0
 447.170323629 158.172721578 426.399083995 168.939059752 410.201193289 184.594843976 c 1
 382.003318205 158.965398719 348.090845432 142 309 142 c 0
 217.241923276 142 178.364351625 234.013058353 178.364351625 314.299602355 c 0
 178.364351625 334.802125723 180.535292868 355.870930255 184.969405179 377.598080576 c 0
 206.63092477 483.739526573 278.860125296 594 380 594 c 0
 406.228497536 594 428.013888768 586.217490154 445.747316602 573.397697868 c 1
 454.718103136 582.483949516 467.162921014 587.976027661 480.249145739 587.976027661 c 0
 483.247840607 587.976027661 486.280215266 587.687642764 489.312186332 587.088036546 c 0
 511.929725647 582.615164965 527.975995016 562.118907254 527.975995016 539.750609055 c 0
 527.975995016 536.751956149 527.687618037 533.719659699 527.088036546 530.687813668 c 2
 474.078009077 262.637108734 l 2
 473.021639041 257.355258555 475.314274608 250.556134916 486.792307247 248.390183167 c 0
 488.135436818 248.136729118 489.541284984 248 491 248 c 0
 499.143965538 248 522.523177136 258.069788209 531.955085138 272.465858318 c 0
 549.365159044 298.580969177 557.969965921 334.603696414 566.96892651 377.598730338 c 0
 571.97156172 402.750868477 574.298584187 426.55487197 574.298584187 448.830413799 c 0
 574.298584187 558.523756026 517.869297371 631.152564988 446.637353027 645.183233815 c 0
 437.323878857 647.017723564 427.46573503 648 417 648 c 0
 303.767025511 648 169.975141721 524.036723826 137.077849649 358.636449794 c 0
 132.052320069 333.369203851 129.715141198 309.472262436 129.715141198 287.123016803 c 0
 129.715141198 177.295064584 186.155788529 104.842493803 257.362646973 90.8167661847 c 0
 266.676121143 88.9822764356 276.53426497 88 287 88 c 0
 318.918754017 88 349.735650821 95.7721118248 380.17518235 112.225912652 c 0
 387.263110842 116.05722535 394.979325684 117.868957147 402.627332505 117.868957147 c 0
 419.79797167 117.868957147 436.62480611 108.736864752 445.225912652 92.8248176495 c 0
411.849040746 442.805331884 m 1
 406.172769823 491.083801334 387.455354425 498 380 498 c 0
 357.139874704 498 297.36907523 448.260473427 279.030594821 358.401919424 c 0
 275.81222671 342.631915678 274.364166146 327.8872458 274.364166146 314.127935262 c 0
 274.364166146 250.697468742 300.443715028 238 309 238 c 0
 323.829081676 238 359.012610153 258.97692528 385.762227831 310.894655256 c 1
 411.849040746 442.805331884 l 1
EndSplineSet
EndChar

StartChar: A
Encoding: 65 65 33
Width: 550
VWidth: 0
Flags: HW
AnchorPoint: "above" 358 784 basechar 0
LayerCount: 2
Fore
SplineSet
-7.53940239275 4.61644379089 m 0
 -24.7043199773 12.7429594598 -34.8894753519 30.323376898 -34.8894753519 48.3928792236 c 0
 -34.8894753519 55.1986725289 -33.444592002 62.0738482427 -30.3835562091 68.5394023927 c 2
 272.616443791 708.539402393 l 2
 280.49051575 725.17110554 297.741587592 736 316 736 c 2
 345 736 l 1
 361 736 l 2
 385.824497464 736 406.979706499 716.222322046 408.859931896 691.664276036 c 2
 457.859931896 51.6642760358 l 2
 459.85577692 25.5960961314 439.73434478 2.13605774175 413.664276036 0.140068103545 c 0
 412.467964304 0.0484754865448 411.277152285 0.00346065089414 410.093661497 0.00346065089414 c 0
 385.486478036 0.00346065089414 364.044327147 19.4637691164 362.140068104 44.3357239642 c 2
 354.50952197 144 l 1
 111.557679529 144 l 1
 56.3835562091 27.4605976073 l 2
 48.2565812291 10.2947098608 30.6759578069 0.110596415851 12.6071108789 0.110596415851 c 0
 5.80116800979 0.110596415851 -1.0740431396 1.55550026948 -7.53940239275 4.61644379089 c 0
157.007679529 240 m 1
 347.15952197 240 l 1
 320.689521175 585.730622618 l 1
 157.007679529 240 l 1
EndSplineSet
EndChar

StartChar: B
Encoding: 66 66 34
Width: 556
VWidth: 0
Flags: HW
AnchorPoint: "above" 361 784 basechar 0
LayerCount: 2
Fore
SplineSet
177.929683883 436 m 1
 324 436 l 2
 335.022086445 436 345.745881607 438.259324489 356.388661801 442.717982404 c 0
 392.238834825 457.73695816 425.370486662 499.605369965 434.932127567 547.413574487 c 0
 436.815219461 556.829033957 437.668844155 565.632862858 437.668844155 574.117797488 c 0
 437.668844155 619.771433863 417.663952716 640 384 640 c 2
 218.410933883 640 l 1
 177.929683883 436 l 1
444.789250229 385.452639526 m 1
 472.533023199 350.554101944 483.539267931 306.459622773 483.539267931 262.87426299 c 0
 483.539267931 244.442618783 481.570991683 226.102021762 478.067872433 208.586425513 c 0
 460.071821089 118.606168794 388.488950456 0 269 0 c 2
 52 0 l 2
 32.6124032206 0 4.00469187165 19.1101689841 4.00469187165 48.2286383997 c 0
 4.00469187165 51.1678489358 4.29617097222 54.2090323412 4.91803349438 57.3428277285 c 2
 74.2615917766 406.790680489 l 1
 131.918033494 697.342827728 l 2
 135.679722344 716.299369961 154.870397148 736 179 736 c 2
 384 736 l 2
 480.646275279 736 533.668499396 655.974104084 533.668499396 573.910425711 c 0
 533.668499396 558.869212763 532.118514704 543.839636869 529.067872433 528.586425513 c 0
 517.892514266 472.709634678 487.743160895 421.148426706 444.789250229 385.452639526 c 1
158.879683883 340 m 1
 110.460933883 96 l 1
 269 96 l 2
 315.511049544 96 369.928178911 157.393831206 383.932127567 227.413574487 c 0
 386.226830435 238.887088826 387.384884295 250.550594009 387.384884295 261.97481074 c 0
 387.384884295 317.334931443 366.471223116 340 337 340 c 0
 335.953551477 340 333.915594892 340.099170393 332.372470153 340.200312132 c 0
 329.541240293 340.062111735 326.856296906 340 324 340 c 2
 158.879683883 340 l 1
EndSplineSet
EndChar

StartChar: C
Encoding: 67 67 35
Width: 547
VWidth: 0
Flags: HW
AnchorPoint: "bottom" 229 40 basechar 0
AnchorPoint: "above" 377 784 basechar 0
LayerCount: 2
Fore
SplineSet
427.789804197 246.991060147 m 0
 450.199363684 242.322401921 465.973436452 221.92383049 465.973436452 199.738792424 c 0
 465.973436452 196.585340216 465.654726232 193.395793007 464.991060147 190.210195803 c 0
 456.822222399 150.999774608 375.914370699 -8 229 -8 c 0
 218.270975534 -8 207.673588484 -6.97374902118 197.366035863 -4.93270914997 c 0
 87.3132841293 16.8592779962 37.6008585325 132.922441188 37.6008585325 265.028738171 c 0
 37.6008585325 301.79319392 41.4509779312 339.800155538 48.9221503514 377.363550206 c 0
 86.3538937997 565.562038099 209.740116344 744 360 744 c 0
 516.010707985 744 527.863532295 579.701284583 527.863532295 579.701284583 c 1
 529.504140102 552.755440123 509.92861295 530.596831829 484.483147277 528.2098191 c 0
 483.029116154 528.073417949 481.581528903 528.006633834 480.143806003 528.006633834 c 0
 456.430524939 528.006633834 435.400742987 546.174590686 432.401920956 569.79938153 c 0
 430.760764359 584.190517126 419.605600228 648 360 648 c 0
 290.259883656 648 177.6461062 532.437961901 143.077849649 358.636449794 c 0
 136.387944591 325.001093808 133.464858849 294.23286194 133.464858849 266.487943496 c 0
 133.464858849 159.008169289 177.330869548 96.8984973385 216.01332035 89.2388299755 c 0
 220.070083442 88.435534031 224.357229595 88 229 88 c 0
 294.99470016 88 361.710944415 184.245195045 371.294199731 211.073995942 c 0
 376.218888753 231.36313668 395.922373539 247.961452985 418.409298395 247.961452985 c 0
 421.494075422 247.961452985 424.631232907 247.649095833 427.789804197 246.991060147 c 0
EndSplineSet
EndChar

StartChar: D
Encoding: 68 68 36
Width: 556
VWidth: 0
Flags: HW
HStem: 48 21G<115.2 307.2> 668 20G<115.2 307.2>
VStem: 115 346<226.215 509.777>
AnchorPoint: "above" 361 784 basechar 0
LayerCount: 2
Fore
SplineSet
4.91803349438 57.3428277285 m 2
 131.918033494 697.342827728 l 2
 136.614673549 721.010935089 159.673831306 736 179 736 c 2
 345 736 l 2
 352.759717116 736 360.574888189 735.191772578 368.53892294 733.631061629 c 0
 441.723253551 719.289137007 521.205996502 643.544793834 521.205996502 481.667173748 c 0
 521.205996502 445.133880307 517.157657477 404.213512474 508.074931705 358.621790949 c 0
 454.230787143 88.3453005985 300.588879739 0 218 0 c 2
 52 0 l 2
 23.7348753483 0 4.11206285598 24.8765110034 4.11206285598 49.0250955343 c 0
 4.11206285598 51.8206696992 4.37504116666 54.6064884392 4.91803349438 57.3428277285 c 2
110.460933883 96 m 1
 218 96 l 2
 237.411120261 96 365.769212857 135.654699402 413.925068295 377.378209051 c 0
 422.593160559 420.888632964 426.172151141 457.268758851 426.172151141 487.67027518 c 0
 426.172151141 611.524586889 366.771346879 636.151418641 350.076982443 639.423011267 c 0
 347.749992665 639.879031178 345.930865843 640 345 640 c 2
 218.410933883 640 l 1
 110.460933883 96 l 1
EndSplineSet
EndChar

StartChar: E
Encoding: 69 69 37
Width: 556
VWidth: 0
Flags: HW
AnchorPoint: "bottom" 215 48 basechar 0
AnchorPoint: "above" 361 784 basechar 0
LayerCount: 2
Fore
SplineSet
560 688 m 0
 560 661.855528292 538.146366075 640 512 640 c 2
 218.410933883 640 l 1
 177.929683883 436 l 1
 350 436 l 2
 376.144471708 436 398 414.146366075 398 388 c 0
 398 361.853633925 376.144471708 340 350 340 c 2
 158.879683883 340 l 1
 110.460933883 96 l 1
 397 96 l 2
 423.144471708 96 445 74.1463660754 445 48 c 0
 445 21.8536339246 423.144471708 0 397 0 c 2
 52 0 l 2
 32.6124032206 0 4.00469187165 19.1101689841 4.00469187165 48.2286383997 c 0
 4.00469187165 51.1678489358 4.29617097222 54.2090323412 4.91803349438 57.3428277285 c 2
 131.918033494 697.342827728 l 2
 135.679722344 716.299369961 154.870397148 736 179 736 c 2
 512 736 l 2
 538.146366075 736 560 714.144471708 560 688 c 0
EndSplineSet
EndChar

StartChar: F
Encoding: 70 70 38
Width: 531
VWidth: 0
Flags: HW
AnchorPoint: "above" 348 784 basechar 0
LayerCount: 2
Fore
SplineSet
42.6571722715 0.91803349438 m 0
 20.0543493593 5.40328116602 4.02413472968 25.8923697792 4.02413472968 48.2499288051 c 0
 4.02413472968 51.2585416559 4.31441878229 54.3009898092 4.91803349438 57.3428277285 c 2
 131.918033494 697.342827728 l 2
 136.614673549 721.010935089 159.673831306 736 179 736 c 2
 499 736 l 2
 525.144471708 736 547 714.146366075 547 688 c 0
 547 661.853633925 525.144471708 640 499 640 c 2
 218.410933883 640 l 1
 177.929683883 436 l 1
 356 436 l 2
 382.144471708 436 404 414.146366075 404 388 c 0
 404 361.853633925 382.144471708 340 356 340 c 2
 158.879683883 340 l 1
 99.0819665056 38.6571722715 l 2
 94.5964127131 16.052806703 74.1062820243 0.0241675340094 51.7498259966 0.0241675340094 c 0
 48.7412548697 0.0241675340094 45.6988848868 0.314443647282 42.6571722715 0.91803349438 c 0
EndSplineSet
EndChar

StartChar: G
Encoding: 71 71 39
Width: 537
VWidth: 0
Flags: HW
AnchorPoint: "above" 377 784 basechar 0
LayerCount: 2
Fore
SplineSet
484.483147277 528.2098191 m 0
 483.048596336 528.075245364 481.625842417 528.009698589 480.217326019 528.009698589 c 0
 455.484142755 528.009698589 435.141020982 548.220686782 432.401920956 569.79938153 c 0
 430.666831048 585.014208797 419.298049054 648 360 648 c 0
 290.259734759 648 177.645990186 532.437378606 143.077849649 358.636449794 c 0
 136.565830716 325.895465718 133.54808448 294.708786705 133.54165523 265.832356372 c 0
 133.54165523 141.256145159 184.672398192 88 229 88 c 0
 284.405656201 88 336.85374227 146.603870673 353.759525293 170.647238388 c 1
 378.568926029 296 l 1
 302 296 l 2
 275.855528292 296 254 317.853633925 254 344 c 0
 254 370.146366075 275.855528292 392 302 392 c 2
 437 392 l 2
 456.351205565 392 484.995355108 372.908823567 484.995355108 343.772132436 c 0
 484.995355108 340.840316282 484.705334446 337.806789766 484.086642761 334.68076862 c 2
 446.086642761 142.68076862 l 2
 445.164533421 138.021689853 442.886231974 131.777887357 439.992622131 127.027916971 c 2
 439.992622131 127.027916971 365.322436598 -8 229 -8 c 0
 98.2722635977 -8 37.5416635861 128.320196894 37.5416635861 265.869857258 c 0
 37.5416635861 301.4202812 41.2471108587 338.775157201 48.9221503514 377.363550206 c 0
 86.3540098141 565.562621394 209.740265241 744 360 744 c 0
 515.189847945 744 527.863532295 579.701284583 527.863532295 579.701284583 c 1
 529.365130167 555.03858183 511.116738478 530.708288652 484.483147277 528.2098191 c 0
EndSplineSet
EndChar

StartChar: H
Encoding: 72 72 40
Width: 569
VWidth: 0
Flags: HW
AnchorPoint: "above" 368 784 basechar 0
LayerCount: 2
Fore
SplineSet
527.342827728 735.081966506 m 0
 549.945650641 730.596718834 565.97586527 710.107630221 565.97586527 687.750071195 c 0
 565.97586527 684.741458344 565.685581218 681.699010191 565.081966506 678.657172272 c 2
 438.081966506 38.6571722715 l 2
 433.596718834 16.0543493593 413.107630221 0.0241347296843 390.750071195 0.0241347296843 c 0
 387.741458344 0.0241347296843 384.699010191 0.314418782287 381.657172272 0.91803349438 c 0
 359.052806703 5.40358728689 343.024167534 25.8937179757 343.024167534 48.2501740034 c 0
 343.024167534 51.2587451303 343.314443647 54.3011151132 343.918033494 57.3428277285 c 2
 400.007816117 340 l 1
 158.879683883 340 l 1
 99.0819665056 38.6571722715 l 2
 94.5964127131 16.052806703 74.1062820243 0.0241675340094 51.7498259966 0.0241675340094 c 0
 48.7412548697 0.0241675340094 45.6988848868 0.314443647282 42.6571722715 0.91803349438 c 0
 20.0543493593 5.40328116602 4.02413472968 25.8923697792 4.02413472968 48.2499288051 c 0
 4.02413472968 51.2585416559 4.31441878229 54.3009898092 4.91803349438 57.3428277285 c 2
 131.918033494 697.342827728 l 2
 136.403281166 719.945650641 156.892369779 735.97586527 179.249928805 735.97586527 c 0
 182.258541656 735.97586527 185.300989809 735.685581218 188.342827728 735.081966506 c 0
 210.947193297 730.596412713 226.975832466 710.106282024 226.975832466 687.749825997 c 0
 226.975832466 684.74125487 226.685556353 681.698884887 226.081966506 678.657172272 c 2
 177.929683883 436 l 1
 419.057816117 436 l 1
 470.918033494 697.342827728 l 2
 475.403587287 719.947193297 495.893717976 735.975832466 518.250174003 735.975832466 c 0
 521.25874513 735.975832466 524.301115113 735.685556353 527.342827728 735.081966506 c 0
EndSplineSet
EndChar

StartChar: I
Encoding: 73 73 41
Width: 268
VWidth: 0
Flags: HW
AnchorPoint: "above" 217 784 basechar 0
LayerCount: 2
Fore
SplineSet
207.342827728 735.081966506 m 0
 229.945650641 730.596718834 245.97586527 710.107630221 245.97586527 687.750071195 c 0
 245.97586527 684.741458344 245.685581218 681.699010191 245.081966506 678.657172272 c 2
 118.081966506 38.6571722715 l 2
 113.596718834 16.0543493593 93.1076302208 0.0241347296843 70.7500711949 0.0241347296843 c 0
 67.7414583441 0.0241347296843 64.6990101908 0.314418782287 61.6571722715 0.91803349438 c 0
 39.052806703 5.40358728689 23.024167534 25.8937179757 23.024167534 48.2501740034 c 0
 23.024167534 51.2587451303 23.3144436473 54.3011151132 23.9180334944 57.3428277285 c 2
 150.918033494 697.342827728 l 2
 155.403587287 719.947193297 175.893717976 735.975832466 198.250174003 735.975832466 c 0
 201.25874513 735.975832466 204.301115113 735.685556353 207.342827728 735.081966506 c 0
EndSplineSet
EndChar

StartChar: J
Encoding: 74 74 42
Width: 435
VWidth: 0
Flags: HW
AnchorPoint: "above" 300 784 basechar 0
LayerCount: 2
Fore
SplineSet
67.8458496824 327.177864973 m 0
 90.6611027819 322.900005017 106.97843327 302.312868668 106.97843327 279.762917279 c 0
 106.97843327 276.915002209 106.718170554 274.035780083 106.177864973 271.154150318 c 2
 94.1421303025 206.963565409 l 2
 91.2954694544 192.430612658 90.1113206079 179.81618535 90.1113206079 167.121650683 c 0
 90.1113206079 104.875274606 116.759050738 88 133 88 c 0
 159.879933819 88 227.436633347 146.936103386 247.926064726 249.383260283 c 2
 336.920040938 697.352938296 l 2
 341.409469995 719.95141265 361.896535503 735.975811571 384.25018692 735.975811571 c 0
 387.262072654 735.975811571 390.30784499 735.684899473 393.352938296 735.079959062 c 0
 415.952954844 730.590223631 431.975778714 710.10211692 431.975778714 687.749567885 c 0
 431.975778714 684.737723796 431.684874562 681.692029618 431.079959062 678.647061704 c 2
 342.079959062 230.647061704 l 2
 318.558298698 113.038759884 240.121860629 -8 133 -8 c 0
 38.5480801786 -8 -5.88798671235 82.9395961301 -5.88798671235 167.442400987 c 0
 -5.88798671235 186.24076665 -3.92693757574 205.713997459 -0.142130302487 225.036434591 c 2
 11.8221350272 288.845849682 l 2
 16.1002884602 311.662667992 36.6885099326 327.97840305 59.2373274737 327.97840305 c 0
 62.0851972178 327.97840305 64.9643407743 327.718147893 67.8458496824 327.177864973 c 0
EndSplineSet
EndChar

StartChar: K
Encoding: 75 75 43
Width: 537
VWidth: 0
Flags: HW
AnchorPoint: "above" 352 784 basechar 0
LayerCount: 2
Fore
SplineSet
413.572222041 2.95156543664 m 0
 408.264480156 0.998976452803 402.792032881 0.0753989233531 397.383129282 0.0753989233531 c 0
 377.787555419 0.0753989233531 359.02598881 12.1973031555 351.951565437 31.4277779586 c 2
 235.457419577 348.094963182 l 1
 142.261856286 256.256616832 l 1
 99.0819665056 38.6571722715 l 2
 94.596718834 16.0543493593 74.1076302208 0.0241347296843 51.7500711949 0.0241347296843 c 0
 48.7414583441 0.0241347296843 45.6990101908 0.314418782287 42.6571722715 0.91803349438 c 0
 20.052806703 5.40358728689 4.02416753401 25.8937179757 4.02416753401 48.2501740034 c 0
 4.02416753401 51.2587451303 4.31444364728 54.3011151132 4.91803349438 57.3428277285 c 2
 131.918033494 697.342827728 l 2
 136.403587287 719.947193297 156.893717976 735.975832466 179.250174003 735.975832466 c 0
 182.25874513 735.975832466 185.301115113 735.685556353 188.342827728 735.081966506 c 0
 210.945650641 730.596718834 226.97586527 710.107630221 226.97586527 687.750071195 c 0
 226.97586527 684.741458344 226.685581218 681.699010191 226.081966506 678.657172272 c 2
 175.508470101 423.798607714 l 1
 478.308737725 722.189162703 l 2
 487.529020368 731.275169385 499.760016779 735.806874237 511.987493478 735.806874237 c 0
 524.457413309 735.806874237 536.92367247 731.093680935 546.189162703 721.691262275 c 0
 555.27484342 712.471310414 559.806871763 700.240088941 559.806871763 688.012169282 c 0
 559.806871763 675.542701128 555.094024938 663.076666523 545.691262275 653.810837297 c 2
 310.531572941 422.075803634 l 1
 442.048434563 64.5722220414 l 2
 444.001087359 59.2643066955 444.924666164 53.7918348322 444.924666164 48.3829941599 c 0
 444.924666164 28.7866537075 432.801514661 10.0255539133 413.572222041 2.95156543664 c 0
EndSplineSet
EndChar

StartChar: L
Encoding: 76 76 44
Width: 524
VWidth: 0
Flags: HW
AnchorPoint: "above" 345 784 basechar 0
LayerCount: 2
Fore
SplineSet
188.342827728 735.081966506 m 0
 210.945650641 730.596718834 226.97586527 710.107630221 226.97586527 687.750071195 c 0
 226.97586527 684.741458344 226.685581218 681.699010191 226.081966506 678.657172272 c 2
 110.460933883 96 l 1
 384 96 l 2
 410.144471708 96 432 74.1463660754 432 48 c 0
 432 21.8536339246 410.144471708 0 384 0 c 2
 52 0 l 2
 32.6124032206 0 4.00469187165 19.1101689841 4.00469187165 48.2286383997 c 0
 4.00469187165 51.1678489358 4.29617097222 54.2090323412 4.91803349438 57.3428277285 c 2
 131.918033494 697.342827728 l 2
 136.403587287 719.947193297 156.893717976 735.975832466 179.250174003 735.975832466 c 0
 182.25874513 735.975832466 185.301115113 735.685556353 188.342827728 735.081966506 c 0
EndSplineSet
EndChar

StartChar: M
Encoding: 77 77 45
Width: 664
VWidth: 0
Flags: HW
AnchorPoint: "above" 415 784 basechar 0
LayerCount: 2
Fore
SplineSet
42.6571722715 0.91803349438 m 0
 20.0543493593 5.40328116602 4.02413472968 25.8923697792 4.02413472968 48.2499288051 c 0
 4.02413472968 51.2585416559 4.31441878229 54.3009898092 4.91803349438 57.3428277285 c 2
 131.918033494 697.342827728 l 2
 136.614673549 721.010935089 159.673831306 736 179 736 c 2
 196 736 l 1
 211 736 l 2
 235.998944259 736 256.680038423 715.770128512 258.804096503 692.332246246 c 2
 301.308518683 223.317932535 l 1
 538.880504931 709.088128057 l 2
 546.930416779 725.548011708 564.356459825 736 582 736 c 2
 602 736 l 1
 614 736 l 2
 642.265124652 736 661.887937144 711.123488997 661.887937144 686.974904466 c 0
 661.887937144 684.179330301 661.624958833 681.393511561 661.081966506 678.657172272 c 2
 534.081966506 38.6571722715 l 2
 529.596718834 16.0543493593 509.107630221 0.0241347296844 486.750071195 0.0241347296844 c 0
 483.741458344 0.0241347296844 480.699010191 0.314418782287 477.657172272 0.91803349438 c 0
 455.052806703 5.40358728689 439.024167534 25.8937179757 439.024167534 48.2501740034 c 0
 439.024167534 51.2587451303 439.314443647 54.3011151132 439.918033494 57.3428277285 c 2
 517.016523748 445.870652627 l 1
 312.119495069 26.9118719426 l 2
 305.783744245 13.9569820773 292.382507961 3.29465761993 277.069462145 0.683155423438 c 0
 274.434305475 0.233753161051 271.808663954 0.0169865807518 269.213165045 0.0169865807518 c 0
 245.019500628 0.0169865807518 223.444878361 18.8514793911 221.195903497 43.6677537544 c 2
 183.223256555 462.676271734 l 1
 99.0819665056 38.6571722715 l 2
 94.5964127131 16.052806703 74.1062820243 0.0241675340094 51.7498259966 0.0241675340094 c 0
 48.7412548697 0.0241675340094 45.6988848868 0.314443647282 42.6571722715 0.91803349438 c 0
EndSplineSet
EndChar

StartChar: N
Encoding: 78 78 46
Width: 576
VWidth: 0
Flags: HW
AnchorPoint: "above" 371 784 basechar 0
LayerCount: 2
Fore
SplineSet
42.6571722715 0.91803349438 m 0
 20.0543493593 5.40328116602 4.02413472968 25.8923697792 4.02413472968 48.2499288051 c 0
 4.02413472968 51.2585416559 4.31441878229 54.3009898092 4.91803349438 57.3428277285 c 2
 131.918033494 697.342827728 l 2
 136.614673549 721.010935089 159.673831306 736 179 736 c 2
 194 736 l 1
 211 736 l 2
 233.754192621 736 252.812818843 718.539894924 257.549675839 699.710152828 c 2
 380.445293619 211.180988985 l 1
 476.918033494 697.342827728 l 2
 481.403281166 719.945650641 501.892369779 735.97586527 524.249928805 735.97586527 c 0
 527.258541656 735.97586527 530.300989809 735.685581218 533.342827728 735.081966506 c 0
 555.947193297 730.596412713 571.975832466 710.106282024 571.975832466 687.749825997 c 0
 571.975832466 684.74125487 571.685556353 681.698884887 571.081966506 678.657172272 c 2
 444.081966506 38.6571722715 l 2
 440.320277656 19.7006300394 421.129602852 0 397 0 c 2
 385 0 l 1
 372 0 l 2
 352.583589374 0 331.001471517 14.2231744527 325.450324161 36.2898471717 c 2
 198.641511937 540.374566571 l 1
 99.0819665056 38.6571722715 l 2
 94.5964127131 16.052806703 74.1062820243 0.0241675340094 51.7498259966 0.0241675340094 c 0
 48.7412548697 0.0241675340094 45.6988848868 0.314443647282 42.6571722715 0.91803349438 c 0
EndSplineSet
EndChar

StartChar: O
Encoding: 79 79 47
Width: 588
VWidth: 0
Flags: HW
HStem: 40 656<226.183 362.617>
VStem: 96 397<233.016 502.984>
AnchorPoint: "middle" 294 368 basechar 0
AnchorPoint: "above" 377 784 basechar 0
LayerCount: 2
Fore
SplineSet
540.077849649 358.636449794 m 0
 502.6461062 170.437961901 379.259883656 -8 229 -8 c 0
 218.251188328 -8 207.637961016 -6.9835963248 197.313564653 -4.95835427242 c 0
 86.8039876049 16.7192949347 37.513758953 132.534542805 37.513758953 264.279331008 c 0
 37.513758953 301.294787962 41.4047495004 339.567729261 48.9221503514 377.363550206 c 0
 86.3538937997 565.562038099 209.740116344 744 360 744 c 0
 370.748811672 744 381.362038984 742.983596325 391.686435347 740.958354272 c 0
 502.196012395 719.280705065 551.486241047 603.465457195 551.486241047 471.720668992 c 0
 551.486241047 434.705212038 547.5952505 396.432270739 540.077849649 358.636449794 c 0
445.922150351 377.363550206 m 0
 452.680895873 411.345020748 455.63590183 442.385170778 455.63590183 470.331688746 c 0
 455.63590183 577.432821313 412.23576695 639.097819148 373.207173172 646.753700091 c 0
 369.092459768 647.560845644 364.730932465 648 360 648 c 0
 290.259883656 648 177.6461062 532.437961901 143.077849649 358.636449794 c 0
 136.319104127 324.654979252 133.36409817 293.614829222 133.36409817 265.668311254 c 0
 133.36409817 158.567178687 176.76423305 96.9021808524 215.792826828 89.2462999093 c 0
 219.907540232 88.4391543555 224.269067535 88 229 88 c 0
 298.740116344 88 411.3538938 203.562038099 445.922150351 377.363550206 c 0
EndSplineSet
EndChar

StartChar: P
Encoding: 80 80 48
Width: 544
VWidth: 0
Flags: HW
AnchorPoint: "above" 355 784 basechar 0
LayerCount: 2
Fore
SplineSet
170.785933883 400 m 1
 304 400 l 2
 355.485885288 400 412.47125671 435.432429623 430.900056615 529.251774593 c 0
 434.191508236 546.008255574 435.661394983 560.213206939 435.661394983 572.261619469 c 0
 435.661394983 619.6808084 412.892997809 633.695428702 388.795880378 638.385666373 c 0
 383.501778594 639.416104794 377.554019807 640 371 640 c 2
 218.410933883 640 l 1
 170.785933883 400 l 1
151.735933883 304 m 1
 99.0819665056 38.6571722715 l 2
 94.5964127131 16.052806703 74.1062820243 0.0241675340094 51.7498259966 0.0241675340094 c 0
 48.7412548697 0.0241675340094 45.6988848868 0.314443647282 42.6571722715 0.91803349438 c 0
 20.0543493593 5.40328116602 4.02413472968 25.8923697792 4.02413472968 48.2499288051 c 0
 4.02413472968 51.2585416559 4.31441878229 54.3009898092 4.91803349438 57.3428277285 c 2
 67.0545365619 370.471662084 l 1
 131.918033494 697.342827728 l 2
 136.614673549 721.010935089 159.673831306 736 179 736 c 2
 371 736 l 2
 383.226467997 736 395.315592019 734.918220013 407.137028314 732.617308047 c 0
 484.778641053 717.505225948 530.595287635 652.44353959 530.595287635 565.057371249 c 0
 530.595287635 547.757796396 528.799691072 529.58330454 525.099943385 510.748225407 c 0
 499.52874329 380.567570377 406.514114712 304 304 304 c 2
 151.735933883 304 l 1
EndSplineSet
EndChar

StartChar: Q
Encoding: 81 81 49
Width: 588
VWidth: 0
Flags: HW
HStem: 40 656<226.183 362.617>
VStem: 96 397<233.016 502.984>
AnchorPoint: "above" 377 784 basechar 0
LayerCount: 2
Fore
SplineSet
260.018319933 199.349480052 m 0
 269.370430384 211.452211224 283.743318076 217.820188387 298.204169683 217.820188387 c 0
 308.461884923 217.820188387 318.763860843 214.616022183 327.349480052 207.981680067 c 0
 340.691735668 197.671755273 351.028443194 187.697097241 358.972437669 178.11043961 c 1
 396.747431595 228.008881265 429.811137691 296.360958775 445.922150351 377.363550206 c 0
 452.680895873 411.345020748 455.63590183 442.385170778 455.63590183 470.331688746 c 0
 455.63590183 577.432821313 412.23576695 639.097819148 373.207173172 646.753700091 c 0
 369.092459768 647.560845644 364.730932465 648 360 648 c 0
 290.259883656 648 177.6461062 532.437961901 143.077849649 358.636449794 c 0
 136.319104127 324.654979252 133.36409817 293.614829222 133.36409817 265.668311254 c 0
 133.36409817 158.567178687 176.76423305 96.9021808524 215.792826828 89.2462999093 c 0
 219.907540232 88.4391543555 224.269067535 88 229 88 c 0
 241.15786425 88 254.618714698 91.5120803026 268.741903945 98.2325376324 c 1
 267.689314363 109.195874118 267.445860389 118.368220758 267.445860389 124.508179675 c 0
 267.445860389 129.793121971 267.626231274 132.831420067 267.626231274 132.831420067 c 1
 256.762027932 141.809250923 250.355000958 156.097557416 250.355000958 170.654516505 c 0
 250.355000958 180.634834205 253.366647236 190.741433032 260.018319933 199.349480052 c 0
379.262901318 54.5387138827 m 1
 381.710006293 52.6172704884 385.334131025 51.2294238455 390.515890608 50.407925375 c 0
 413.88679357 46.7027822225 430.984602738 25.8668303987 430.984602738 2.79859364753 c 0
 430.984602738 0.37925687887 430.796539324 -2.0646333938 430.407925375 -4.51589060824 c 0
 426.702524801 -27.8884173035 405.865370994 -44.9845793192 382.798356212 -44.9845793192 c 0
 380.379071632 -44.9845793192 377.93525867 -44.7965222118 375.484109392 -44.407925375 c 0
 338.853460676 -38.6006274079 314.583064934 -19.1296792624 298.525258938 4.90280221398 c 1
 276.191374819 -3.4717666525 252.936674852 -8 229 -8 c 1
 218.251188328 -8 207.637961016 -6.9835963248 197.313564653 -4.95835427242 c 0
 86.8039876049 16.7192949347 37.513758953 132.534542805 37.513758953 264.279331008 c 0
 37.513758953 301.294787962 41.4047495004 339.567729261 48.9221503514 377.363550206 c 0
 86.3538937997 565.562038099 209.740116344 744 360 744 c 0
 370.748811672 744 381.362038984 742.983596325 391.686435347 740.958354272 c 0
 502.196012395 719.280705065 551.486241047 603.465457195 551.486241047 471.720668992 c 0
 551.486241047 434.705212038 547.5952505 396.432270739 540.077849649 358.636449794 c 0
 516.241865864 238.794420208 457.551726602 122.910240103 379.262901318 54.5387138827 c 1
EndSplineSet
EndChar

StartChar: R
Encoding: 82 82 50
Width: 563
VWidth: 0
Flags: HW
AnchorPoint: "above" 364 784 basechar 0
LayerCount: 2
Fore
SplineSet
177.135933883 432 m 1
 330 432 l 2
 387.678636892 432 436.155162365 454.914131141 453.900056615 545.251774593 c 0
 457.177302891 561.935937451 458.666157977 575.461736941 458.666157977 586.475501953 c 0
 458.666157977 625.821940689 439.664492104 633.10828156 415.31824642 637.803323947 c 0
 407.999524662 639.214700031 399.457835593 640 390 640 c 2
 218.410933883 640 l 1
 177.135933883 432 l 1
158.085933883 336 m 1
 99.0819665056 38.6571722715 l 2
 94.5964127131 16.052806703 74.1062820243 0.0241675340094 51.7498259966 0.0241675340094 c 0
 48.7412548697 0.0241675340094 45.6988848868 0.314443647282 42.6571722715 0.91803349438 c 0
 20.0543493593 5.40328116602 4.02413472968 25.8923697792 4.02413472968 48.2499288051 c 0
 4.02413472968 51.2585416559 4.31441878229 54.3009898092 4.91803349438 57.3428277285 c 2
 73.2876653962 401.882705029 l 1
 131.918033494 697.342827728 l 2
 136.614673549 721.010935089 159.673831306 736 179 736 c 2
 390 736 l 2
 404.656043411 736 419.198459153 734.823825317 433.496400893 732.06654424 c 0
 505.381667224 718.203857694 553.233761409 661.851083977 553.233761409 577.020723012 c 0
 553.233761409 561.220924297 551.573786868 544.433246774 548.099943385 526.748225407 c 0
 528.203966188 425.45961422 468.530444909 368.14525374 398.875373785 346.323498087 c 1
 441.494626386 54.9469752027 l 2
 441.826150829 52.6804305395 441.986923574 50.4222091607 441.986923574 48.1857048574 c 0
 441.986923574 24.8940186362 424.549801336 3.95772728734 400.946975203 0.505373614135 c 0
 398.680532463 0.173864079124 396.422386795 0.013097032353 394.185936322 0.013097032353 c 0
 370.895512325 0.013097032353 349.957968325 17.4485507558 346.505373614 41.0530247973 c 2
 303.363875749 336 l 1
 158.085933883 336 l 1
EndSplineSet
EndChar

StartChar: S
Encoding: 83 83 51
Width: 537
VWidth: 0
Flags: HW
AnchorPoint: "bottom" 204 40 basechar 0
AnchorPoint: "above" 352 784 basechar 0
LayerCount: 2
Fore
SplineSet
473.303935706 528.113843244 m 0
 472.217168053 528.038861022 471.138280729 528.002041318 470.068266091 528.002041318 c 0
 444.855390612 528.002041318 424.568809294 548.445087352 422.191204044 571.763505481 c 0
 421.1522308 582.298888374 414.758389366 648 334 648 c 0
 263.911571558 648 205.282243896 606.405911199 191.077304863 534.633587663 c 0
 189.393030047 526.212213581 187.915936314 517.465823078 187.915936314 508.717596201 c 0
 187.915936314 478.387416238 205.670825031 448.035162784 294.102900925 431.129030627 c 0
 420.817277986 406.404274128 462.086566957 324.547322175 462.086566957 248.264392647 c 0
 462.086566957 234.129807583 460.669669607 220.186595275 458.116904153 206.833668283 c 0
 435.28123739 91.453457271 338.735459402 -8 204 -8 c 0
 34.0656209704 -8 8.56909474582 160.629202594 8.46782435359 161.26876986 c 0
 8.19980482592 163.413651716 8.06948208675 165.536535607 8.06948208675 167.629244689 c 0
 8.06948208675 191.672310608 25.2716101095 211.732411523 48.4931061918 215.409350822 c 0
 50.9166480246 215.793099404 53.3347133359 215.978590296 55.7301790105 215.978590296 c 0
 78.2747876977 215.978590296 98.8176596672 199.548948808 103.084948337 177.332083696 c 0
 105.205093253 165.570976998 121.331542259 88 204 88 c 0
 287.264540598 88 348.71876261 148.546542729 363.883095847 225.166331717 c 0
 366.108854474 236.808761457 367.724327676 248.019185264 367.724327676 258.607637048 c 0
 367.724327676 294.022657787 349.652177271 322.479734603 275.897099075 336.870969373 c 0
 140.083709354 362.835293878 93.356719144 443.167855917 93.356719144 517.584237513 c 0
 93.356719144 529.774434671 94.6105881553 541.805877429 96.9321275668 553.413574487 c 0
 120.710045509 673.554633565 224.091067875 744 334 744 c 0
 504.11738229 744 517.713591299 581.805119217 517.940216279 578.520491346 c 0
 518.833513617 553.828292121 499.991014395 529.955135136 473.303935706 528.113843244 c 0
EndSplineSet
EndChar

StartChar: T
Encoding: 84 84 52
Width: 550
VWidth: 0
Flags: HW
AnchorPoint: "bottom" 212 48 basechar 0
AnchorPoint: "above" 358 784 basechar 0
LayerCount: 2
Fore
SplineSet
92 688 m 0
 92 714.144471708 113.853633925 736 140 736 c 2
 537 736 l 2
 563.144471708 736 585 714.146366075 585 688 c 0
 585 661.853633925 563.144471708 640 537 640 c 2
 377.842482508 640 l 1
 259.090446066 38.7000059494 l 2
 254.622929666 16.0787721154 234.12528266 0.0239078707363 211.751166184 0.0239078707363 c 0
 208.756417322 0.0239078707363 205.728050564 0.311538853668 202.700005949 0.909553934378 c 0
 180.077227501 5.37737538341 164.023940452 25.8760681607 164.023940452 48.2490790234 c 0
 164.023940452 51.2437858293 164.311563526 54.272074364 164.909553934 57.2999940506 c 2
 279.988238495 640 l 1
 140 640 l 2
 113.853633925 640 92 661.855528292 92 688 c 0
EndSplineSet
EndChar

StartChar: U
Encoding: 85 85 53
Width: 569
VWidth: 0
Flags: HW
AnchorPoint: "above" 368 784 basechar 0
LayerCount: 2
Fore
SplineSet
527.375211249 735.075528824 m 0
 549.964102229 730.576893756 565.97569307 710.094289012 565.97569307 687.749244943 c 0
 565.97569307 684.730148716 565.68339499 681.677052904 565.075528824 678.624788751 c 2
 471.090309969 206.699008972 l 2
 447.889584894 88.2532020068 339.782988456 -8 220 -8 c 0
 206.65486027 -8 193.611280494 -6.75947466139 181.018922789 -4.31291443937 c 0
 90.323826561 13.3081712986 33.6417489352 91.1455691151 33.6417489352 181.861870839 c 0
 33.6417489352 196.085777232 35.0352678182 210.626309207 37.9096900306 225.300991028 c 2
 131.924471176 697.375211249 l 2
 136.423106244 719.964102229 156.905710988 735.97569307 179.250755057 735.97569307 c 0
 182.269851284 735.97569307 185.322947096 735.68339499 188.375211249 735.075528824 c 0
 210.965643403 730.576586827 226.975660097 710.0929428 226.975660097 687.748999757 c 0
 226.975660097 684.729945 226.683369979 681.676927317 226.075528824 678.624788751 c 2
 132.090309969 206.699008972 l 2
 130.21557447 197.127990894 129.324786555 188.026163486 129.324786555 179.435094934 c 0
 129.324786555 130.293047825 158.471288186 97.862985261 199.328321003 89.9249014151 c 0
 205.710864893 88.6848415023 212.591892976 88 220 88 c 0
 288.217011544 88 362.110415106 149.746797993 376.909690031 225.300991028 c 2
 470.924471176 697.375211249 l 2
 475.423413173 719.965643403 495.9070572 735.975660097 518.251000243 735.975660097 c 0
 521.270055 735.975660097 524.323072683 735.683369979 527.375211249 735.075528824 c 0
EndSplineSet
EndChar

StartChar: V
Encoding: 86 86 54
Width: 550
VWidth: 0
Flags: HW
AnchorPoint: "above" 358 784 basechar 0
LayerCount: 2
Fore
SplineSet
135.149949818 735.754340255 m 0
 136.733379205 735.915157303 138.309178715 735.993795301 139.873005277 735.993795301 c 0
 163.997833791 735.993795301 185.273269214 717.279057355 187.754340255 692.850050182 c 2
 238.202291624 196.131759783 l 1
 494.040678839 709.412536641 l 2
 502.360389505 726.104119169 519.659243854 735.88157933 537.387504388 735.88157933 c 0
 544.511433253 735.88157933 551.704700739 734.302758118 558.412536641 730.959321161 c 0
 575.105042602 722.639150221 584.881507671 705.340140582 584.881507671 687.612516291 c 0
 584.881507671 680.488417306 583.302658421 673.295099241 579.959321161 666.587463359 c 2
 260.959321161 26.5874633589 l 2
 253.249295843 11.1190740071 236.271737929 0 218 0 c 2
 205 0 l 2
 182.302783247 0 159.783688907 18.1601242162 157.245659745 43.1499498178 c 2
 92.2456597446 683.149949818 l 2
 89.603760004 709.16250111 109.139283198 733.112631927 135.149949818 735.754340255 c 0
EndSplineSet
EndChar

StartChar: W
Encoding: 87 87 55
Width: 697
VWidth: 0
Flags: HW
AnchorPoint: "above" 432 784 basechar 0
LayerCount: 2
Fore
SplineSet
139.40004687 735.996250439 m 0
 139.595618503 735.998695085 139.79096541 735.999913778 139.986080145 735.999913778 c 0
 165.872320153 735.999913778 187.671891217 714.548690956 187.996250439 688.59995313 c 2
 193.279744917 265.920394958 l 1
 364.266399726 705.404166356 l 2
 371.482554076 723.951711673 390.255704506 736 409 736 c 2
 416 736 l 2
 444.906051769 736 464.19882604 708.983115878 463.997890764 687.550019774 c 2
 460.045406559 265.951704582 l 1
 639.553860503 706.125691264 l 2
 647.073150386 724.563796725 665.391212467 735.911169731 684.393277037 735.911169731 c 0
 690.340443982 735.911169731 696.354611167 734.799658099 702.125691264 732.446139497 c 0
 720.564896279 724.926401202 731.911100728 706.607980027 731.911100728 687.606633356 c 0
 731.911100728 681.659371207 730.799583993 675.645207115 728.446139497 669.874308736 c 2
 467.446139497 29.8743087363 l 2
 460.690667925 13.3091677151 442.832606823 0 423 0 c 2
 410 0 l 2
 388.565962033 0 361.731126909 19.5451986591 362.002109236 48.4499802259 c 2
 365.713766768 444.360117003 l 1
 204.733600274 30.5958336436 l 2
 197.937166169 13.1270873508 179.901867271 0 160 0 c 2
 148 0 l 2
 125.049825775 0 100.347242496 19.9206120243 100.003749561 47.4000468695 c 2
 92.0037495606 687.40004687 l 2
 91.6769455152 713.544370499 113.257617459 735.669470072 139.40004687 735.996250439 c 0
EndSplineSet
EndChar

StartChar: X
Encoding: 88 88 56
Width: 505
VWidth: 0
Flags: HW
AnchorPoint: "above" 336 784 basechar 0
LayerCount: 2
Fore
SplineSet
-15.761556776 9.57119762704 m 0
 -28.2205690105 18.8959895963 -34.8234981236 33.5091572018 -34.8234981236 48.2258398396 c 0
 -34.8234981236 58.2333314338 -31.7702137586 68.2886897889 -25.428802373 76.761556776 c 2
 198.719658452 376.250105686 l 1
 94.7169043854 672.080161698 l 2
 92.9203430402 677.190380636 92.0698478969 682.4378995 92.0698478969 687.623598571 c 0
 92.0698478969 707.46865811 104.525372635 726.408365085 124.080161698 733.283095615 c 0
 129.190210708 735.07959722 134.437696864 735.930089094 139.62344611 735.930089094 c 0
 159.467716415 735.930089094 178.407937388 723.475843925 185.283095615 703.919838302 c 2
 267.956813835 468.759039809 l 1
 453.571197627 716.761556776 l 2
 462.895989596 729.22056901 477.509157202 735.823498124 492.22583984 735.823498124 c 0
 502.233331434 735.823498124 512.288689789 732.770213759 520.761556776 726.428802373 c 0
 533.221119553 717.103598357 539.82345349 702.490584656 539.82345349 687.774423567 c 0
 539.82345349 677.76658775 536.770017895 667.711048514 530.428802373 659.238443224 c 2
 306.280341548 359.749894314 l 1
 410.283095615 63.919838302 l 2
 412.07959722 58.8097892918 412.930089094 53.5623031358 412.930089094 48.3765538897 c 0
 412.930089094 28.5322835846 400.475843925 9.59206261214 380.919838302 2.71690438543 c 0
 375.809619364 0.920343040163 370.5621005 0.0698478969357 365.376401429 0.0698478969357 c 0
 345.53134189 0.0698478969357 326.591634915 12.525372635 319.716904385 32.080161698 c 2
 237.043186165 267.240960191 l 1
 51.428802373 19.238443224 l 2
 42.1035983568 6.77888044665 27.4905846563 0.17654650956 12.774423567 0.17654650956 c 0
 2.76658775045 0.17654650956 -7.28895148604 3.22998210532 -15.761556776 9.57119762704 c 0
EndSplineSet
EndChar

StartChar: Y
Encoding: 89 89 57
Width: 524
VWidth: 0
Flags: HW
AnchorPoint: "middle" 262 368 basechar 0
AnchorPoint: "above" 345 784 basechar 0
LayerCount: 2
Fore
SplineSet
121.621350508 732.342138456 m 0
 127.466558246 734.764823242 133.569798855 735.908856628 139.605722578 735.908856628 c 0
 158.509948745 735.908856628 176.753855085 724.686888737 184.342138456 706.378649492 c 2
 279.446030525 476.921640055 l 1
 474.686530139 718.194452585 l 2
 484.062485698 729.780999293 498.082949172 735.815975015 512.17101009 735.815975015 c 0
 522.794583814 735.815975015 533.456596274 732.384235166 542.194452585 725.313469861 c 0
 553.781484993 715.937121268 559.815941003 701.916844376 559.815941003 687.829286545 c 0
 559.815941003 677.205337597 556.384009177 666.543124456 549.313469861 657.805547415 c 2
 310.758726234 363.006189436 l 1
 246.073253144 38.6133691647 l 2
 241.569900893 16.0293936957 221.089585358 0.0243677945684 198.748953906 0.0243677945684 c 0
 195.726160495 0.0243677945684 192.669309586 0.317377783936 189.613369165 0.926746855965 c 0
 167.027853044 5.43040632046 151.024400827 25.9117601534 151.024400827 48.2512912739 c 0
 151.024400827 51.2740433045 151.317402846 54.3308161008 151.926746856 57.3866308353 c 2
 216.075777977 379.089234669 l 1
 95.6578615439 669.621350508 l 2
 93.2351008837 675.466741308 92.0910738811 681.569981243 92.0910738811 687.60580428 c 0
 92.0910738811 706.510741077 103.314197288 724.754305213 121.621350508 732.342138456 c 0
EndSplineSet
EndChar

StartChar: Z
Encoding: 90 90 58
Width: 505
VWidth: 0
Flags: HW
AnchorPoint: "above" 336 784 basechar 0
LayerCount: 2
Fore
SplineSet
99 688 m 0
 99 714.144471708 120.853633925 736 147 736 c 2
 486 736 l 2
 512.354847908 736 533.996663789 713.865582227 533.996663789 687.910164833 c 0
 533.996663789 677.089514042 527.277348169 663.091241172 524.601708247 659.470924999 c 2
 108.16147774 96 l 1
 365 96 l 2
 391.144471708 96 413 74.1463660754 413 48 c 0
 413 21.8536339246 391.144471708 0 365 0 c 2
 13 0 l 2
 4.46696699723 0 -4.81194187802 2.53569829699 -12.4125563755 7.27897375481 c 0
 -26.918533622 16.3316425736 -34.8086685686 32.2382850388 -34.8086685686 48.3081832285 c 0
 -34.8086685686 58.1689595033 -31.8378208477 68.091205943 -25.6017082469 76.5290750012 c 2
 390.83852226 640 l 1
 147 640 l 2
 120.853633925 640 99 661.855528292 99 688 c 0
EndSplineSet
EndChar

StartChar: bracketleft
Encoding: 91 91 59
Width: 249
VWidth: 0
Flags: HW
LayerCount: 2
Fore
SplineSet
313 768 m 0
 313 741.855528292 291.146366075 720 265 720 c 2
 208.398855728 720 l 1
 68.4788557283 16 l 1
 106 16 l 2
 132.144471708 16 154 -5.85363392464 154 -32 c 0
 154 -58.1463660754 132.144471708 -80 106 -80 c 2
 10 -80 l 2
 -9.40941692564 -80 -37.9952796364 -60.8784456312 -37.9952796364 -31.7708989178 c 0
 -37.9952796364 -28.8272518668 -37.7029239339 -25.7814752479 -37.079155524 -22.6430178396 c 2
 121.920844476 777.35698216 l 2
 125.684289774 796.292555985 144.869512225 816 169 816 c 2
 265 816 l 2
 291.146366075 816 313 794.144471708 313 768 c 0
EndSplineSet
EndChar

StartChar: backslash
Encoding: 92 92 60
Width: 460
VWidth: 0
Flags: HW
LayerCount: 2
Fore
SplineSet
319.29836964 1.34866729159 m 0
 315.630388856 0.460328195507 311.942080291 0.0356090937917 308.297232535 0.0356090937917 c 0
 286.692449672 0.0356090937917 266.614666092 14.9581514398 261.348667292 36.7016303597 c 2
 106.348667292 676.70163036 l 2
 105.460328196 680.369611144 105.035609094 684.057919709 105.035609094 687.702767465 c 0
 105.035609094 709.307550328 119.95815144 729.385333908 141.70163036 734.651332708 c 0
 145.369752163 735.539705958 149.058132931 735.964433802 152.70300317 735.964433802 c 0
 174.308778056 735.964433802 194.38568523 721.040397938 199.651332708 699.29836964 c 2
 354.651332708 59.2983696403 l 2
 355.539705958 55.6302478372 355.964433802 51.9418670692 355.964433802 48.2969968297 c 0
 355.964433802 26.6912219438 341.040397938 6.61431476984 319.29836964 1.34866729159 c 0
EndSplineSet
EndChar

StartChar: bracketright
Encoding: 93 93 61
Width: 249
VWidth: 0
Flags: HW
LayerCount: 2
Fore
SplineSet
96 768 m 0
 96 794.144471708 117.853633925 816 144 816 c 2
 240 816 l 2
 268.20975741 816 287.889986412 791.211689748 287.889986412 767.000490283 c 0
 287.889986412 764.174493552 287.621859228 761.356359489 287.067872433 758.586425513 c 2
 127.067872433 -41.4135744866 l 2
 122.334817608 -65.0788486118 99.225154296 -80 80 -80 c 2
 -16 -80 l 2
 -42.1444717079 -80 -64 -58.1463660754 -64 -32 c 0
 -64 -5.85363392464 -42.1444717079 16 -16 16 c 2
 40.6494126695 16 l 1
 181.44941267 720 l 1
 144 720 l 2
 117.853633925 720 96 741.855528292 96 768 c 0
EndSplineSet
EndChar

StartChar: asciicircum
Encoding: 94 94 62
Width: 409
VWidth: 0
Flags: HW
LayerCount: 2
Fore
SplineSet
79.1453029599 408.215263644 m 0
 65.5477036175 417.3936432 58.16394009 432.759244631 58.16394009 448.287653021 c 0
 58.16394009 457.506088684 60.7661261684 466.781900779 66.2152636444 474.85469704 c 2
 228.215263644 714.85469704 l 2
 237.431946708 728.509042319 252.786620449 735.798492898 268.258866943 735.798492898 c 0
 278.700232014 735.798492898 289.195141538 732.4787641 297.89331168 725.555158325 c 0
 305.739469523 719.309740855 311.580878517 710.2656447 314.182082863 701.084923478 c 2
 382.182082863 461.084923478 l 2
 383.381405979 456.852018363 383.952221252 452.567268416 383.952221252 448.334022861 c 0
 383.952221252 427.410950361 370.007829253 407.746073773 349.084923478 401.817917137 c 0
 344.851865079 400.618550591 340.5670542 400.047727183 336.333810158 400.047727183 c 0
 315.409833369 400.047727183 295.745687731 413.99353325 289.817917137 434.915076522 c 2
 249.982161978 575.511859437 l 1
 145.784736356 421.14530296 l 2
 136.605923565 407.547061788 121.240417773 400.16399628 105.712555693 400.16399628 c 0
 96.4938193903 400.16399628 87.2178577233 402.766289179 79.1453029599 408.215263644 c 0
EndSplineSet
EndChar

StartChar: underscore
Encoding: 95 95 63
Width: 460
VWidth: 0
Flags: HW
LayerCount: 2
Fore
SplineSet
-102 -96 m 0
 -102 -69.8555282921 -80.1463660754 -48 -54 -48 c 2
 330 -48 l 2
 356.144471708 -48 378 -69.8536339246 378 -96 c 0
 378 -122.146366075 356.144471708 -144 330 -144 c 2
 -54 -144 l 2
 -80.1463660754 -144 -102 -122.144471708 -102 -96 c 0
EndSplineSet
EndChar

StartChar: grave
Encoding: 96 96 64
Width: 307
VWidth: 0
Flags: HW
LayerCount: 2
Fore
SplineSet
134.478011107 732.282456204 m 0
 140.365178671 734.744877252 146.519008664 735.907580542 152.605303558 735.907580542 c 0
 171.454442515 735.907580542 189.655832715 724.755755396 197.282456204 706.521988893 c 2
 284.282456204 498.521988893 l 2
 286.744877252 492.634821329 287.907580542 486.480991336 287.907580542 480.394696442 c 0
 287.907580542 461.545557485 276.755755396 443.344167285 258.521988893 435.717543796 c 0
 252.634637504 433.25504586 246.48081035 432.092349711 240.394619274 432.092349711 c 0
 221.544773726 432.092349711 203.343716244 443.245322956 195.717543796 461.478011107 c 2
 108.717543796 669.478011107 l 2
 106.25504586 675.365362496 105.092349711 681.51918965 105.092349711 687.605380726 c 0
 105.092349711 706.455226274 116.245322956 724.656283756 134.478011107 732.282456204 c 0
EndSplineSet
EndChar

StartChar: a
Encoding: 97 97 65
Width: 470
VWidth: 0
Flags: HW
AnchorPoint: "above" 277 576 basechar 0
LayerCount: 2
Fore
SplineSet
386.266769927 527.096995394 m 0
 408.902271054 522.643250959 424.976267379 502.138979583 424.976267379 479.752017154 c 0
 424.976267379 476.76802011 424.690685727 473.750573885 424.096995394 470.733230073 c 2
 339.096995394 38.733230073 l 2
 334.643250959 16.097728946 314.138979583 0.0237326211939 291.752017154 0.0237326211939 c 0
 288.76802011 0.0237326211939 285.750573885 0.309314272878 282.733230073 0.90300460624 c 0
 270.265124285 3.35621986552 259.788478645 10.6787834102 252.891918938 20.5029524188 c 1
 225.468553929 2.66050634372 194.957950413 -8 162 -8 c 0
 57.4175078074 -8 10.8866588003 97.0336120211 10.8866588003 195.575703222 c 0
 10.8866588003 195.814362218 10.88747743 196.052983138 10.88747743 196.291564397 c 0
 10.9440521024 221.026202576 13.5870883677 246.902471953 18.9467788069 273.486536531 c 0
 45.5519580242 405.448225449 133.77439963 536 251 536 c 0
 285.416065671 536 313.684689278 524.180415826 336.084626578 504.950508536 c 1
 344.790937673 518.972062793 360.492821457 527.976234971 377.248228054 527.976234971 c 0
 380.232182787 527.976234971 383.249550751 527.690661204 386.266769927 527.096995394 c 0
270.186852959 185.768210968 m 1
 304.599695456 360.666422244 l 1
 296.628893822 422.723438929 269.77966732 440 251 440 c 0
 212.22560037 440 136.448041976 370.551774551 113.053221193 254.513463469 c 0
 108.874450094 233.786758816 106.92845914 214.099118134 106.887226315 196.07198753 c 0
 106.887226315 195.842398368 106.886439118 195.613250775 106.886439118 195.384544068 c 0
 106.886439118 113.286814312 140.655242358 88 162 88 c 0
 188.012822089 88 235.699532151 119.088235539 270.186852959 185.768210968 c 1
EndSplineSet
EndChar

StartChar: b
Encoding: 98 98 66
Width: 470
VWidth: 0
Flags: HW
LayerCount: 2
Fore
SplineSet
188.34699106 735.081140153 m 0
 210.948023451 730.594170487 226.975843165 710.105914812 226.975843165 687.749964892 c 0
 226.975843165 684.740004351 226.685300579 681.696187382 226.081140153 678.65300894 c 2
 194.177782892 517.954616811 l 1
 216.735191968 529.422985676 241.1126155 536 267 536 c 0
 275.789562822 536 284.506023159 535.162203044 292.998366084 533.48423496 c 0
 380.985377946 516.099233083 417.990226177 428.13399291 417.990226177 332.748577013 c 0
 417.990226177 306.795454456 415.250709761 280.293006765 410.053221193 254.513463469 c 0
 383.447365869 122.548421062 295.225094056 -8 178 -8 c 0
 141.15121369 -8 111.348395454 5.55242740632 88.2507731041 27.2432243275 c 1
 79.6472433703 9.88902275314 62.5691622621 0.0142592751849 44.8764307284 0.0142592751849 c 0
 38.8906182467 0.0142592751849 32.8344524402 1.14453172493 27.0123032307 3.49783415455 c 0
 8.63772052369 10.9248080044 -2.90301761473 28.8629376195 -2.90301761473 48.14750838 c 0
 -2.90301761473 53.7286392727 -1.93639255603 59.4225449062 0.110953732981 65.0070705117 c 0
 1.14125412945 67.6224484412 12.1128165322 95.2272843517 23.9395046739 153.450979818 c 2
 131.918859847 697.34699106 l 2
 136.406135738 719.949565917 156.89543313 735.975810339 179.250280305 735.975810339 c 0
 182.260199155 735.975810339 185.303937958 735.685275696 188.34699106 735.081140153 c 0
159.586447853 343.716781057 m 1
 124.466973734 166.818689199 l 1
 132.51974681 105.176693795 159.26535238 88 178 88 c 0
 216.774905944 88 292.552634131 157.451578938 315.946778807 273.486536531 c 0
 320.368356487 295.417561826 322.249882088 315.048868411 322.249882088 332.455576639 c 0
 322.249882088 401.688751712 292.484920214 435.729694865 274.38987216 439.305023061 c 0
 272.15224903 439.747146069 269.730437178 440 267 440 c 0
 241.181218989 440 194.009858102 409.372933811 159.586447853 343.716781057 c 1
EndSplineSet
EndChar

StartChar: c
Encoding: 99 99 67
Width: 422
VWidth: 0
Flags: HW
AnchorPoint: "middle" 203 264 basechar 0
AnchorPoint: "bottom" 159 40 basechar 0
AnchorPoint: "above" 265 576 basechar 0
LayerCount: 2
Fore
SplineSet
314.631663587 174.583467345 m 0
 328.945269431 165.543295234 336.845321297 149.716059608 336.845321297 133.679868998 c 0
 336.845321297 124.95096802 334.504616438 116.16015581 329.583467345 108.368336413 c 0
 289.64616867 45.1342801765 230.936264467 -8 159 -8 c 0
 150.563891995 -8 142.18894263 -7.20155430762 134.022718732 -5.60247488136 c 0
 46.9343457096 11.450844658 10.868128727 99.0604310112 10.868128727 193.893359123 c 0
 10.868128727 220.320329883 13.6688961027 247.308238318 18.9467788069 273.486536531 c 0
 45.4373684345 404.879861084 132.120810571 536 248 536 c 0
 317.630131198 536 364.337239461 482.680789178 382.897597864 422.050285061 c 0
 384.285732031 417.515713448 384.945036744 412.90560719 384.945036744 408.350887508 c 0
 384.945036744 387.795187088 371.516538961 368.367581901 351.050285061 362.102402136 c 0
 346.515554186 360.714219215 341.90539525 360.054907409 337.350692309 360.054907409 c 0
 316.794129959 360.054907409 297.367179797 373.484774578 291.102402136 393.949714939 c 0
 279.662760539 431.319210822 262.369868802 440 248 440 c 0
 211.879189429 440 136.562631565 371.120138916 113.053221193 254.513463469 c 0
 108.558269361 232.218502382 106.659361151 212.316710417 106.659361151 194.719360318 c 0
 106.659361151 125.362327851 136.157215674 91.8027554922 152.470721502 88.6083057851 c 0
 154.443710431 88.2219624709 156.578965148 88 159 88 c 0
 179.063735533 88 216.35383133 108.865719823 248.416532655 159.631663587 c 0
 257.45714869 173.94597231 273.284334562 181.845259349 289.319961924 181.845259349 c 0
 298.049134575 181.845259349 306.840074499 179.50447098 314.631663587 174.583467345 c 0
EndSplineSet
EndChar

StartChar: d
Encoding: 100 100 68
Width: 473
VWidth: 0
Flags: HW
AnchorPoint: "above" 320 784 basechar 0
LayerCount: 2
Fore
SplineSet
431.34699106 735.081140153 m 0
 453.948023451 730.594170487 469.975843165 710.105914812 469.975843165 687.749964892 c 0
 469.975843165 684.740004351 469.685300579 681.696187382 469.081140153 678.65300894 c 2
 361.060495326 134.549020182 l 2
 349.265404865 76.4808825284 349.030299657 49.8818996357 348.983533778 46.691541658 c 0
 348.072068292 20.5248709393 326.508632911 9.52373433449e-07 300.999085988 9.52373433449e-07 c 0
 283.822111742 9.52373433449e-07 268.503182821 9.11619217903 259.998697064 23.2440454523 c 1
 231.525830593 3.75775220926 199.612536856 -8 165 -8 c 0
 60.4175078074 -8 13.8866588003 97.0336120211 13.8866588003 195.575703222 c 0
 13.8866588003 220.708597449 16.5312185148 246.625357482 21.9467788069 273.486536531 c 0
 48.5519580242 405.448225449 136.77439963 536 254 536 c 0
 287.387620293 536 314.989713481 524.876263675 337.060784718 506.654464487 c 1
 374.918859847 697.34699106 l 2
 379.406135738 719.949565917 399.89543313 735.975810339 422.250280305 735.975810339 c 0
 425.260199155 735.975810339 428.303937958 735.685275696 431.34699106 735.081140153 c 0
273.460858488 186.299280511 m 1
 307.784733354 359.189909465 l 1
 300.052861613 422.449878626 262.730348539 426.882890146 254 440 c 1
 215.22560037 440 139.448041976 370.551774551 116.053221193 254.513463469 c 0
 111.816200945 233.497843038 109.886439118 213.824214364 109.886439118 195.384544068 c 0
 109.886439118 113.286814312 143.655242358 88 165 88 c 0
 191.081783795 88 238.9525257 119.253287954 273.460858488 186.299280511 c 1
EndSplineSet
EndChar

StartChar: e
Encoding: 101 101 69
Width: 435
VWidth: 0
Flags: HW
AnchorPoint: "bottom" 152 40 basechar 0
AnchorPoint: "above" 259 576 basechar 0
LayerCount: 2
Fore
SplineSet
139.112747192 336 m 1
 291.90050594 336 l 1
 292.478875482 342.837622466 292.785602882 349.245458109 292.785602882 355.423501419 c 0
 292.785602882 371.414830713 290.730565107 385.866578196 286.012038674 402.247061645 c 0
 275.653762311 435.302375413 264.155360181 440 245 440 c 0
 220.818121024 440 172.610826668 408.521193971 139.112747192 336 c 1
110.521696121 240 m 1
 107.794800173 221.987443017 106.609639835 205.844107431 106.609639835 191.434452957 c 0
 106.609639835 119.242331 136.357079316 90.5654806169 151.012542829 88.3596826032 c 0
 152.53431446 88.1306403188 154.1781898 88 156 88 c 0
 211.957526533 88 256.2386914 147.184410066 261.052812452 154.613808309 c 0
 269.796175386 167.579243057 285.5687136 175.716969065 301.787630258 175.716969065 c 0
 310.21967367 175.716969065 318.772366489 173.517463594 326.52070511 168.653334558 c 0
 341.212911849 159.43009421 348.622755198 143.596848444 348.622755198 127.784202216 c 0
 348.622755198 119.212859409 346.4455586 110.647569259 342.070861719 103.144385665 c 0
 340.070743067 99.9582866773 277.075150564 -8 156 -8 c 0
 147.723464482 -8 139.494856652 -7.22546298172 131.457352476 -5.66354349225 c 0
 45.8019902249 10.9817703687 10.7564845797 96.3979981127 10.7564845797 191.325843711 c 0
 10.7564845797 218.30279786 13.5867743967 246.047914278 18.8901396923 273.201144591 c 0
 21.7974906253 288.086781368 25.3751975923 302.596611179 29.554268659 316.665954682 c 0
 63.7312659099 431.726911192 142.569674439 536 245 536 c 0
 308.017232935 536 358.117777787 494.664363981 377.984245482 429.767236177 c 0
 385.41878218 404.365902459 388.649414903 379.539538784 388.649414903 354.495946629 c 0
 388.649414903 329.544173843 385.442428218 304.376762542 379.991060147 278.210195803 c 0
 375.373308055 256.044985757 355.069973693 240 333 240 c 2
 110.521696121 240 l 1
EndSplineSet
EndChar

StartChar: f
Encoding: 102 102 70
Width: 300
VWidth: 0
Flags: HW
AnchorPoint: "above" 233 784 basechar 0
LayerCount: 2
Fore
SplineSet
41 480 m 0
 41 506.144471708 62.8536339246 528 89 528 c 2
 126.886011877 528 l 1
 147.914408547 633.324838976 l 2
 163.852379049 714.463597894 232.810866799 752 281 752 c 0
 303.660048066 752 318.183856705 746.514374756 321.619354893 745.394484006 c 0
 341.903077368 738.039969637 353.993428939 719.472574921 353.993428939 699.910996898 c 0
 353.993428939 694.990550393 353.228466367 690.007201415 351.636521456 685.123578744 c 0
 345.153761129 665.236360867 326.632779764 652.112681632 305.916623162 652.112681632 c 0
 301.308849541 652.112681632 296.592475103 652.761942913 291.875811543 654.1304517 c 0
 289.791390767 654.742391744 285.313048984 655.902028653 281.126915577 656.001698496 c 0
 274.493159103 655.505011202 247.8878403 644.213882429 242.085591453 614.675161024 c 2
 224.78065479 528 l 1
 256 528 l 2
 282.144471708 528 304 506.146366075 304 480 c 0
 304 453.853633925 282.144471708 432 256 432 c 2
 205.613988123 432 l 1
 127.071012906 38.6021415205 l 2
 122.562717143 16.0214601332 102.083616416 0.0244607991269 79.7484227552 0.0244607991269 c 0
 76.7220354057 0.0244607991269 73.6615704329 0.318163613202 70.6021415205 0.928987093974 c 0
 48.0230002703 5.43697536441 32.0244277082 25.9150387607 32.0244277082 48.2513320711 c 0
 32.0244277082 51.2777607121 32.3181385 54.3383037829 32.928987094 57.3978584795 c 2
 107.71934521 432 l 1
 89 432 l 2
 62.8536339246 432 41 453.855528292 41 480 c 0
EndSplineSet
EndChar

StartChar: g
Encoding: 103 103 71
Width: 470
VWidth: 0
Flags: HW
LayerCount: 2
Fore
SplineSet
401.987696769 524.502165845 m 0
 421.129388793 516.765127766 431.715343566 497.87276919 431.715343566 479.198853765 c 0
 431.715343566 473.67993134 430.790713867 468.18008882 428.889046267 462.992929488 c 0
 427.594967113 459.707959329 416.76560797 432.174190119 405.06331202 374.56288698 c 2
 329.102222374 -9.24051333381 l 2
 313.636533583 -88.7783414022 258.136719394 -192 151 -192 c 0
 85.1344815333 -192 48.9138976026 -153.018041167 44.4647865431 -148.277965651 c 0
 36.109359403 -138.770999627 32.0827880127 -127.235645339 32.0827880127 -115.861067033 c 0
 32.0827880127 -102.973536712 37.2517601834 -90.2923970144 47.1500425939 -81.0017100644 c 0
 56.2655480986 -72.4457500985 67.9596743084 -68.0387013004 79.8037801778 -68.0387013004 c 0
 92.1745363951 -68.0387013004 104.708906551 -72.8463839786 114.639660793 -82.7558752034 c 0
 116.336763832 -84.3240791281 130.289349032 -96 151 -96 c 0
 183.863280606 -96 222.363466417 -55.2216585978 234.897777626 9.2405133338 c 2
 235.083433476 10.1785639475 l 1
 212.45300904 -1.37204223394 187.987299146 -8 162 -8 c 0
 57.4175078074 -8 10.8866588003 97.0336120211 10.8866588003 195.575703222 c 0
 10.8866588003 220.708597449 13.5312185148 246.625357482 18.9467788069 273.486536531 c 0
 45.5519580242 405.448225449 133.77439963 536 251 536 c 0
 287.853116146 536 317.65734717 522.447226317 340.754958322 500.755511185 c 1
 348.904881088 516.994361904 366.189066788 527.899382335 384.582940219 527.899382335 c 0
 390.357922736 527.899382335 396.242289742 526.824449216 401.987696769 524.502165845 c 0
269.619547429 184.676823919 m 1
 304.540836293 361.121230808 l 1
 296.497526982 422.807896634 269.733708209 440 251 440 c 0
 212.22560037 440 136.448041976 370.551774551 113.053221193 254.513463469 c 0
 108.816200945 233.497843038 106.886439118 213.824214364 106.886439118 195.384544068 c 0
 106.886439118 113.286814312 140.655242358 88 162 88 c 0
 187.870484507 88 235.178314525 118.748947647 269.619547429 184.676823919 c 1
EndSplineSet
EndChar

StartChar: h
Encoding: 104 104 72
Width: 467
VWidth: 0
Flags: HW
AnchorPoint: "above" 316 784 basechar 0
LayerCount: 2
Fore
SplineSet
188.342827728 735.081966506 m 0
 210.945650641 730.596718834 226.97586527 710.107630221 226.97586527 687.750071195 c 0
 226.97586527 684.741458344 226.685581218 681.699010191 226.081966506 678.657172272 c 2
 193.458889689 514.257415085 l 1
 218.7769058 527.262047603 247.777487251 536 280 536 c 0
 358.285472434 536 400.987130838 463.610013499 400.987130838 390.405690881 c 0
 400.975422955 374.930081039 399.356196642 359.028046555 396.067872433 342.586425513 c 2
 335.061908829 38.5566564521 l 2
 330.534849693 15.9955748538 310.064890928 0.02470448278 287.747265958 0.02470448278 c 0
 284.70614939 0.02470448278 281.630724957 0.32125505651 278.556656452 0.938091170931 c 0
 255.997112905 5.46484168523 240.024671155 25.9337670371 240.024671155 48.2524888992 c 0
 240.024671155 51.2936463966 240.321229738 54.3691488638 240.938091171 57.4433435479 c 2
 301.932127567 361.413574487 l 2
 304.07338648 372.119869051 304.980588812 381.768075128 304.987210279 390.510413459 c 0
 304.987210279 435.116764718 286.437806979 440 280 440 c 0
 233.345465914 440 178.160697352 376.447888973 162.016959888 355.809894828 c 1
 99.0819665056 38.6571722715 l 2
 94.596718834 16.0543493593 74.1076302208 0.0241347296843 51.7500711949 0.0241347296843 c 0
 48.7414583441 0.0241347296843 45.6990101908 0.314418782287 42.6571722715 0.91803349438 c 0
 20.052806703 5.40358728689 4.02416753401 25.8937179757 4.02416753401 48.2501740034 c 0
 4.02416753401 51.2587451303 4.31444364728 54.3011151132 4.91803349438 57.3428277285 c 2
 131.918033494 697.342827728 l 2
 136.403587287 719.947193297 156.893717976 735.975832466 179.250174003 735.975832466 c 0
 182.25874513 735.975832466 185.301115113 735.685556353 188.342827728 735.081966506 c 0
EndSplineSet
EndChar

StartChar: i
Encoding: 105 105 73
Width: 230
VWidth: 0
Flags: HW
LayerCount: 2
Fore
SplineSet
42.733230073 0.90300460624 m 0
 20.097728946 5.35674904094 4.02373262119 25.8610204167 4.02373262119 48.2479828456 c 0
 4.02373262119 51.2319798896 4.30931427288 54.2494261151 4.90300460624 57.266769927 c 2
 89.9030046062 489.266769927 l 2
 94.3567490409 511.902271054 114.861020417 527.976267379 137.247982846 527.976267379 c 0
 140.23197989 527.976267379 143.249426115 527.690685727 146.266769927 527.096995394 c 0
 168.903817185 522.642946743 184.976234971 502.137626727 184.976234971 479.751771946 c 0
 184.976234971 476.767817213 184.690661204 473.750449249 184.096995394 470.733230073 c 2
 99.0969953938 38.733230073 l 2
 94.6429467434 16.0961828149 74.1376267273 0.0237650294691 51.7517719463 0.0237650294691 c 0
 48.7678172127 0.0237650294691 45.7504492487 0.309338796195 42.733230073 0.90300460624 c 0
162.210195803 609.008939853 m 0
 139.800636316 613.677598079 124.026563548 634.07616951 124.026563548 656.261207576 c 0
 124.026563548 659.414659784 124.345273768 662.604206993 125.008939853 665.789804197 c 2
 135.008939853 713.789804197 l 2
 139.677598079 736.199363684 160.07616951 751.973436452 182.261207576 751.973436452 c 0
 185.414659784 751.973436452 188.604206993 751.654726232 191.789804197 750.991060147 c 0
 214.200885754 746.322084823 229.97340132 725.922509722 229.97340132 703.738547844 c 0
 229.97340132 700.58513366 229.654699328 697.395663869 228.991060147 694.210195803 c 2
 218.991060147 646.210195803 l 2
 214.322084823 623.799114246 193.922509722 608.02659868 171.738547844 608.02659868 c 0
 168.58513366 608.02659868 165.395663869 608.345300672 162.210195803 609.008939853 c 0
EndSplineSet
EndChar

StartChar: j
Encoding: 106 106 74
Width: 230
VWidth: 0
Flags: HW
LayerCount: 2
Fore
SplineSet
146.34699106 527.081140153 m 0
 168.948023451 522.594170487 184.975843165 502.105914812 184.975843165 479.749964892 c 0
 184.975843165 476.740004351 184.685300579 473.696187382 184.081140153 470.65300894 c 2
 76.0745298375 -73.3802874648 l 2
 66.0437670484 -123.53410141 27.6606894509 -192 -51 -192 c 0
 -67.0964173989 -192 -75.7117177499 -188.328373093 -78.3129108385 -187.49900718 c 0
 -98.7671468762 -180.231912156 -110.994910526 -161.590880596 -110.994910526 -141.918918194 c 0
 -110.994910526 -137.096733644 -110.260160993 -132.212601876 -108.73172485 -127.418870338 c 0
 -102.332820934 -107.349580784 -83.5075671294 -94.0840962416 -62.8155451276 -94.0840962416 c 0
 -58.4052118398 -94.0840962416 -53.9100724014 -94.6867391846 -49.4323741835 -95.9545928659 c 0
 -39.3715061317 -95.2944373614 -23.859667437 -83.5454005324 -18.0678724332 -54.5864255134 c 2
 89.9188598468 489.34699106 l 2
 94.4061357376 511.949565917 114.89543313 527.975810339 137.250280305 527.975810339 c 0
 140.260199155 527.975810339 143.303937958 527.685275696 146.34699106 527.081140153 c 0
162.210195803 609.008939853 m 0
 139.800636316 613.677598079 124.026563548 634.07616951 124.026563548 656.261207576 c 0
 124.026563548 659.414659784 124.345273768 662.604206993 125.008939853 665.789804197 c 2
 135.008939853 713.789804197 l 2
 139.677598079 736.199363684 160.07616951 751.973436452 182.261207576 751.973436452 c 0
 185.414659784 751.973436452 188.604206993 751.654726232 191.789804197 750.991060147 c 0
 214.200885754 746.322084823 229.97340132 725.922509722 229.97340132 703.738547844 c 0
 229.97340132 700.58513366 229.654699328 697.395663869 228.991060147 694.210195803 c 2
 218.991060147 646.210195803 l 2
 214.322084823 623.799114246 193.922509722 608.02659868 171.738547844 608.02659868 c 0
 168.58513366 608.02659868 165.395663869 608.345300672 162.210195803 609.008939853 c 0
EndSplineSet
EndChar

StartChar: k
Encoding: 107 107 75
Width: 422
VWidth: 0
Flags: HW
AnchorPoint: "above" 294 784 basechar 0
LayerCount: 2
Fore
SplineSet
282.816489352 1.23459015369 m 0
 279.302152326 0.421750297252 275.773615985 0.0325990526966 272.286221174 0.0325990526966 c 0
 250.496874495 0.0325990526966 230.313605781 15.2242372001 225.234590154 37.1835106478 c 2
 177.270801422 244.556361927 l 1
 129.835603173 193.636128704 l 1
 99.0819665056 38.6571722715 l 2
 94.5964127131 16.052806703 74.1062820243 0.0241675340094 51.7498259966 0.0241675340094 c 0
 48.7412548697 0.0241675340094 45.6988848868 0.314443647282 42.6571722715 0.91803349438 c 0
 20.0543493593 5.40328116602 4.02413472968 25.8923697792 4.02413472968 48.2499288051 c 0
 4.02413472968 51.2585416559 4.31441878229 54.3009898092 4.91803349438 57.3428277285 c 2
 131.918033494 697.342827728 l 2
 136.403281166 719.945650641 156.892369779 735.97586527 179.249928805 735.97586527 c 0
 182.258541656 735.97586527 185.300989809 735.685581218 188.342827728 735.081966506 c 0
 210.947193297 730.596412713 226.975832466 710.106282024 226.975832466 687.749825997 c 0
 226.975832466 684.74125487 226.685556353 681.698884887 226.081966506 678.657172272 c 2
 165.348368057 372.598093473 l 1
 295.878276988 512.717954897 l 2
 305.210672879 522.735996201 318.125740697 527.807875008 331.059192148 527.807875008 c 0
 342.824636209 527.807875008 354.605293419 523.610704237 363.717954897 515.121723012 c 0
 373.735615332 505.789681923 378.807886903 492.874394077 378.807886903 479.940475139 c 0
 378.807886903 468.175456359 374.610997953 456.395021876 366.121723012 447.282045103 c 2
 256.20656635 329.291489175 l 1
 318.765409846 58.8164893522 l 2
 319.57828148 55.3020149341 319.967441391 51.7734042838 319.967441391 48.2859815303 c 0
 319.967441391 26.495616981 304.774289038 6.31326491092 282.816489352 1.23459015369 c 0
EndSplineSet
EndChar

StartChar: l
Encoding: 108 108 76
Width: 230
VWidth: 0
Flags: HW
AnchorPoint: "above" 198 784 basechar 0
LayerCount: 2
Fore
SplineSet
188.34699106 735.081140153 m 0
 210.948023451 730.594170487 226.975843165 710.105914812 226.975843165 687.749964892 c 0
 226.975843165 684.740004351 226.685300579 681.696187382 226.081140153 678.65300894 c 2
 118.060495326 134.549020182 l 2
 106.265404865 76.4808825284 106.030299657 49.8818996357 105.983533778 46.691541658 c 0
 105.072068292 20.5248709393 83.508632911 9.52373426344e-07 57.9990859878 9.52373426344e-07 c 0
 32.3716609811 9.52373426344e-07 10.8258416973 20.3121290824 9.99845375302 47.3152662699 c 0
 10.0083353071 52.0340883894 10.2866392182 86.23687296 23.9395046739 153.450979818 c 2
 131.918859847 697.34699106 l 2
 136.406135738 719.949565917 156.89543313 735.975810339 179.250280305 735.975810339 c 0
 182.260199155 735.975810339 185.303937958 735.685275696 188.34699106 735.081140153 c 0
EndSplineSet
EndChar

StartChar: m
Encoding: 109 109 77
Width: 691
VWidth: 0
Flags: HW
AnchorPoint: "above" 387 576 basechar 0
LayerCount: 2
Fore
SplineSet
42.733230073 0.90300460624 m 0
 20.097728946 5.35674904094 4.02373262119 25.8610204167 4.02373262119 48.2479828456 c 0
 4.02373262119 51.2319798896 4.30931427288 54.2494261151 4.90300460624 57.266769927 c 2
 89.9030046062 489.266769927 l 2
 94.3567490409 511.902271054 114.861020417 527.976267379 137.247982846 527.976267379 c 0
 140.23197989 527.976267379 143.249426115 527.690685727 146.266769927 527.096995394 c 0
 158.650059389 524.660468532 169.06889101 517.420617124 175.966839621 507.697191085 c 1
 203.124024388 524.261098433 235.573035055 536 273 536 c 0
 316.956126503 536 349.693903366 513.177933251 369.953351894 480.203898988 c 1
 402.831411305 509.637093132 447.929881324 536 504 536 c 0
 582.285472434 536 624.987130838 463.610013499 624.987130838 390.405690881 c 0
 624.975422955 374.930081039 623.356196642 359.028046555 620.067872433 342.586425513 c 2
 559.061908829 38.5566564521 l 2
 554.534849693 15.9955748538 534.064890928 0.02470448278 511.747265958 0.02470448278 c 0
 508.70614939 0.02470448278 505.630724957 0.32125505651 502.556656452 0.938091170931 c 0
 479.997112905 5.46484168523 464.024671155 25.9337670371 464.024671155 48.2524888992 c 0
 464.024671155 51.2936463966 464.321229738 54.3691488638 464.938091171 57.4433435479 c 2
 525.932127567 361.413574487 l 2
 528.07338648 372.119869051 528.980588812 381.768075128 528.987210279 390.510413459 c 0
 528.987210279 435.116764718 510.437806979 440 504 440 c 0
 456.581366871 440 404.120591183 373.549151303 391.311652209 355.425026197 c 0
 390.679155689 351.185132413 389.935021709 346.922171894 389.079788331 342.646005003 c 2
 329.091553357 38.705614469 l 2
 324.626055734 16.0804265118 304.126243365 0.0239107953375 281.751064527 0.0239107953375 c 0
 278.758172877 0.0239107953375 275.731727937 0.311187405623 272.705614469 0.908446642732 c 0
 250.081971382 5.37363935723 234.023878243 25.872405471 234.023878243 48.2486902649 c 0
 234.023878243 51.2416240141 234.311162758 54.2681471839 234.908446643 57.294385531 c 2
 294.920211669 361.353994997 l 2
 297.088819336 372.197033331 297.980559198 381.728976524 297.987210279 390.510413459 c 0
 297.987210279 435.116764718 279.437806979 440 273 440 c 0
 225.754943684 440 174.139073659 373.892128516 161.469829007 355.733984439 c 1
 99.0969953938 38.733230073 l 2
 94.6429467434 16.0961828149 74.1376267273 0.0237650294691 51.7517719463 0.0237650294691 c 0
 48.7678172127 0.0237650294691 45.7504492487 0.309338796195 42.733230073 0.90300460624 c 0
EndSplineSet
EndChar

StartChar: n
Encoding: 110 110 78
Width: 464
VWidth: 0
Flags: HW
AnchorPoint: "above" 273 576 basechar 0
LayerCount: 2
Fore
SplineSet
42.733230073 0.90300460624 m 0
 20.097728946 5.35674904094 4.02373262119 25.8610204167 4.02373262119 48.2479828456 c 0
 4.02373262119 51.2319798896 4.30931427288 54.2494261151 4.90300460624 57.266769927 c 2
 89.9030046062 489.266769927 l 2
 94.3567490409 511.902271054 114.861020417 527.976267379 137.247982846 527.976267379 c 0
 140.23197989 527.976267379 143.249426115 527.690685727 146.266769927 527.096995394 c 0
 159.22735431 524.546880411 170.036049862 516.735150634 176.908449565 506.321348012 c 1
 205.008856845 523.592704817 238.569564169 536 277 536 c 0
 355.285472434 536 397.987130838 463.610013499 397.987130838 390.405690881 c 0
 397.975422955 374.930081039 396.356196642 359.028046555 393.067872433 342.586425513 c 2
 332.061908829 38.5566564521 l 2
 327.534849693 15.9955748538 307.064890928 0.02470448278 284.747265958 0.02470448278 c 0
 281.70614939 0.02470448278 278.630724957 0.32125505651 275.556656452 0.938091170931 c 0
 252.997112905 5.46484168523 237.024671155 25.9337670371 237.024671155 48.2524888992 c 0
 237.024671155 51.2936463966 237.321229738 54.3691488638 237.938091171 57.4433435479 c 2
 298.932127567 361.413574487 l 2
 301.07338648 372.119869051 301.980588812 381.768075128 301.987210279 390.510413459 c 0
 301.987210279 435.116764718 283.437806979 440 277 440 c 0
 229.697705637 440 175.491094115 374.286529369 161.375859537 355.256398425 c 1
 99.0969953938 38.733230073 l 2
 94.6429467434 16.0961828149 74.1376267273 0.0237650294691 51.7517719463 0.0237650294691 c 0
 48.7678172127 0.0237650294691 45.7504492487 0.309338796195 42.733230073 0.90300460624 c 0
EndSplineSet
EndChar

StartChar: o
Encoding: 111 111 79
Width: 454
VWidth: 0
Flags: HW
HStem: 40 448<166.158 288.242>
VStem: 86 282<157.228 370.772>
AnchorPoint: "middle" 207 264 basechar 0
AnchorPoint: "above" 269 576 basechar 0
LayerCount: 2
Fore
SplineSet
394.053221193 254.513463469 m 0
 367.447365869 122.548421062 279.225094056 -8 162 -8 c 0
 153.210437178 -8 144.493976841 -7.16220304366 136.001633916 -5.48423495986 c 0
 48.0146220537 11.9007669171 11.0097738229 99.8660070903 11.0097738229 195.251422987 c 0
 11.0097738229 221.204545544 13.7492902392 247.706993235 18.9467788069 273.486536531 c 0
 45.5526341309 405.451578938 133.774905944 536 251 536 c 0
 259.789562822 536 268.506023159 535.162203044 276.998366084 533.48423496 c 0
 364.985377946 516.099233083 401.990226177 428.13399291 401.990226177 332.748577013 c 0
 401.990226177 306.795454456 399.250709761 280.293006765 394.053221193 254.513463469 c 0
299.946778807 273.486536531 m 0
 304.368356487 295.417561826 306.249882088 315.048868411 306.249882088 332.455576639 c 0
 306.249882088 401.688751712 276.484920214 435.729694865 258.38987216 439.305023061 c 0
 256.15224903 439.747146069 253.730437178 440 251 440 c 0
 212.225094056 440 136.447365869 370.548421062 113.053221193 254.513463469 c 0
 108.631643513 232.582438174 106.750117912 212.951131589 106.750117912 195.544423361 c 0
 106.750117912 126.311248288 136.515079786 92.2703051348 154.61012784 88.6949769389 c 0
 156.84775097 88.2528539312 159.269562822 88 162 88 c 0
 200.774905944 88 276.552634131 157.451578938 299.946778807 273.486536531 c 0
EndSplineSet
EndChar

StartChar: p
Encoding: 112 112 80
Width: 470
VWidth: 0
Flags: HW
AnchorPoint: "above" 277 576 basechar 0
LayerCount: 2
Fore
SplineSet
94.8165613648 21.4506084053 m 1
 60.0794440102 -153.35553054 l 2
 55.5889431322 -175.952889797 35.1023965095 -191.975797793 12.7497469239 -191.975797793 c 0
 9.73702203178 -191.975797793 6.69039738667 -191.68472456 3.64446945952 -191.07944401 c 0
 -18.9544318723 -186.588636694 -34.975764923 -166.101049092 -34.975764923 -143.74950173 c 0
 -34.975764923 -140.736818462 -34.6846996376 -137.690271972 -34.0794440102 -134.64446946 c 2
 89.9205559898 489.35553054 l 2
 94.4113633058 511.954431872 114.898950908 527.975764923 137.25049827 527.975764923 c 0
 140.263181538 527.975764923 143.309728028 527.684699638 146.35553054 527.07944401 c 0
 158.787203941 524.609047373 169.229105348 517.29741265 176.108061399 507.497183266 c 1
 203.531391939 525.339569496 234.041977032 536 267 536 c 1
 275.789562822 536 284.506023159 535.162203044 292.998366084 533.48423496 c 0
 380.985377946 516.099233083 417.990226177 428.13399291 417.990226177 332.748577013 c 0
 417.990226177 306.795454456 415.250709761 280.293006765 410.053221193 254.513463469 c 0
 383.447365869 122.548421062 295.225094056 -8 178 -8 c 0
 144.551558351 -8 116.908702837 3.16663938898 94.8165613648 21.4506084053 c 1
124.171353325 169.171496977 m 1
 131.844055781 105.612552003 159.029145801 88 178 88 c 0
 216.774905944 88 292.552634131 157.451578938 315.946778807 273.486536531 c 0
 320.368356487 295.417561826 322.249882088 315.048868411 322.249882088 332.455576639 c 0
 322.249882088 401.688751712 292.484920214 435.729694865 274.38987216 439.305023061 c 0
 272.15224903 439.747146069 269.730437178 440 267 440 c 0
 240.884219826 440 192.921787396 408.664261246 158.403619982 341.437096933 c 1
 124.171353325 169.171496977 l 1
EndSplineSet
EndChar

StartChar: q
Encoding: 113 113 81
Width: 470
VWidth: 0
Flags: HW
AnchorPoint: "above" 277 576 basechar 0
LayerCount: 2
Fore
SplineSet
243.637871402 -191.078132377 m 0
 221.043350727 -186.584903834 205.024237291 -166.099678269 205.024237291 -143.749578575 c 0
 205.024237291 -140.734717725 205.315720869 -137.685923649 205.921867623 -134.637871402 c 2
 234.679738979 9.97313884581 l 1
 212.162139834 -1.45059236242 187.832848113 -8 162 -8 c 1
 57.4175078074 -8 10.8866588003 97.0336120211 10.8866588003 195.575703222 c 0
 10.8866588003 220.708597449 13.5312185148 246.625357482 18.9467788069 273.486536531 c 0
 45.5519580242 405.448225449 133.77439963 536 251 536 c 0
 287.850808808 536 317.653615115 522.448923316 340.750619943 500.759585441 c 1
 349.354600042 518.112043088 366.431792629 527.985740683 384.123569313 527.985740683 c 0
 390.109381778 527.985740683 396.165547569 526.855468246 401.987696769 524.502165845 c 0
 420.362279476 517.075191996 431.903017615 499.13706238 431.903017615 479.85249162 c 0
 431.903017615 474.271360727 430.936392556 468.577455094 428.889046267 462.992929488 c 0
 427.856946805 460.372984701 416.889189053 432.7825893 405.058959227 374.541457848 c 2
 300.078132377 -153.362128598 l 2
 295.584597231 -175.958191046 275.098331255 -191.975729804 252.749333384 -191.975729804 c 0
 249.734514107 -191.975729804 246.685798177 -191.684254179 243.637871402 -191.078132377 c 0
269.301042473 184.068836416 m 1
 304.528742363 361.213841579 l 1
 296.470732138 422.825105651 259.703866077 427.189234394 251 440 c 1
 212.22560037 440 136.448041976 370.551774551 113.053221193 254.513463469 c 0
 108.816200945 233.497843038 106.886439118 213.824214364 106.886439118 195.384544068 c 0
 106.886439118 113.286814312 140.655242358 88 162 88 c 0
 187.790827698 88 234.887190342 118.559883373 269.301042473 184.068836416 c 1
EndSplineSet
EndChar

StartChar: r
Encoding: 114 114 82
Width: 339
VWidth: 0
Flags: HW
AnchorPoint: "above" 211 576 basechar 0
LayerCount: 2
Fore
SplineSet
333 480 m 0
 333 453.855528292 311.146366075 432 285 432 c 0
 264.159435555 432 195.367162071 360.279782134 141.309976458 253.274498542 c 1
 99.0969953938 38.733230073 l 2
 94.6432509591 16.097728946 74.1389795833 0.0237326211939 51.7520171544 0.0237326211939 c 0
 48.7680201104 0.0237326211939 45.7505738849 0.309314272879 42.733230073 0.90300460624 c 0
 20.0961828149 5.35705325655 4.02376502947 25.8623732727 4.02376502947 48.2482280537 c 0
 4.02376502947 51.2321827873 4.30933879619 54.2495507513 4.90300460624 57.266769927 c 2
 89.9030046062 489.266769927 l 2
 94.3570532566 511.903817185 114.862373273 527.976234971 137.248228054 527.976234971 c 0
 140.232182787 527.976234971 143.249550751 527.690661204 146.266769927 527.096995394 c 0
 166.819543823 523.053046826 181.962730685 505.776352867 184.575424149 485.87273981 c 1
 214.290942537 511.536923452 247.648027304 528 285 528 c 0
 311.146366075 528 333 506.144471708 333 480 c 0
EndSplineSet
EndChar

StartChar: s
Encoding: 115 115 83
Width: 396
VWidth: 0
Flags: HW
AnchorPoint: "bottom" 133 40 basechar 0
LayerCount: 2
Fore
SplineSet
336.750929664 388.251848297 m 0
 330.450491109 385.407396271 323.925366809 384.087227608 317.51880633 384.087227608 c 0
 299.130346736 384.087227608 281.718658741 394.963254143 273.400288309 411.888771287 c 0
 271.595159696 415.325426556 257.769682973 440 222 440 c 0
 185.80970855 440 150.422671535 407.95101969 144.074949236 378.608310493 c 0
 143.671374473 376.437596584 143.354374155 374.379322165 143.09785466 372.228506268 c 0
 142.413385173 366.489496611 141.823309469 361.189541669 141.823309469 356.354430383 c 0
 141.823309469 339.284452481 149.177937319 328.00822627 185.698542253 323.660535207 c 0
 191.97056223 322.910619775 198.032491895 321.983001989 203.901861701 320.869022638 c 0
 293.666931825 303.832025842 319.425834897 240.842923884 319.425834897 185.530281667 c 0
 319.425834897 173.354166518 318.17760078 161.550039994 316.089126191 150.689972131 c 0
 299.623140234 69.6266566525 233.756650132 -8 133 -8 c 0
 29.1062286684 -8 -9.11919729684 93.0911468209 -9.34528040521 93.6121335703 c 0
 -11.7567500304 99.7079336112 -12.8913780632 105.92404211 -12.8913780632 111.988261616 c 0
 -12.8913780632 130.897176046 -1.85981946508 148.329331336 15.8919201652 156.032729702 c 0
 21.848420599 158.617563452 28.1285504122 159.820133513 34.3513571052 159.820133513 c 0
 52.6062370565 159.820133513 70.3678124091 149.47119683 78.018878886 133.309716638 c 0
 82.9415934677 122.6778894 104.527374679 88 133 88 c 0
 178.092968507 88 211.941821143 121.52173831 221.909137711 169.299927112 c 0
 224.190630506 181.362803793 226.084003924 190.682165346 226.084003924 198.062240368 c 0
 226.084003924 213.890860695 217.374351051 220.798624551 185.10401248 226.72015622 c 0
 181.789064614 227.328441402 178.190185965 227.874508159 174.301457747 228.339464793 c 0
 76.7327436798 239.954787897 46.7779262728 311.593928838 46.7779262728 366.524986487 c 0
 46.7779262728 372.441618006 47.12544627 378.164411152 47.7734276231 383.597482036 c 0
 48.3543001752 388.4678718 48.9331754524 392.179871042 49.9214889756 397.368517039 c 0
 65.8337771372 474.036814545 137.999193307 536 222 536 c 0
 321.205044936 536 357.957963487 457.931214324 361.071162438 451.035503475 c 0
 363.497720246 445.154845677 364.678809413 438.870189498 364.678809413 432.591520146 c 0
 364.678809413 414.483433087 354.854713178 396.425143418 336.750929664 388.251848297 c 0
EndSplineSet
EndChar

StartChar: t
Encoding: 116 116 84
Width: 275
VWidth: 0
Flags: HW
AnchorPoint: "bottom" 74 48 basechar 0
AnchorPoint: "above" 211 736 basechar 0
LayerCount: 2
Fore
SplineSet
41 480 m 0
 41 506.144471708 62.8536339246 528 89 528 c 2
 120.731438536 528 l 1
 144.926020822 649.382989093 l 2
 149.42817608 671.9700731 169.91026042 687.97561861 192.251198482 687.97561861 c 0
 195.272771419 687.97561861 198.328346678 687.682843714 201.382989093 687.073979178 c 0
 223.968532282 682.572131043 239.975651623 662.091085316 239.975651623 639.7490467 c 0
 239.975651623 636.727432354 239.68286876 633.671778977 239.073979178 630.617010907 c 2
 218.619912815 528 l 1
 230 528 l 2
 256.144471708 528 278 506.146366075 278 480 c 0
 278 453.853633925 256.144471708 432 230 432 c 2
 199.48477768 432 l 1
 121.073979178 38.617010907 l 2
 116.572131043 16.031467718 96.0910853155 0.0243483765527 73.7490466999 0.0243483765527 c 0
 70.7274323537 0.0243483765527 67.6717789768 0.317131240208 64.617010907 0.926020821678 c 0
 42.0299268998 5.42817607988 26.02438139 25.9102604196 26.02438139 48.2511984819 c 0
 26.02438139 51.2727714191 26.3171562862 54.3283466779 26.9260208217 57.382989093 c 2
 101.596303401 432 l 1
 89 432 l 2
 62.8536339246 432 41 453.855528292 41 480 c 0
EndSplineSet
EndChar

StartChar: u
Encoding: 117 117 85
Width: 464
VWidth: 0
Flags: HW
AnchorPoint: "above" 273 576 basechar 0
LayerCount: 2
Fore
SplineSet
380.371658151 527.076236293 m 0
 402.962078268 522.579069325 418.975711993 502.095752609 418.975711993 479.749335531 c 0
 418.975711993 476.731389609 418.683635236 473.679462123 418.076236293 470.628341849 c 2
 332.076236293 38.6283418491 l 2
 327.579069325 16.0379217315 307.095752609 0.0242880070445 284.749335531 0.0242880070445 c 0
 281.731389609 0.0242880070445 278.679462123 0.316364763655 275.628341849 0.923763707124 c 0
 262.891167823 3.45940483271 252.245493056 11.0766646192 245.381635767 21.2440644336 c 1
 217.426479934 4.19954510998 184.107334398 -8 146 -8 c 1
 67.714527566 -8 25.0128691616 64.3899865006 25.0128691616 137.594309119 c 0
 25.0128691616 153.02839936 26.6599604335 169.05273882 29.9202116689 185.353994997 c 2
 89.9084466427 489.294385531 l 2
 94.3739442659 511.919573488 114.873756635 527.976089205 137.248935473 527.976089205 c 0
 140.241827123 527.976089205 143.268272063 527.688812594 146.294385531 527.091553357 c 0
 168.918028618 522.626360643 184.976121757 502.127594529 184.976121757 479.751309735 c 0
 184.976121757 476.758375986 184.688837242 473.731852816 184.091553357 470.705614469 c 2
 124.079788331 166.646005003 l 2
 121.911598052 155.805053607 121.012789721 146.269459894 121.012789721 137.489586541 c 0
 121.012789721 92.8832352824 139.562193021 88 146 88 c 0
 192.252478813 88 245.106210142 150.828981256 260.625601461 171.408796637 c 1
 323.923763707 489.371658151 l 2
 328.421237515 511.963619606 348.905593821 527.975679038 371.250909656 527.975679038 c 0
 374.26881408 527.975679038 377.320663433 527.683610241 380.371658151 527.076236293 c 0
EndSplineSet
EndChar

StartChar: v
Encoding: 118 118 86
Width: 396
VWidth: 0
Flags: HW
AnchorPoint: "above" 240 576 basechar 0
LayerCount: 2
Fore
SplineSet
96.4480587214 527.932114451 m 0
 97.2809115332 527.976456151 98.1105881838 527.998357511 98.9364888787 527.998357511 c 0
 124.000155726 527.998357511 145.586376221 507.828415853 146.932114451 482.551941279 c 2
 162.151968019 196.68338729 l 1
 298.212608391 499.663782343 l 2
 306.131064693 517.296633492 323.985989919 527.897398202 342.395430258 527.897398202 c 0
 348.8863572 527.897398202 355.446220075 526.579537628 361.663782343 523.787391609 c 0
 379.297650623 515.86847854 389.897326935 498.013293917 389.897326935 479.604529943 c 0
 389.897326935 473.113473639 388.579452308 466.553589933 385.787391609 460.336217657 c 2
 191.787391609 28.3362176569 l 2
 185.186166974 13.6365834179 167.624647423 0 148 0 c 2
 122 0 l 2
 98.9711598422 0 75.4653366122 19.2002822373 74.0678855493 45.4480587214 c 2
 51.0678855493 477.448058721 l 2
 49.6778024061 503.557446455 70.3405626765 526.542132022 96.4480587214 527.932114451 c 0
EndSplineSet
EndChar

StartChar: w
Encoding: 119 119 87
Width: 556
VWidth: 0
Flags: HW
AnchorPoint: "above" 320 576 basechar 0
LayerCount: 2
Fore
SplineSet
98.9897591512 527.999952909 m 0
 124.942681281 527.999952909 146.757198258 506.444805589 146.997942519 480.444425394 c 2
 149.176651706 245.143833214 l 1
 241.962796402 459.097766866 l 2
 249.80506652 477.181119138 269.239892289 488 286 488 c 2
 299 488 l 2
 325.067749762 488 346.036990004 466.084692656 346.964896937 441.835391464 c 2
 354.541528965 243.832741141 l 1
 457.511671268 498.021892426 l 2
 465.0025098 516.513562402 483.350950766 527.912087242 502.392837309 527.912087242 c 0
 508.303709283 527.912087242 514.281399575 526.813759864 520.021892426 524.488328732 c 0
 538.514667503 516.997042532 549.912018452 498.648235488 549.912018452 479.607069876 c 0
 549.912018452 473.696104931 548.813686474 467.718419258 546.488328732 461.978107574 c 2
 371.488328732 29.9781075738 l 2
 364.72570283 13.2840824885 346.843694689 0 327 0 c 2
 314 0 l 2
 289.732951981 0 267.031864009 20.1159224791 266.035103063 46.1646085356 c 2
 258.047670747 254.902839736 l 1
 160.037203598 28.9022331336 l 2
 153.368857145 13.525810725 135.710627336 0 116 0 c 2
 103 0 l 2
 79.7671628519 0 55.2560099566 20.1287072259 55.0020574809 47.5555746063 c 2
 51.0020574809 479.555574606 l 2
 50.7591839645 505.785914379 72.5436162563 527.999952909 98.9897591512 527.999952909 c 0
EndSplineSet
EndChar

StartChar: x
Encoding: 120 120 88
Width: 396
VWidth: 0
Flags: HW
AnchorPoint: "above" 240 576 basechar 0
LayerCount: 2
Fore
SplineSet
350.984760398 518.998117717 m 0
 363.910782864 509.722499744 370.828301104 494.797916733 370.828301104 479.747380568 c 0
 370.828301104 470.065341184 367.965573277 460.331177673 361.998117717 452.015239602 c 2
 234.213800884 273.941610984 l 1
 301.723726864 62.606190526 l 2
 303.227341719 57.8992222826 303.940725565 53.1006509467 303.940725565 48.359525102 c 0
 303.940725565 28.0152833315 290.805324996 8.72877442508 270.606190526 2.27627313615 c 0
 265.899059742 0.772606357844 261.100441132 0.0592162885601 256.359341454 0.0592162885601 c 0
 236.014260622 0.0592162885601 216.728363947 13.1959599784 210.276273136 33.393809474 c 2
 164.478203039 176.761681083 l 1
 51.9981177166 20.0152396015 l 2
 42.7224997438 7.08921713612 27.7979167326 0.171698895906 12.7473805682 0.171698895906 c 0
 3.06534118396 0.171698895906 -6.66882232689 3.03442672275 -14.9847603985 9.00188228339 c 0
 -27.9113699601 18.2779215521 -34.8282513931 33.2023723948 -34.8282513931 48.252377058 c 0
 -34.8282513931 57.9347431908 -31.9653916963 67.6690753688 -25.9981177166 75.9847603985 c 2
 128.080841973 290.701246159 l 1
 72.2762731362 465.393809474 l 2
 70.7726063578 470.100940258 70.0592162886 474.899558868 70.0592162886 479.640658546 c 0
 70.0592162886 499.985739378 83.1959599784 519.271636053 103.393809474 525.723726864 c 0
 108.100777717 527.227341719 112.899349053 527.940725565 117.640474898 527.940725565 c 0
 137.984716668 527.940725565 157.271225575 514.805324996 163.723726864 494.606190526 c 2
 197.816439818 387.88117606 l 1
 284.001882283 507.984760398 l 2
 293.277921552 520.91136996 308.202372395 527.828251393 323.252377058 527.828251393 c 0
 332.934743191 527.828251393 342.669075369 524.965391696 350.984760398 518.998117717 c 0
EndSplineSet
EndChar

StartChar: y
Encoding: 121 121 89
Width: 396
VWidth: 0
Flags: HW
AnchorPoint: "above" 240 576 basechar 0
LayerCount: 2
Fore
SplineSet
94.906855462 527.825162496 m 0
 96.2431838597 527.939532945 97.5731704475 527.995638188 98.8942500925 527.995638188 c 0
 123.325166147 527.995638188 144.709940076 508.80784861 146.825162496 484.093144538 c 2
 169.479996233 219.389297719 l 1
 298.380911622 500.034348732 l 2
 306.389605095 517.470997812 324.129553935 527.893976534 342.394720131 527.893976534 c 0
 349.018544655 527.893976534 355.711442359 526.523213979 362.034348732 523.619088378 c 0
 379.470000564 515.610852943 389.894048086 497.871140588 389.894048086 479.605307126 c 0
 389.894048086 472.981620456 388.523302185 466.288749685 385.619088378 459.965651268 c 2
 148.627106927 -56.0168906242 l 2
 127.806417485 -101.443849407 83.9484731207 -194 -6 -194 c 0
 -22.9807657555 -194 -33.6857352921 -191.280708136 -36.9951178082 -190.483799972 c 0
 -59.1187363197 -184.384036337 -72.9988815946 -164.91281373 -72.9988815946 -143.953544382 c 0
 -72.9988815946 -140.247880682 -72.5649974894 -136.495701631 -71.6660768181 -132.762683843 c 0
 -66.4615018889 -111.149240735 -47.0246011845 -96.0909450778 -24.7938886139 -96.0909450778 c 0
 -21.4590301693 -96.0909450778 -18.0613014731 -96.4298078511 -14.6393162473 -97.1362380184 c 0
 -13.162079925 -97.4327442336 -10.4779614046 -98 -6 -98 c 0
 6.04893272617 -98 38.200597497 -66.5408451779 61.3648885011 -16.0005738963 c 2
 88.2628953645 42.5621794054 l 1
 51.1748375038 475.906855462 l 2
 48.9452363477 501.957984759 68.8576136327 525.59572288 94.906855462 527.825162496 c 0
EndSplineSet
EndChar

StartChar: z
Encoding: 122 122 90
Width: 403
VWidth: 0
Flags: HW
AnchorPoint: "above" 243 576 basechar 0
LayerCount: 2
Fore
SplineSet
301 48 m 0
 301 21.8555282921 279.146366075 0 253 0 c 2
 23 0 l 2
 -3.35484790829 0 -24.9966637886 22.1344177733 -24.9966637886 48.0898351674 c 0
 -24.9966637886 59.0400367206 -21.4691347468 68.3606334403 -15.9981177166 75.9847603985 c 2
 239.475781072 432 l 1
 115 432 l 2
 88.8555282921 432 67 453.853633925 67 480 c 0
 67 506.146366075 88.8555282921 528 115 528 c 2
 333 528 l 2
 339.710458707 528 350.33660633 525.610400794 357.838818495 521.073508442 c 0
 372.679202005 512.098925886 380.813115965 495.97853205 380.813115965 479.674312713 c 0
 380.813115965 470.039984646 377.97295851 460.341469353 371.998117717 452.015239602 c 2
 116.524218928 96 l 1
 253 96 l 2
 279.146366075 96 301 74.1444717079 301 48 c 0
EndSplineSet
EndChar

StartChar: braceleft
Encoding: 123 123 91
Width: 345
VWidth: 0
Flags: HW
LayerCount: 2
Fore
SplineSet
69.8661121766 351.661941059 m 0
 67.7740970549 357.441132833 66.8983904228 363.408536185 67.1021461423 369.27189547 c 0
 67.2098533525 375.13780646 68.4010238233 381.050326484 70.7968005531 386.710348972 c 0
 73.437904216 392.949956376 77.3183785196 398.35216176 82.0375538985 402.754536588 c 0
 86.6852974609 407.236103826 92.2879456845 410.826559153 98.6619410594 413.133887823 c 0
 264.148936727 473.038682635 68.1500188298 713.039074347 344.661941059 813.133887823 c 0
 349.898926824 815.029629277 355.290464689 815.926585037 360.619081442 815.926585037 c 0
 380.303965062 815.926585037 399.130165179 803.685842746 406.133887823 784.338058941 c 0
 408.029691611 779.100900976 408.926649407 773.709335543 408.926649407 768.38077708 c 0
 408.926649407 748.695118899 396.684648197 729.869402405 377.338058941 722.866112177 c 0
 230.775393241 669.811753552 367.748961363 475.499233556 208.9132166 362.217727868 c 1
 232.52138424 335.956157023 240.959620793 306.411285881 240.959620793 275.827413673 c 0
 240.959620793 199.15312396 187.924168328 115.948572703 187.924168328 61.5770475687 c 0
 187.924168328 39.6642810549 196.538422271 22.4347028126 220.710348972 12.2031994469 c 0
 238.844897998 4.52719985902 249.905969234 -13.6176790717 249.905969234 -32.3950681998 c 0
 249.905969234 -38.5475933154 248.718469375 -44.7680237681 246.203199447 -50.7103489722 c 0
 238.526747684 -68.8459662618 220.381548408 -79.9058991712 201.604860648 -79.9058991712 c 0
 195.452227571 -79.9058991712 189.231791402 -78.7183911397 183.289651028 -76.2031994469 c 0
 100.624912046 -41.2128337401 76.0346172458 7.96357548162 76.0346172458 60.1666396525 c 0
 76.0346172458 136.841051939 129.083061956 220.044842545 129.083061956 274.418701573 c 0
 129.083061956 296.332166559 120.466888164 313.563049385 96.2896510278 323.796800553 c 0
 90.0470345837 326.439177884 84.642790731 330.321959748 80.2394169415 335.043930273 c 0
 75.7605888958 339.690528876 72.1723296768 345.291019037 69.8661121766 351.661941059 c 0
EndSplineSet
EndChar

StartChar: bar
Encoding: 124 124 92
Width: 230
VWidth: 0
Flags: HW
LayerCount: 2
Fore
SplineSet
204.35698216 815.079155524 m 0
 226.953716948 810.588054485 242.975790077 790.101798463 242.975790077 767.749709881 c 0
 242.975790077 764.736515068 242.68462659 761.689413138 242.079155524 758.64301784 c 2
 83.079155524 -41.3569821604 l 2
 78.588054485 -63.9537169478 58.1017984631 -79.9757900767 35.7497098811 -79.9757900767 c 0
 32.7365150684 -79.9757900767 29.6894131382 -79.6846265896 26.6430178396 -79.079155524 c 0
 4.04474104347 -74.5877480107 -11.9757571987 -54.100451134 -11.9757571987 -31.7494646878 c 0
 -11.9757571987 -28.7363114883 -11.6846016608 -25.6892877105 -11.079155524 -22.6430178396 c 2
 147.920844476 777.35698216 l 2
 152.412251989 799.955258957 172.899548866 815.975757199 195.250535312 815.975757199 c 0
 198.263688512 815.975757199 201.310712289 815.684601661 204.35698216 815.079155524 c 0
EndSplineSet
EndChar

StartChar: braceright
Encoding: 125 125 93
Width: 345
VWidth: 0
Flags: HW
LayerCount: 2
Fore
SplineSet
275.133887823 384.338058941 m 0
 277.225902945 378.558867167 278.101609577 372.591463815 277.897853858 366.72810453 c 0
 277.790146647 360.86219354 276.598976177 354.949673516 274.203199447 349.289651028 c 0
 271.562095784 343.050043624 267.68162148 337.64783824 262.962446101 333.245463412 c 0
 258.314702539 328.763896174 252.712054315 325.173440847 246.338058941 322.866112177 c 0
 80.8510632733 262.961317365 276.84998117 22.9609256534 0.338058940591 -77.1338878234 c 0
 -4.89892682429 -79.0296292767 -10.2904646893 -79.9265850373 -15.6190814425 -79.9265850373 c 0
 -35.3039650622 -79.9265850373 -54.130165179 -67.6858427458 -61.1338878234 -48.3380589406 c 0
 -63.0296916115 -43.100900976 -63.9266494067 -37.7093355433 -63.9266494067 -32.3807770803 c 0
 -63.9266494067 -12.6951188989 -51.6846481972 6.13059759476 -32.3380589406 13.1338878234 c 0
 114.231787093 66.1908456636 -22.7623831414 260.519806131 136.110130363 373.798921062 c 1
 112.657407799 399.936437902 104.25485435 429.324274187 104.25485435 459.750770366 c 0
 104.25485435 536.668652858 157.953339821 620.224334631 157.953339821 674.686878701 c 0
 157.953339821 696.476426436 149.358008531 713.609136002 125.289651028 723.796800553 c 0
 107.155102002 731.472800141 96.0940307655 749.617679072 96.0940307655 768.3950682 c 0
 96.0940307655 774.547593315 97.2815306255 780.768023768 99.7968005531 786.710348972 c 0
 107.473252316 804.845966262 125.618451592 815.905899171 144.395139352 815.905899171 c 0
 150.547772429 815.905899171 156.768208598 814.71839114 162.710348972 812.203199447 c 0
 245.162049646 777.303008685 269.750923808 728.29820177 269.750923808 676.255063141 c 0
 269.750923808 599.337108024 216.039440791 515.782277172 216.039440791 461.317408356 c 0
 216.039440791 439.527137733 224.63668905 422.393108409 248.710348972 412.203199447 c 0
 254.952965416 409.560822116 260.357209269 405.678040252 264.760583059 400.956069727 c 0
 269.239411104 396.309471124 272.827670323 390.708980963 275.133887823 384.338058941 c 0
EndSplineSet
EndChar

StartChar: asciitilde
Encoding: 126 126 94
Width: 518
VWidth: 0
Flags: HW
LayerCount: 2
Fore
SplineSet
31.6931983818 172.988138789 m 0
 14.9439420565 181.285224099 5.11746649857 198.618591848 5.11746649857 216.388308012 c 0
 5.11746649857 223.473481019 6.67967039019 230.628024289 9.98813878938 237.306801618 c 0
 53.2091051118 324.556602792 97.8193737335 350.861239065 141.057944472 350.861239065 c 0
 206.725237741 350.861239065 269.228694454 290.189300383 318.896681967 290.189300383 c 0
 340.212835815 290.189300383 359.16483266 301.364426628 374.988138789 333.306801618 c 0
 383.285224099 350.056057944 400.618591848 359.882533501 418.388308012 359.882533501 c 0
 425.473481019 359.882533501 432.628024289 358.32032961 439.306801618 355.011861211 c 0
 456.056987026 346.714315661 465.882461796 329.380786623 465.882461796 311.611708934 c 0
 465.882461796 304.526368315 464.320230841 297.371776326 461.011861211 290.693198382 c 0
 417.791191221 203.443995413 373.180650642 177.139650577 329.941641187 177.139650577 c 0
 264.274380121 177.139650577 201.770503684 237.809626381 152.102742403 237.809626381 c 0
 130.786614082 237.809626381 111.834777617 226.634786642 96.0118612106 194.693198382 c 0
 87.7143156613 177.943012974 70.3807866227 168.117538204 52.6117089344 168.117538204 c 0
 45.526368315 168.117538204 38.3717763263 169.679769159 31.6931983818 172.988138789 c 0
EndSplineSet
EndChar

StartChar: tildecomb
Encoding: 771 771 95
Width: 0
VWidth: 0
Flags: HW
AnchorPoint: "above" 72 728 mark 0
LayerCount: 2
Fore
SplineSet
-41.6025733364 779.34409992 m 0
 -60.9066593588 786.953432378 -71.710228765 805.775839387 -71.710228765 824.698536298 c 0
 -71.710228765 830.17100337 -70.8066468835 835.651858422 -68.9437768269 840.872305167 c 1
 -68.9437768269 840.872305167 -39.6429802668 936 52 936 c 0
 66.478672825 936 81.0079568248 932.851811137 93.4991578368 926.604322754 c 0
 129.597162059 908.549864919 140.460080796 876.62508546 143.643845579 872.110088464 c 1
 153.528744578 873.631625915 171.550360839 899.18991424 175.244324048 907.734504699 c 0
 183.087259531 925.220390822 200.950266725 935.902370925 219.411085713 935.902370925 c 0
 225.384687818 935.902370925 231.420884272 934.783905871 237.200439664 932.415582807 c 0
 255.421238341 924.949136888 266.891771554 907.268335218 266.891771554 887.972717478 c 0
 266.891771554 882.224639176 265.87385639 876.333259274 263.713242149 870.525913225 c 1
 263.713242149 870.525913225 234.47233161 776 142 776 c 0
 127.521327175 776 112.992043175 779.148188863 100.500842163 785.395677246 c 0
 64.6592771802 803.321876705 54.4713932392 834.053961908 50.357055288 839.888633987 c 1
 41.6557368636 838.534154955 24.1147957132 814.685083007 20.0020858038 804.820976935 c 0
 12.8913482636 788.379971204 -5.37647580589 776.168670301 -24.8504647055 776.168670301 c 0
 -30.413395571 776.168670301 -36.074751148 777.165129274 -41.6025733364 779.34409992 c 0
EndSplineSet
EndChar

StartChar: dotlessi
Encoding: 305 305 96
Width: 230
VWidth: 0
Flags: HW
AnchorPoint: "above" 157 576 basechar 0
LayerCount: 2
Fore
SplineSet
42.733230073 0.90300460624 m 0
 20.097728946 5.35674904094 4.02373262119 25.8610204167 4.02373262119 48.2479828456 c 0
 4.02373262119 51.2319798896 4.30931427288 54.2494261151 4.90300460624 57.266769927 c 2
 89.9030046062 489.266769927 l 2
 94.3567490409 511.902271054 114.861020417 527.976267379 137.247982846 527.976267379 c 0
 140.23197989 527.976267379 143.249426115 527.690685727 146.266769927 527.096995394 c 0
 168.903817185 522.642946743 184.976234971 502.137626727 184.976234971 479.751771946 c 0
 184.976234971 476.767817213 184.690661204 473.750449249 184.096995394 470.733230073 c 2
 99.0969953938 38.733230073 l 2
 94.6429467434 16.0961828149 74.1376267273 0.0237650294691 51.7517719463 0.0237650294691 c 0
 48.7678172127 0.0237650294691 45.7504492487 0.309338796195 42.733230073 0.90300460624 c 0
EndSplineSet
EndChar

StartChar: uni0237
Encoding: 567 567 97
Width: 230
VWidth: 0
Flags: HW
AnchorPoint: "above" 157 576 basechar 0
LayerCount: 2
Fore
SplineSet
146.34699106 527.081140153 m 0
 168.948023451 522.594170487 184.975843165 502.105914812 184.975843165 479.749964892 c 0
 184.975843165 476.740004351 184.685300579 473.696187382 184.081140153 470.65300894 c 2
 76.0745298375 -73.3802874648 l 2
 66.0437670484 -123.53410141 27.6606894509 -192 -51 -192 c 0
 -67.0964173989 -192 -75.7117177499 -188.328373093 -78.3129108385 -187.49900718 c 0
 -98.7671468762 -180.231912156 -110.994910526 -161.590880596 -110.994910526 -141.918918194 c 0
 -110.994910526 -137.096733644 -110.260160993 -132.212601876 -108.73172485 -127.418870338 c 0
 -102.332820934 -107.349580784 -83.5075671294 -94.0840962416 -62.8155451276 -94.0840962416 c 0
 -58.4052118398 -94.0840962416 -53.9100724014 -94.6867391846 -49.4323741835 -95.9545928659 c 0
 -39.3715061317 -95.2944373614 -23.859667437 -83.5454005324 -18.0678724332 -54.5864255134 c 2
 89.9188598468 489.34699106 l 2
 94.4061357376 511.949565917 114.89543313 527.975810339 137.250280305 527.975810339 c 0
 140.260199155 527.975810339 143.303937958 527.685275696 146.34699106 527.081140153 c 0
EndSplineSet
EndChar

StartChar: gravecomb
Encoding: 768 768 98
Width: 0
VWidth: 0
Flags: HW
AnchorPoint: "above" 70 720 mark 0
LayerCount: 2
Fore
SplineSet
-8.1178555793 939.817141745 m 0
 1.14523932129 952.843368949 16.1361296489 959.829397047 31.2581136757 959.829397047 c 0
 40.8706673889 959.829397047 50.536192548 957.006530564 58.8171417453 951.117855579 c 2
 193.817141745 855.117855579 l 2
 206.843368949 845.854760679 213.829397047 830.863870351 213.829397047 815.741886324 c 0
 213.829397047 806.129332611 211.006530564 796.463807452 205.117855579 788.182858255 c 0
 195.854337495 775.156035948 180.863574281 768.170653694 165.742123919 768.170653694 c 0
 156.129247282 768.170653694 146.4635562 770.993648104 138.182858255 776.882144421 c 2
 3.18285825472 872.882144421 l 2
 -9.84396405167 882.145662505 -16.8293463062 897.136425719 -16.8293463062 912.257876081 c 0
 -16.8293463062 921.870752718 -14.0063518956 931.5364438 -8.1178555793 939.817141745 c 0
EndSplineSet
EndChar

StartChar: acutecomb
Encoding: 769 769 99
Width: 0
VWidth: 0
Flags: HW
AnchorPoint: "above" 70 720 mark 0
LayerCount: 2
Fore
SplineSet
-29.9709879178 792.709740809 m 0
 -33.9716233116 799.919219175 -35.8648033416 807.81031592 -35.8648033416 815.634000759 c 0
 -35.8648033416 832.618520209 -26.9425254152 849.285337297 -11.2902591914 857.970987918 c 2
 161.709740809 953.970987918 l 2
 168.919219175 957.971623312 176.81031592 959.864803342 184.634000759 959.864803342 c 0
 201.618520209 959.864803342 218.285337297 950.942525415 226.970987918 935.290259191 c 0
 230.971741041 928.080568667 232.864872604 920.189556464 232.864872604 912.366086823 c 0
 232.864872604 895.380967113 223.941701572 878.714205542 208.290259191 870.029012082 c 2
 35.2902591914 774.029012082 l 2
 28.0805686671 770.028258959 20.1895564636 768.135127396 12.3660868233 768.135127396 c 0
 -4.61903288722 768.135127396 -21.2857944581 777.058298428 -29.9709879178 792.709740809 c 0
EndSplineSet
EndChar

StartChar: uni0302
Encoding: 770 770 100
Width: 0
VWidth: 0
Flags: HW
AnchorPoint: "above" 73 736 mark 0
LayerCount: 2
Fore
SplineSet
-35.1807225616 802.909925667 m 0
 -41.6845464827 811.446194564 -44.8215699905 821.63915916 -44.8215699905 831.786395021 c 0
 -44.8215699905 846.359954796 -38.3508358579 860.839189971 -26.0900743326 870.180722562 c 2
 78.9099256674 950.180722562 l 2
 87.442977122 956.682095098 97.5798562191 959.707017289 107.616569112 959.707017289 c 0
 121.022036058 959.707017289 134.248812241 954.31072956 143.2367731 944.594015118 c 2
 217.2367731 864.594015118 l 2
 225.651839584 855.496645946 229.808093861 843.772551453 229.808093861 832.065044765 c 0
 229.808093861 819.073324602 224.690019455 806.102030912 214.594015118 796.7632269 c 0
 205.496332565 788.347870538 193.772460216 784.191893073 182.065376492 784.191893073 c 0
 169.073186933 784.191893073 156.101674128 789.310366257 146.7632269 799.405984882 c 2
 102.387783718 847.37943697 l 1
 32.0900743326 793.819277438 l 2
 23.553539896 787.315251201 13.3607610655 784.178387671 3.21387668316 784.178387671 c 0
 -11.3602004422 784.178387671 -25.8395978714 790.649699511 -35.1807225616 802.909925667 c 0
EndSplineSet
EndChar

StartChar: uni0308
Encoding: 776 776 101
Width: 0
VWidth: 0
Flags: HW
AnchorPoint: "above" 70 720 mark 0
LayerCount: 2
Fore
SplineSet
2.21019580262 769.008939853 m 0
 -20.1993636837 773.677598079 -35.9734364518 794.07616951 -35.9734364518 816.261207576 c 0
 -35.9734364518 819.414659784 -35.6547262316 822.604206993 -34.9910601474 825.789804197 c 2
 -24.9910601474 873.789804197 l 2
 -20.3224019211 896.199363684 0.0761695096267 911.973436452 22.2612075759 911.973436452 c 0
 25.4146597839 911.973436452 28.604206993 911.654726232 31.7898041974 910.991060147 c 0
 54.2008857545 906.322084823 69.9734013197 885.922509722 69.9734013197 863.738547844 c 0
 69.9734013197 860.58513366 69.6546993279 857.395663869 68.9910601474 854.210195803 c 2
 58.9910601474 806.210195803 l 2
 54.322084823 783.799114246 33.922509722 768.02659868 11.738547844 768.02659868 c 0
 8.5851336599 768.02659868 5.39566386898 768.345300672 2.21019580262 769.008939853 c 0
157.154150318 768.822135027 m 0
 134.338897218 773.099994983 118.02156673 793.687131332 118.02156673 816.237082721 c 0
 118.02156673 819.084997791 118.281829446 821.964219917 118.822135027 824.845849682 c 2
 127.822135027 872.845849682 l 2
 132.099994983 895.661102782 152.687131332 911.97843327 175.237082721 911.97843327 c 0
 178.084997791 911.97843327 180.964219917 911.718170554 183.845849682 911.177864973 c 0
 206.662667992 906.89971154 222.97840305 886.311490067 222.97840305 863.762672526 c 0
 222.97840305 860.914802782 222.718147893 858.035659226 222.177864973 855.154150318 c 2
 213.177864973 807.154150318 l 2
 208.89971154 784.337332008 188.311490067 768.02159695 165.762672526 768.02159695 c 0
 162.914802782 768.02159695 160.035659226 768.281852107 157.154150318 768.822135027 c 0
EndSplineSet
EndChar

StartChar: uni030A
Encoding: 778 778 102
Width: 0
VWidth: 0
Flags: HW
HStem: 816 160<-44.1492 44.1492>
VStem: -64 128<840.814 951.186>
AnchorPoint: "above" 70 720 mark 0
LayerCount: 2
Fore
SplineSet
216.02631675 886.380980665 m 0
 203.846368209 826.834565579 155.850211686 768 89 768 c 0
 82.632993497 768 76.2765481404 768.618617313 70.0680986089 769.864722848 c 0
 15.9117502469 780.734510085 -8.7976992588 829.920766764 -8.7976992588 877.98297441 c 0
 -8.7976992588 887.334379405 -7.86227340018 896.643231265 -6.02631674956 905.619019335 c 0
 6.1536317908 965.165434421 54.1497883138 1024 121 1024 c 0
 127.367006503 1024 133.72345186 1023.38138269 139.931901391 1022.13527715 c 0
 194.088249753 1011.26548991 218.797699259 962.079233236 218.797699259 914.01702559 c 0
 218.797699259 904.665620595 217.8622734 895.356768735 216.02631675 886.380980665 c 0
121.97368325 905.619019335 m 0
 124.549425499 918.211536992 121.620998874 925.810266164 120.254494512 927.937505292 c 0
 114.703466177 927.103830921 93.2538718908 911.937916911 88.0263167496 886.380980665 c 0
 85.4505745015 873.788463008 88.379001126 866.189733836 89.7455054884 864.062494708 c 0
 95.2965338231 864.896169079 116.746128109 880.062083089 121.97368325 905.619019335 c 0
EndSplineSet
EndChar

StartChar: uni0327
Encoding: 807 807 103
Width: 0
VWidth: 0
Flags: HW
AnchorPoint: "bottom" -65 40 mark 0
LayerCount: 2
Fore
SplineSet
-212 -200 m 0
 -212 -173.855528292 -190.146366075 -152 -164 -152 c 0
 -104.160855291 -152 -98.9870787424 -140.591085059 -95.9910601474 -126.210195803 c 0
 -95.8930892021 -125.739935265 -95.7328536444 -124.86427253 -95.7319390974 -124.85912075 c 0
 -102.599215374 -122.449887627 -117.941592043 -120 -139 -120 c 0
 -165.354847908 -120 -186.996663789 -97.8655822267 -186.996663789 -71.9101648326 c 0
 -186.996663789 -61.9557225314 -182.18611923 -50.2890927432 -179.048095392 -45.539651259 c 2
 -105.048095392 66.460348741 l 2
 -95.9106060286 80.2900623716 -80.3943972837 87.8389569589 -64.7012489244 87.8389569589 c 0
 -55.6419928111 87.8389569589 -46.5237722832 85.3233182113 -38.539651259 80.0480953917 c 0
 -24.7092763056 70.9101690832 -17.1611012322 55.3940418917 -17.1611012322 39.7014451741 c 0
 -17.1611012322 30.6418976935 -19.6768388719 21.5235345356 -24.9519046083 13.539651259 c 2
 -58.0215699881 -36.5117341807 l 1
 -41.1954787601 -43.5439739674 -23.2868239539 -55.3450886214 -11.7244636311 -74.6255101559 c 0
 -2.88687071085 -89.3623382859 0.582555974052 -105.56322136 0.582555974052 -121.406948018 c 0
 0.582555974052 -129.720615673 -0.372718890357 -137.935943579 -2.00893985259 -145.789804197 c 0
 -19.0129212576 -227.408914941 -95.8391447086 -248 -164 -248 c 0
 -190.146366075 -248 -212 -226.144471708 -212 -200 c 0
EndSplineSet
EndChar

StartChar: dieresis
Encoding: 168 168 104
Width: 384
VWidth: 0
Flags: HW
AnchorPoint: "above" 227 544 mark 0
LayerCount: 2
Fore
SplineSet
159.210195803 593.008939853 m 0
 136.800636316 597.677598079 121.026563548 618.07616951 121.026563548 640.261207576 c 0
 121.026563548 643.414659784 121.345273768 646.604206993 122.008939853 649.789804197 c 2
 132.008939853 697.789804197 l 2
 136.677598079 720.199363684 157.07616951 735.973436452 179.261207576 735.973436452 c 0
 182.414659784 735.973436452 185.604206993 735.654726232 188.789804197 734.991060147 c 0
 211.200885754 730.322084823 226.97340132 709.922509722 226.97340132 687.738547844 c 0
 226.97340132 684.58513366 226.654699328 681.395663869 225.991060147 678.210195803 c 2
 215.991060147 630.210195803 l 2
 211.322084823 607.799114246 190.922509722 592.02659868 168.738547844 592.02659868 c 0
 165.58513366 592.02659868 162.395663869 592.345300672 159.210195803 593.008939853 c 0
314.154150318 592.822135027 m 0
 291.338897218 597.099994983 275.02156673 617.687131332 275.02156673 640.237082721 c 0
 275.02156673 643.084997791 275.281829446 645.964219917 275.822135027 648.845849682 c 2
 284.822135027 696.845849682 l 2
 289.099994983 719.661102782 309.687131332 735.97843327 332.237082721 735.97843327 c 0
 335.084997791 735.97843327 337.964219917 735.718170554 340.845849682 735.177864973 c 0
 363.662667992 730.89971154 379.97840305 710.311490067 379.97840305 687.762672526 c 0
 379.97840305 684.914802782 379.718147893 682.035659226 379.177864973 679.154150318 c 2
 370.177864973 631.154150318 l 2
 365.89971154 608.337332008 345.311490067 592.02159695 322.762672526 592.02159695 c 0
 319.914802782 592.02159695 317.035659226 592.281852107 314.154150318 592.822135027 c 0
EndSplineSet
EndChar

StartChar: cedilla
Encoding: 184 184 106
Width: 256
VWidth: 0
Flags: HW
AnchorPoint: "bottom" 63 40 mark 0
LayerCount: 2
Fore
SplineSet
-84 -200 m 0
 -84 -173.855528292 -62.1463660754 -152 -36 -152 c 0
 23.8391447086 -152 29.0129212576 -140.591085059 32.0089398526 -126.210195803 c 0
 32.1069107979 -125.739935265 32.2671463556 -124.86427253 32.2680609026 -124.85912075 c 0
 25.4007846261 -122.449887627 10.0584079575 -120 -11 -120 c 0
 -37.3548479083 -120 -58.9966637886 -97.8655822267 -58.9966637886 -71.9101648326 c 0
 -58.9966637886 -61.9557225314 -54.1861192295 -50.2890927432 -51.0480953917 -45.539651259 c 2
 22.9519046083 66.460348741 l 2
 32.0893939714 80.2900623716 47.6056027163 87.8389569589 63.2987510756 87.8389569589 c 0
 72.3580071889 87.8389569589 81.4762277168 85.3233182113 89.460348741 80.0480953917 c 0
 103.290723694 70.9101690832 110.838898768 55.3940418917 110.838898768 39.7014451741 c 0
 110.838898768 30.6418976935 108.323161128 21.5235345356 103.048095392 13.539651259 c 2
 69.9784300119 -36.5117341807 l 1
 86.8045212399 -43.5439739674 104.713176046 -55.3450886214 116.275536369 -74.6255101559 c 0
 125.113129289 -89.3623382859 128.582555974 -105.56322136 128.582555974 -121.406948018 c 0
 128.582555974 -129.720615673 127.62728111 -137.935943579 125.991060147 -145.789804197 c 0
 108.987078742 -227.408914941 32.1608552914 -248 -36 -248 c 0
 -62.1463660754 -248 -84 -226.144471708 -84 -200 c 0
EndSplineSet
EndChar

StartChar: minus
Encoding: 8722 8722 161
Width: 512
VWidth: 0
Flags: HW
LayerCount: 2
Fore
SplineSet
35 368 m 0
 35 394.144471708 56.8536339246 416 83 416 c 2
 429 416 l 2
 455.144471708 416 477 394.146366075 477 368 c 0
 477 341.853633925 455.144471708 320 429 320 c 2
 83 320 l 2
 56.8536339246 320 35 341.855528292 35 368 c 0
EndSplineSet
EndChar

StartChar: degree
Encoding: 176 176 164
Width: 384
VWidth: 32
Flags: HW
HStem: 432 256<134.76 249.24>
VStem: 90 205<488.45 631.55>
AnchorPoint: "above" 186 336 mark 0
LayerCount: 2
Fore
SplineSet
380.093210543 550.714014822 m 0
 362.977692815 463.913889201 293.495475702 384 205 384 c 0
 196.791499538 384 188.659114427 384.7608864 180.731990962 386.291976216 c 0
 110.816413121 399.79586949 77.0941123875 463.603559894 77.0941123875 530.341617422 c 0
 77.0941123875 543.328469418 78.37107404 556.426285565 80.9067894566 569.285985178 c 0
 98.0223071849 656.086110799 167.504524298 736 256 736 c 0
 264.208500462 736 272.340885573 735.2391136 280.268009038 733.708023784 c 0
 350.183586879 720.20413051 383.905887612 656.396440106 383.905887612 589.658382578 c 0
 383.905887612 576.671530582 382.62892596 563.573714435 380.093210543 550.714014822 c 0
285.906789457 569.285985178 m 0
 287.63894747 578.070500819 288.391907507 585.864183808 288.391907507 592.756350083 c 0
 288.391907507 625.060747548 271.850070995 637.55965553 262.062493228 639.450084097 c 0
 260.296921949 639.791096599 258.306062645 640 256 640 c 0
 230.495475702 640 185.977692815 605.913889201 175.093210543 550.714014822 c 0
 173.36105253 541.929499181 172.608092493 534.135816192 172.608092493 527.243649917 c 0
 172.608092493 494.939252452 189.149929005 482.44034447 198.937506772 480.549915903 c 0
 200.703078051 480.208903401 202.693937355 480 205 480 c 0
 230.504524298 480 275.022307185 514.086110799 285.906789457 569.285985178 c 0
EndSplineSet
EndChar

StartChar: uni00B2
Encoding: 178 178 165
Width: 422
VWidth: 516
Flags: HW
LayerCount: 2
Fore
SplineSet
181.586425513 846.932127567 m 0
 159.014053221 851.446602025 143.024511692 871.921510629 143.024511692 894.25173209 c 0
 143.024511692 897.283249497 143.319204871 900.348961007 143.932127567 903.413574487 c 0
 164.315126169 1005.3285675 244.866915975 1062 331 1062 c 0
 341.121865819 1062 351.069527294 1061.10881323 360.735075093 1059.2977787 c 0
 432.991396417 1045.75910553 473.577681519 984.088422329 473.577681519 914.371137174 c 0
 473.577681519 902.680954243 472.436536124 890.764528807 470.112209012 878.810846519 c 0
 457.973641196 816.769277681 420.180468985 779.079506299 357.179170835 737.767179643 c 0
 249.286521428 668.10420916 210.787462028 645.108987943 185.379974104 576 c 1
 368 576 l 2
 394.144471708 576 416 554.146366075 416 528 c 0
 416 501.853633925 394.144471708 480 368 480 c 2
 123 480 l 2
 103.807369714 480 75.0044479112 499.008356091 75.0044479112 528.224521188 c 0
 75.0044479112 531.124184562 75.2881648668 534.124397752 75.8931525667 537.216557107 c 0
 106.040856417 691.304821231 180.717370715 738.103028287 304.820829165 818.232820357 c 0
 363.826308831 856.924938171 370.021072866 867.203705303 375.893152567 897.216557107 c 0
 377.431500259 905.128059524 378.143226451 912.214334481 378.143226451 918.545035143 c 0
 378.143226451 948.223407566 362.501324795 961.296210386 343.05521792 964.939829113 c 0
 339.500390061 965.605897516 335.496316 966 331 966 c 0
 287.133084025 966 249.684873831 942.671432502 238.067872433 884.586425513 c 0
 233.553090091 862.012513804 213.077145511 846.024544865 190.748022746 846.024544865 c 0
 187.716546506 846.024544865 184.650913072 846.319230055 181.586425513 846.932127567 c 0
EndSplineSet
EndChar

StartChar: uni00B3
Encoding: 179 179 166
Width: 422
VWidth: 516
Flags: HW
LayerCount: 2
Fore
SplineSet
127.686634432 653.878934402 m 0
 131.040054954 654.616686917 134.402215784 654.970412805 137.725706557 654.970412805 c 0
 159.708176178 654.970412805 179.998885547 639.495405817 184.878934402 617.313365568 c 0
 191.604853075 586.741007964 211.500960972 570 241 570 c 0
 285.860133029 570 344.64965821 617.704407474 356.867745596 681.085735789 c 0
 358.913447026 691.697811957 359.857704008 701.705756483 359.860741314 710.945104293 c 0
 359.860741314 758.575404535 341.711419551 777 307 777 c 0
 301.563245271 777 278.26578397 770.701995711 263.494646371 764.137045666 c 0
 257.325717171 761.395299355 250.826338184 760.101146248 244.395645807 760.101146248 c 0
 238.578730686 760.101146248 232.818016309 761.160047942 227.408913433 763.164286504 c 0
 216.018369561 767.3736343 206.171940391 775.77755525 200.651494965 787.386724878 c 0
 200.563077176 787.572662287 200.475997566 787.758941505 200.390251627 787.945550896 c 0
 200.304735992 788.131361717 200.220330425 788.31796413 200.137045666 788.505353629 c 0
 197.395215312 794.674471927 196.101075131 801.173832863 196.101075131 807.604399762 c 0
 196.101075131 813.421435192 197.160051376 819.182177453 199.164343998 824.591253978 c 0
 203.373520986 835.981448833 211.777090689 845.82783862 223.386724878 851.348505035 c 0
 285.346943989 880.812105731 325.003420122 924.338854189 349.102331457 960 c 1
 207 960 l 2
 180.855528292 960 159 981.853633925 159 1008 c 0
 159 1034.14636608 180.855528292 1056 207 1056 c 2
 427 1056 l 2
 428.655244495 1056 434.060070236 1055.59679751 437.342615464 1054.87248986 c 0
 459.671543774 1049.94551628 474.945791879 1029.51230268 474.945791879 1007.63507293 c 0
 474.945791879 1003.11427759 474.293555711 998.531820328 472.916553564 994.01178679 c 0
 471.910146131 990.708236858 450.675518833 920.45908316 385.174969376 851.733472204 c 1
 431.83480898 822.522832258 455.860722727 767.174900382 455.860722727 710.888597278 c 0
 455.855539307 695.11280289 454.251352177 679.09458391 451.132254404 662.914264211 c 0
 431.35034179 560.295592526 342.139866971 474 241 474 c 0
 164.499039028 474 106.395146925 527.258992036 91.1210655982 596.686634432 c 0
 90.3832837264 600.040188394 90.0295493445 603.402425294 90.0295493445 606.72594922 c 0
 90.0295493445 628.70946473 105.506091793 648.999215021 127.686634432 653.878934402 c 0
EndSplineSet
EndChar

StartChar: uni00B9
Encoding: 185 185 167
Width: 230
VWidth: 492
Flags: HW
LayerCount: 2
Fore
SplineSet
252.413574487 1055.06787243 m 0
 274.985946779 1050.55339797 290.975488308 1030.07848937 290.975488308 1007.74826791 c 0
 290.975488308 1004.7167505 290.680795129 1001.65103899 290.067872433 998.586425513 c 2
 194.067872433 518.586425513 l 2
 189.553397975 496.014053221 169.078489371 480.024511692 146.74826791 480.024511692 c 0
 143.716750503 480.024511692 140.651038993 480.319204871 137.586425513 480.932127567 c 0
 115.012513804 485.446909909 99.024544865 505.922854489 99.024544865 528.251977254 c 0
 99.024544865 531.283453494 99.3192300552 534.349086928 99.9321275668 537.413574487 c 2
 195.932127567 1017.41357449 l 2
 200.446909909 1039.9874862 220.922854489 1055.97545514 243.251977254 1055.97545514 c 0
 246.283453494 1055.97545514 249.349086928 1055.68076994 252.413574487 1055.06787243 c 0
EndSplineSet
EndChar

StartChar: minute
Encoding: 8242 8242 168
Width: 204
VWidth: 0
Flags: HW
LayerCount: 2
Fore
SplineSet
193.716878681 733.688220384 m 0
 213.861187116 727.199428725 226.939911506 707.942005445 226.939911506 687.63903462 c 0
 226.939911506 682.860701946 226.21547726 678.024456098 224.688220384 673.283121319 c 2
 157.688220384 465.283121319 l 2
 151.199428725 445.138812884 131.942005445 432.060088494 111.63903462 432.060088494 c 0
 106.860701946 432.060088494 102.024456098 432.78452274 97.2831213186 434.311779616 c 0
 77.1375336275 440.800983343 64.0601470825 460.059010419 64.0601470825 480.361146606 c 0
 64.0601470825 485.139507378 64.7845753031 489.975707084 66.3117796158 494.716878681 c 2
 133.311779616 702.716878681 l 2
 139.800983343 722.862466373 159.059010419 735.939852917 179.361146606 735.939852917 c 0
 184.139507378 735.939852917 188.975707084 735.215424697 193.716878681 733.688220384 c 0
EndSplineSet
EndChar

StartChar: second
Encoding: 8243 8243 169
Width: 332
VWidth: 0
Flags: HW
LayerCount: 2
Fore
SplineSet
321.716878681 733.688220384 m 0
 341.861187116 727.199428725 354.939911506 707.942005445 354.939911506 687.63903462 c 0
 354.939911506 682.860701946 354.21547726 678.024456098 352.688220384 673.283121319 c 2
 285.688220384 465.283121319 l 2
 279.199428725 445.138812884 259.942005445 432.060088494 239.63903462 432.060088494 c 0
 234.860701946 432.060088494 230.024456098 432.78452274 225.283121319 434.311779616 c 0
 205.137533627 440.800983343 192.060147083 460.059010419 192.060147083 480.361146606 c 0
 192.060147083 485.139507378 192.784575303 489.975707084 194.311779616 494.716878681 c 2
 261.311779616 702.716878681 l 2
 267.800983343 722.862466373 287.059010419 735.939852917 307.361146606 735.939852917 c 0
 312.139507378 735.939852917 316.975707084 735.215424697 321.716878681 733.688220384 c 0
193.716878681 733.688220384 m 0
 213.861187116 727.199428725 226.939911506 707.942005445 226.939911506 687.63903462 c 0
 226.939911506 682.860701946 226.21547726 678.024456098 224.688220384 673.283121319 c 2
 157.688220384 465.283121319 l 2
 151.199428725 445.138812884 131.942005445 432.060088494 111.63903462 432.060088494 c 0
 106.860701946 432.060088494 102.024456098 432.78452274 97.2831213186 434.311779616 c 0
 77.1375336275 440.800983343 64.0601470825 460.059010419 64.0601470825 480.361146606 c 0
 64.0601470825 485.139507378 64.7845753031 489.975707084 66.3117796158 494.716878681 c 2
 133.311779616 702.716878681 l 2
 139.800983343 722.862466373 159.059010419 735.939852917 179.361146606 735.939852917 c 0
 184.139507378 735.939852917 188.975707084 735.215424697 193.716878681 733.688220384 c 0
EndSplineSet
EndChar

StartChar: uni2034
Encoding: 8244 8244 170
Width: 460
VWidth: 0
Flags: HW
LayerCount: 2
Fore
SplineSet
449.716878681 733.688220384 m 0
 469.861187116 727.199428725 482.939911506 707.942005445 482.939911506 687.63903462 c 0
 482.939911506 682.860701946 482.21547726 678.024456098 480.688220384 673.283121319 c 2
 413.688220384 465.283121319 l 2
 407.199428725 445.138812884 387.942005445 432.060088494 367.63903462 432.060088494 c 0
 362.860701946 432.060088494 358.024456098 432.78452274 353.283121319 434.311779616 c 0
 333.137533627 440.800983343 320.060147083 460.059010419 320.060147083 480.361146606 c 0
 320.060147083 485.139507378 320.784575303 489.975707084 322.311779616 494.716878681 c 2
 389.311779616 702.716878681 l 2
 395.800983343 722.862466373 415.059010419 735.939852917 435.361146606 735.939852917 c 0
 440.139507378 735.939852917 444.975707084 735.215424697 449.716878681 733.688220384 c 0
321.716878681 733.688220384 m 0
 341.861187116 727.199428725 354.939911506 707.942005445 354.939911506 687.63903462 c 0
 354.939911506 682.860701946 354.21547726 678.024456098 352.688220384 673.283121319 c 2
 285.688220384 465.283121319 l 2
 279.199428725 445.138812884 259.942005445 432.060088494 239.63903462 432.060088494 c 0
 234.860701946 432.060088494 230.024456098 432.78452274 225.283121319 434.311779616 c 0
 205.137533627 440.800983343 192.060147083 460.059010419 192.060147083 480.361146606 c 0
 192.060147083 485.139507378 192.784575303 489.975707084 194.311779616 494.716878681 c 2
 261.311779616 702.716878681 l 2
 267.800983343 722.862466373 287.059010419 735.939852917 307.361146606 735.939852917 c 0
 312.139507378 735.939852917 316.975707084 735.215424697 321.716878681 733.688220384 c 0
193.716878681 733.688220384 m 0
 213.861187116 727.199428725 226.939911506 707.942005445 226.939911506 687.63903462 c 0
 226.939911506 682.860701946 226.21547726 678.024456098 224.688220384 673.283121319 c 2
 157.688220384 465.283121319 l 2
 151.199428725 445.138812884 131.942005445 432.060088494 111.63903462 432.060088494 c 0
 106.860701946 432.060088494 102.024456098 432.78452274 97.2831213186 434.311779616 c 0
 77.1375336275 440.800983343 64.0601470825 460.059010419 64.0601470825 480.361146606 c 0
 64.0601470825 485.139507378 64.7845753031 489.975707084 66.3117796158 494.716878681 c 2
 133.311779616 702.716878681 l 2
 139.800983343 722.862466373 159.059010419 735.939852917 179.361146606 735.939852917 c 0
 184.139507378 735.939852917 188.975707084 735.215424697 193.716878681 733.688220384 c 0
EndSplineSet
EndChar

StartChar: uni00AD
Encoding: 173 173 171
Width: 332
VWidth: 32
Flags: HW
LayerCount: 2
Fore
SplineSet
-5 264 m 0
 -5 290.144471708 16.8536339246 312 43 312 c 2
 248 312 l 2
 274.144471708 312 296 290.146366075 296 264 c 0
 296 237.853633925 274.144471708 216 248 216 c 2
 43 216 l 2
 16.8536339246 216 -5 237.855528292 -5 264 c 0
EndSplineSet
EndChar

StartChar: endash
Encoding: 8211 8211 173
Width: 409
VWidth: 0
Flags: HW
LayerCount: 2
Fore
SplineSet
-30 264 m 0
 -30 290.144471708 -8.14636607536 312 18 312 c 2
 351 312 l 2
 377.144471708 312 399 290.146366075 399 264 c 0
 399 237.853633925 377.144471708 216 351 216 c 2
 18 216 l 2
 -8.14636607536 216 -30 237.855528292 -30 264 c 0
EndSplineSet
EndChar

StartChar: emdash
Encoding: 8212 8212 174
Width: 819
VWidth: 0
Flags: HW
LayerCount: 2
Fore
SplineSet
-30 264 m 0
 -30 290.144471708 -8.14636607536 312 18 312 c 2
 760 312 l 2
 786.144471708 312 808 290.146366075 808 264 c 0
 808 237.853633925 786.144471708 216 760 216 c 2
 18 216 l 2
 -8.14636607536 216 -30 237.855528292 -30 264 c 0
EndSplineSet
EndChar

StartChar: figuredash
Encoding: 8210 8210 190
Width: 537
VWidth: 0
Flags: HW
LayerCount: 2
Fore
SplineSet
-10 368 m 0
 -10 394.144471708 11.8536339246 416 38 416 c 2
 499 416 l 2
 525.144471708 416 547 394.146366075 547 368 c 0
 547 341.853633925 525.144471708 320 499 320 c 2
 38 320 l 2
 11.8536339246 320 -10 341.855528292 -10 368 c 0
EndSplineSet
EndChar

StartChar: uni2057
Encoding: 8279 8279 191
Width: 588
VWidth: 0
Flags: HW
LayerCount: 2
Fore
SplineSet
577.716878681 733.688220384 m 0
 597.861187116 727.199428725 610.939911506 707.942005445 610.939911506 687.63903462 c 0
 610.939911506 682.860701946 610.21547726 678.024456098 608.688220384 673.283121319 c 2
 541.688220384 465.283121319 l 2
 535.199428725 445.138812884 515.942005445 432.060088494 495.63903462 432.060088494 c 0
 490.860701946 432.060088494 486.024456098 432.78452274 481.283121319 434.311779616 c 0
 461.137533627 440.800983343 448.060147083 460.059010419 448.060147083 480.361146606 c 0
 448.060147083 485.139507378 448.784575303 489.975707084 450.311779616 494.716878681 c 2
 517.311779616 702.716878681 l 2
 523.800983343 722.862466373 543.059010419 735.939852917 563.361146606 735.939852917 c 0
 568.139507378 735.939852917 572.975707084 735.215424697 577.716878681 733.688220384 c 0
449.716878681 733.688220384 m 0
 469.861187116 727.199428725 482.939911506 707.942005445 482.939911506 687.63903462 c 0
 482.939911506 682.860701946 482.21547726 678.024456098 480.688220384 673.283121319 c 2
 413.688220384 465.283121319 l 2
 407.199428725 445.138812884 387.942005445 432.060088494 367.63903462 432.060088494 c 0
 362.860701946 432.060088494 358.024456098 432.78452274 353.283121319 434.311779616 c 0
 333.137533627 440.800983343 320.060147083 460.059010419 320.060147083 480.361146606 c 0
 320.060147083 485.139507378 320.784575303 489.975707084 322.311779616 494.716878681 c 2
 389.311779616 702.716878681 l 2
 395.800983343 722.862466373 415.059010419 735.939852917 435.361146606 735.939852917 c 0
 440.139507378 735.939852917 444.975707084 735.215424697 449.716878681 733.688220384 c 0
321.716878681 733.688220384 m 0
 341.861187116 727.199428725 354.939911506 707.942005445 354.939911506 687.63903462 c 0
 354.939911506 682.860701946 354.21547726 678.024456098 352.688220384 673.283121319 c 2
 285.688220384 465.283121319 l 2
 279.199428725 445.138812884 259.942005445 432.060088494 239.63903462 432.060088494 c 0
 234.860701946 432.060088494 230.024456098 432.78452274 225.283121319 434.311779616 c 0
 205.137533627 440.800983343 192.060147083 460.059010419 192.060147083 480.361146606 c 0
 192.060147083 485.139507378 192.784575303 489.975707084 194.311779616 494.716878681 c 2
 261.311779616 702.716878681 l 2
 267.800983343 722.862466373 287.059010419 735.939852917 307.361146606 735.939852917 c 0
 312.139507378 735.939852917 316.975707084 735.215424697 321.716878681 733.688220384 c 0
193.716878681 733.688220384 m 0
 213.861187116 727.199428725 226.939911506 707.942005445 226.939911506 687.63903462 c 0
 226.939911506 682.860701946 226.21547726 678.024456098 224.688220384 673.283121319 c 2
 157.688220384 465.283121319 l 2
 151.199428725 445.138812884 131.942005445 432.060088494 111.63903462 432.060088494 c 0
 106.860701946 432.060088494 102.024456098 432.78452274 97.2831213186 434.311779616 c 0
 77.1375336275 440.800983343 64.0601470825 460.059010419 64.0601470825 480.361146606 c 0
 64.0601470825 485.139507378 64.7845753031 489.975707084 66.3117796158 494.716878681 c 2
 133.311779616 702.716878681 l 2
 139.800983343 722.862466373 159.059010419 735.939852917 179.361146606 735.939852917 c 0
 184.139507378 735.939852917 188.975707084 735.215424697 193.716878681 733.688220384 c 0
EndSplineSet
EndChar

StartChar: copyright
Encoding: 169 169 192
Width: 588
VWidth: 0
Flags: HW
HStem: 48 640<200.562 388.238>
VStem: 38 512<250.702 485.298>
LayerCount: 2
Fore
SplineSet
597.088225459 358.688768977 m 0
 558.973856966 165.938962598 403.692024021 0 231 0 c 0
 214.80205165 0 198.964250315 1.53839790858 183.659200252 4.56339207246 c 0
 55.1583847263 29.9611670176 -17.5257861309 150.972107113 -17.5257861309 292.574589408 c 0
 -17.5257861309 320.221316036 -14.7551114003 348.652979261 -9.08822545858 377.311231023 c 0
 29.0645424172 570.255228566 185.432919137 736 358 736 c 0
 373.86044238 736 389.371279728 734.525199745 404.371248449 731.621560784 c 0
 533.288917783 706.666150914 605.578876044 585.538568208 605.578876044 443.944581022 c 0
 605.578876044 416.124644616 602.788256593 387.514640712 597.088225459 358.688768977 c 0
502.911774541 377.311231023 m 0
 507.774969283 401.905101575 510.034395523 425.135008808 510.034395523 446.839551509 c 0
 510.034395523 554.062668677 454.893508799 624.059541691 386.126606492 637.371186568 c 0
 377.280970874 639.083492286 367.925549838 640 358 640 c 0
 248.567080863 640 116.935457583 519.744771434 85.0882254586 358.688768977 c 0
 80.2723444772 334.334170871 78.0345131821 311.307642951 78.0345131821 289.770282257 c 0
 78.0345131821 182.638455851 133.405134654 112.353068646 202.273204843 98.741514973 c 0
 211.30833519 96.9557503753 220.863318 96 231 96 c 0
 340.307975979 96 471.026143034 216.061037402 502.911774541 377.311231023 c 0
363.891151391 331.346908344 m 0
 387.107176763 327.477570782 403.982966875 306.709811448 403.982966875 283.78836297 c 0
 403.982966875 281.248284339 403.775726523 278.681757685 403.346908344 276.108848609 c 0
 398.309615904 245.885093971 353.506783182 156 262 156 c 0
 255.349676244 156 248.709750142 156.61999063 242.216737283 157.864729559 c 0
 169.328404799 171.837741302 141.934535414 243.465999774 141.934535414 316.839458346 c 0
 141.934535414 337.26442748 144.057282322 357.824631913 147.912330952 377.314044427 c 0
 167.357809741 475.621742749 231.881972243 580 327 580 c 0
 428.014438798 580 434.822519438 476.198176786 434.822519438 476.198176786 c 1
 436.742662387 449.269841735 417.39805126 426.909776071 391.978714466 424.258902377 c 0
 390.23007009 424.076543749 388.491060925 423.986584583 386.767336499 423.986584583 c 0
 363.422523828 423.986584583 342.881227932 440.486835034 339.177396056 467.425417102 c 0
 337.913451363 475.735088092 333.516854745 484 327 484 c 0
 312.118027757 484 258.642190259 442.378257251 242.087669048 358.685955573 c 0
 239.012484776 343.13919064 237.767363798 329.62256497 237.767363798 317.93201091 c 0
 237.767363798 269.425472952 259.203273504 252.35644737 260.291229373 252.147881477 c 0
 260.736082278 252.062601232 261.265708371 252 262 252 c 0
 274.219999676 252 301.839850386 279.348241584 309.608425533 296.32287373 c 0
 314.858321934 315.796986372 334.236147307 331.969422497 356.385572812 331.969422497 c 0
 358.858159461 331.969422497 361.365285023 331.767886072 363.891151391 331.346908344 c 0
EndSplineSet
EndChar

StartChar: registered
Encoding: 174 174 193
Width: 588
VWidth: 0
Flags: HW
HStem: 48 640<200.562 388.238>
VStem: 38 512<250.702 485.298>
LayerCount: 2
Fore
SplineSet
271.15058733 424 m 1
 318 424 l 2
 336.941580509 424 350.267644026 427.48676505 356.900056615 461.251774593 c 0
 358.723491522 470.534715937 358.543479048 476.289922301 358.134422855 479.057660251 c 0
 356.518339744 479.467468432 353.247803608 480 349 480 c 2
 282.35058733 480 l 1
 271.15058733 424 l 1
251.95058733 328 m 1
 226.067872433 198.586425513 l 2
 221.553090091 176.012513804 201.077145511 160.024544865 178.748022746 160.024544865 c 0
 175.716546506 160.024544865 172.650913072 160.319230055 169.586425513 160.932127567 c 0
 147.014053221 165.446602025 131.024511692 185.921510629 131.024511692 208.25173209 c 0
 131.024511692 211.283249497 131.319204871 214.348961007 131.932127567 217.413574487 c 2
 167.26955088 394.100691051 l 1
 195.932127567 537.413574487 l 2
 200.665182392 561.078848612 223.774845704 576 243 576 c 2
 349 576 l 2
 357.28221707 576 365.705954541 575.355122136 374.249611952 573.759654236 c 0
 392.374493266 570.374960196 412.043491488 562.305094732 427.682398656 546.214333202 c 0
 446.711908144 526.635004807 454.294507583 500.986873425 454.294507583 474.174861488 c 0
 454.294507583 463.778986559 453.154569145 453.208138365 451.099943385 442.748225407 c 0
 441.334100017 393.031204626 413.271791554 360.163050705 379.467974178 342.807086352 c 1
 398.477204266 215.065060159 l 2
 398.820196813 212.760150243 398.986457701 210.463414628 398.986457701 208.188980417 c 0
 398.986457701 184.943767766 381.6200344 164.028000234 358.065060159 160.522795734 c 0
 355.76025344 160.179818543 353.463593921 160.013563483 351.189213265 160.013563483 c 0
 327.945254355 160.013563483 307.028244718 177.378322665 303.522795734 200.934939841 c 2
 284.614304639 328 l 1
 251.95058733 328 l 1
597.088225459 358.688768977 m 0
 558.973856966 165.938962598 403.692024021 0 231 0 c 0
 214.80205165 0 198.964250315 1.53839790858 183.659200252 4.56339207246 c 0
 55.1583847263 29.9611670176 -17.5257861309 150.972107113 -17.5257861309 292.574589408 c 0
 -17.5257861309 320.221316036 -14.7551114003 348.652979261 -9.08822545858 377.311231023 c 0
 29.0645424172 570.255228566 185.432919137 736 358 736 c 0
 373.86044238 736 389.371279728 734.525199745 404.371248449 731.621560784 c 0
 533.288917783 706.666150914 605.578876044 585.538568208 605.578876044 443.944581022 c 0
 605.578876044 416.124644616 602.788256593 387.514640712 597.088225459 358.688768977 c 0
502.911774541 377.311231023 m 0
 507.774969283 401.905101575 510.034395523 425.135008808 510.034395523 446.839551509 c 0
 510.034395523 554.062668677 454.893508799 624.059541691 386.126606492 637.371186568 c 0
 377.280970874 639.083492286 367.925549838 640 358 640 c 0
 248.567080863 640 116.935457583 519.744771434 85.0882254586 358.688768977 c 0
 80.2723444772 334.334170871 78.0345131821 311.307642951 78.0345131821 289.770282257 c 0
 78.0345131821 182.638455851 133.405134654 112.353068646 202.273204843 98.741514973 c 0
 211.30833519 96.9557503753 220.863318 96 231 96 c 0
 340.307975979 96 471.026143034 216.061037402 502.911774541 377.311231023 c 0
EndSplineSet
EndChar

StartChar: brokenbar
Encoding: 166 166 194
Width: 230
VWidth: 0
Flags: HW
LayerCount: 2
Fore
SplineSet
105.294385531 319.091553357 m 0
 127.918028618 314.626360643 143.976121757 294.127594529 143.976121757 271.751309735 c 0
 143.976121757 268.758375986 143.688837242 265.731852816 143.091553357 262.705614469 c 2
 83.0915533573 -41.294385531 l 2
 78.6263606428 -63.9180286178 58.127594529 -79.9761217567 35.7513097351 -79.9761217567 c 0
 32.7583759859 -79.9761217567 29.7318528161 -79.6888372416 26.705614469 -79.0915533573 c 0
 4.08042651176 -74.6260557341 -11.9760892047 -54.1262433645 -11.9760892047 -31.7510645273 c 0
 -11.9760892047 -28.7581728769 -11.6888125944 -25.731727937 -11.0915533573 -22.705614469 c 2
 48.9084466427 281.294385531 l 2
 53.3739442659 303.919573488 73.8737566355 319.976089205 96.2489354727 319.976089205 c 0
 99.2418271231 319.976089205 102.268272063 319.688812594 105.294385531 319.091553357 c 0
204.443343548 815.061908829 m 0
 227.002887095 810.535158315 242.975328845 790.066232963 242.975328845 767.747511101 c 0
 242.975328845 764.706353603 242.678770262 761.630851136 242.061908829 758.556656452 c 2
 181.061908829 454.556656452 l 2
 176.535158315 431.997112905 156.066232963 416.024671155 133.747511101 416.024671155 c 0
 130.706353603 416.024671155 127.630851136 416.321229738 124.556656452 416.938091171 c 0
 101.995574854 421.465150307 86.0247044828 441.935109072 86.0247044828 464.252734042 c 0
 86.0247044828 467.29385061 86.3212550565 470.369275043 86.9380911709 473.443343548 c 2
 147.938091171 777.443343548 l 2
 152.465150307 800.004425146 172.935109072 815.975295517 195.252734042 815.975295517 c 0
 198.29385061 815.975295517 201.369275043 815.678744943 204.443343548 815.061908829 c 0
EndSplineSet
EndChar

StartChar: plusminus
Encoding: 177 177 195
Width: 512
VWidth: 0
Flags: HW
LayerCount: 2
Fore
SplineSet
415 56 m 0
 415 29.8555282921 393.146366075 8 367 8 c 2
 21 8 l 2
 -5.14447170793 8 -27 29.8536339246 -27 56 c 0
 -27 82.1463660754 -5.14447170793 104 21 104 c 2
 367 104 l 2
 393.146366075 104 415 82.1444717079 415 56 c 0
496 464 m 0
 496 437.855528292 474.146366075 416 448 416 c 2
 314.386334906 416 l 1
 279.076236293 238.628341849 l 2
 274.579069325 216.037921732 254.095752609 200.024288007 231.749335531 200.024288007 c 0
 228.731389609 200.024288007 225.679462123 200.316364764 222.628341849 200.923763707 c 0
 200.036380394 205.421237515 184.024320962 225.905593821 184.024320962 248.250909656 c 0
 184.024320962 251.26881408 184.316389759 254.320663433 184.923763707 257.371658151 c 2
 216.502553983 416 l 1
 102 416 l 2
 75.8555282921 416 54 437.853633925 54 464 c 0
 54 490.146366075 75.8555282921 512 102 512 c 2
 235.613665094 512 l 1
 270.923763707 689.371658151 l 2
 275.421237515 711.963619606 295.905593821 727.975679038 318.250909656 727.975679038 c 0
 321.26881408 727.975679038 324.320663433 727.683610241 327.371658151 727.076236293 c 0
 349.962078268 722.579069325 365.975711993 702.095752609 365.975711993 679.749335531 c 0
 365.975711993 676.731389609 365.683635236 673.679462123 365.076236293 670.628341849 c 2
 333.497446017 512 l 1
 448 512 l 2
 474.146366075 512 496 490.144471708 496 464 c 0
EndSplineSet
EndChar

StartChar: divide
Encoding: 247 247 196
Width: 512
VWidth: 0
Flags: HW
HStem: 128 48<238.325 273.675> 560 48<238.325 273.675>
VStem: 237 38<129.906 174.094 561.906 606.094>
LayerCount: 2
Fore
SplineSet
144.731579893 152.595953433 m 0
 151.979834195 185.77466872 178.286327553 224 224 224 c 0
 263.513640646 224 282.153869657 191.32597217 282.153869657 162.189348837 c 0
 282.153869657 158.513720437 281.857225361 154.894386993 281.268420107 151.404046567 c 0
 274.020165805 118.22533128 247.713672447 80 202 80 c 0
 162.486359354 80 143.846130343 112.67402783 143.846130343 141.810651163 c 0
 143.846130343 145.486279563 144.142774639 149.105613007 144.731579893 152.595953433 c 0
230.731579893 584.595953433 m 0
 237.979834195 617.77466872 264.286327553 656 310 656 c 0
 349.513640646 656 368.153869657 623.32597217 368.153869657 594.189348837 c 0
 368.153869657 590.513720437 367.857225361 586.894386993 367.268420107 583.404046567 c 0
 360.020165805 550.22533128 333.713672447 512 288 512 c 0
 248.486359354 512 229.846130343 544.67402783 229.846130343 573.810651163 c 0
 229.846130343 577.486279563 230.142774639 581.105613007 230.731579893 584.595953433 c 0
35 368 m 0
 35 394.144471708 56.8536339246 416 83 416 c 2
 429 416 l 2
 455.144471708 416 477 394.146366075 477 368 c 0
 477 341.853633925 455.144471708 320 429 320 c 2
 83 320 l 2
 56.8536339246 320 35 341.855528292 35 368 c 0
EndSplineSet
EndChar

StartChar: uni2070
Encoding: 8304 8304 197
Width: 422
VWidth: 516
Flags: HW
HStem: 522 492<160.037 262.363>
VStem: 62 298<666.762 869.238>
LayerCount: 2
Fore
SplineSet
487.081140153 758.65300894 m 0
 458.625504631 615.320918902 364.222351861 474 242 474 c 0
 233.457985497 474 224.982871878 474.788643687 216.712898149 476.36666755 c 0
 124.668587528 493.92997831 86.229190999 587.866473539 86.229190999 690.579805086 c 0
 86.229190999 719.308606578 89.2363607625 748.724032709 94.9188598468 777.34699106 c 0
 123.374495369 920.679081098 217.777648139 1062 340 1062 c 0
 348.542014503 1062 357.017128122 1061.21135631 365.287101851 1059.63333245 c 0
 457.331412472 1042.07002169 495.770809001 948.133526461 495.770809001 845.420194914 c 0
 495.770809001 816.691393422 492.763639238 787.275967291 487.081140153 758.65300894 c 0
392.918859847 777.34699106 m 0
 397.840629462 802.1381269 399.934726938 824.399086471 399.934726938 844.178164904 c 0
 399.934726938 922.088288185 367.443016731 961.48990668 347.293632696 965.334684168 c 0
 345.064251088 965.760080607 342.671660711 966 340 966 c 0
 298.222351861 966 214.625504631 887.320918902 189.081140153 758.65300894 c 0
 184.159370538 733.8618731 182.065273062 711.600913529 182.065273062 691.821835096 c 0
 182.065273062 613.911711815 214.556983269 574.51009332 234.706367304 570.665315832 c 0
 236.935748912 570.239919393 239.328339289 570 242 570 c 0
 283.777648139 570 367.374495369 648.679081098 392.918859847 777.34699106 c 0
EndSplineSet
EndChar

StartChar: uni2074
Encoding: 8308 8308 198
Width: 422
VWidth: 516
Flags: HW
LayerCount: 2
Fore
SplineSet
323.24941267 742 m 1
 354.262665997 897.066266637 l 1
 216.165915332 742 l 1
 323.24941267 742 l 1
478 694 m 0
 478 667.855528292 456.146366075 646 430 646 c 2
 401.95058733 646 l 1
 376.067872433 516.586425513 l 2
 371.553397975 494.014053221 351.078489371 478.024511692 328.74826791 478.024511692 c 0
 325.716750503 478.024511692 322.651038993 478.319204871 319.586425513 478.932127567 c 0
 297.012513804 483.446909909 281.024544865 503.922854489 281.024544865 526.251977254 c 0
 281.024544865 529.283453494 281.319230055 532.349086928 281.932127567 535.413574487 c 2
 304.04941267 646 l 1
 142 646 l 2
 113.488647958 646 94.120233578 671.274269166 94.120233578 695.136458576 c 0
 94.120233578 697.796670097 94.3609500616 700.439331865 94.8565507892 703.027468998 c 2
 103.856550789 750.027468998 l 2
 105.479508968 758.502917264 109.41851033 766.482511866 115.15422047 772.923033845 c 2
 351.15422047 1037.92303385 l 2
 360.341743311 1048.23953195 374.554695343 1054 387 1054 c 2
 425 1054 l 2
 453.20975741 1054 472.889986412 1029.21168975 472.889986412 1005.00049028 c 0
 472.889986412 1002.17449355 472.621859228 999.356359489 472.067872433 996.586425513 c 2
 421.15058733 742 l 1
 430 742 l 2
 456.146366075 742 478 720.144471708 478 694 c 0
EndSplineSet
EndChar

StartChar: uni2075
Encoding: 8309 8309 199
Width: 422
VWidth: 492
Flags: HW
LayerCount: 2
Fore
SplineSet
123.206743678 655.770777393 m 0
 126.713660909 656.580065985 130.234504773 656.967542999 133.714320187 656.967542999 c 0
 155.512574847 656.967542999 175.700865647 641.762873891 180.770777393 619.793256322 c 0
 188.96135707 584.300744391 208.875356405 570 233 570 c 0
 275.31362324 570 337.951372179 622.017877386 352.874567172 699.121051515 c 0
 355.047442146 710.347572217 356.023338697 720.786860393 356.023338697 730.810024867 c 0
 356.023338697 787.530661095 328.841119185 810 300 810 c 0
 275.323552708 810 243.024119714 795.46754189 212.017231752 760.270533933 c 0
 202.619072999 749.602353726 189.294106024 744.221405991 175.956510352 744.221405991 c 0
 163.410397537 744.221405991 150.853110383 748.982667718 141.542533238 758.583193085 c 0
 132.316875331 768.096154677 128.331687639 781.716991012 128.331687639 793.447216135 c 0
 128.331687639 797.728147619 128.862465305 801.757273094 129.863005544 805.243026186 c 2
 191.863005544 1021.24302619 l 2
 197.75677795 1041.77616876 217.303108509 1056 238 1056 c 2
 430 1056 l 2
 456.144471708 1056 478 1034.14636608 478 1008 c 0
 478 981.853633925 456.144471708 960 430 960 c 2
 274.160455676 960 l 1
 257.062701259 900.433629773 l 1
 269.058722866 903.529430935 285.680003811 906 300 906 c 0
 396.812753564 906 452.023067715 820.342569889 452.023067715 730.636716953 c 0
 452.023067715 714.280944165 450.399647322 697.795723371 447.125432828 680.878948485 c 0
 426.048627821 571.982122614 338.68637676 474 233 474 c 0
 157.124643595 474 103.03864293 529.699255609 87.2292226067 598.206743678 c 0
 86.4199023504 601.713798122 86.0324166766 605.234716387 86.0324166766 608.714559996 c 0
 86.0324166766 630.513833797 101.238600979 650.701206001 123.206743678 655.770777393 c 0
EndSplineSet
EndChar

